{"glyphs":{"0":{"ha":1060,"x_min":90,"x_max":969,"o":"m 579 811 q 781 760 692 811 q 919 620 869 708 q 969 424 969 532 q 893 206 969 307 q 702 46 817 106 q 481 -14 588 -14 q 279 38 368 -14 q 140 178 190 89 q 90 375 90 267 q 167 591 90 490 q 358 751 243 692 q 579 811 474 811 m 499 681 q 301 442 301 681 q 331 278 301 351 q 418 160 360 204 q 561 117 476 117 q 758 358 758 117 q 729 520 758 447 q 642 637 700 593 q 499 681 583 681 z "},"1":{"ha":693,"x_min":97,"x_max":596,"o":"m 561 0 l 115 0 l 115 57 l 250 163 l 250 681 l 97 728 l 132 797 l 579 797 l 579 740 l 444 635 l 444 117 l 596 69 l 561 0 z "},"2":{"ha":854,"x_min":60,"x_max":786,"o":"m 786 -25 l 696 0 l 61 0 l 61 57 q 329 285 238 200 q 457 424 421 369 q 493 524 493 478 q 447 631 493 589 q 329 672 401 672 q 101 576 239 672 l 60 639 l 257 796 q 368 811 300 811 q 547 785 469 811 q 665 713 624 760 q 707 603 707 665 q 624 442 707 544 q 363 196 542 340 l 683 196 l 731 313 l 786 294 l 786 -25 z "},"3":{"ha":778,"x_min":33,"x_max":694,"o":"m 464 357 q 642 237 590 290 q 694 117 694 183 q 546 -146 694 -31 q 71 -367 397 -261 l 46 -286 q 316 -174 224 -222 q 446 -74 408 -125 q 483 51 483 -22 q 444 153 483 110 q 297 258 404 197 l 297 307 q 399 432 372 388 q 425 524 425 476 q 386 634 425 592 q 286 676 347 676 q 75 581 210 676 l 33 643 l 231 800 q 296 811 264 811 q 466 783 388 811 q 590 708 544 756 q 636 603 636 660 q 591 492 631 547 q 464 357 551 436 z "},"4":{"ha":983,"x_min":42,"x_max":963,"o":"m 750 78 l 750 -215 l 556 -297 l 556 78 l 42 78 l 42 135 l 556 756 l 750 838 l 750 190 l 963 190 l 914 78 l 750 78 m 556 599 l 224 190 l 556 190 l 556 599 z "},"5":{"ha":869,"x_min":63,"x_max":718,"o":"m 200 504 q 520 357 408 421 q 675 236 632 293 q 718 110 718 179 q 627 -101 718 -11 q 403 -251 536 -192 q 86 -367 269 -310 l 63 -286 q 344 -171 250 -221 q 472 -73 439 -121 q 506 44 506 -25 q 474 140 506 99 q 355 231 443 182 q 93 350 267 281 l 188 797 l 593 797 l 639 914 l 694 896 l 694 576 l 604 601 l 218 601 l 199 504 l 200 504 z "},"6":{"ha":1033,"x_min":118,"x_max":943,"o":"m 832 1156 q 447 816 564 979 q 329 479 329 653 q 357 298 329 381 q 440 166 385 215 q 575 117 494 117 q 733 329 733 117 q 658 542 733 456 q 464 669 582 628 l 514 746 q 731 700 632 746 q 886 574 829 654 q 943 399 943 494 q 877 203 943 299 q 706 47 811 107 q 493 -14 601 -14 q 299 42 385 -14 q 166 197 214 99 q 118 418 118 296 q 176 698 118 568 q 381 960 233 828 q 792 1226 529 1092 l 832 1156 z "},"7":{"ha":914,"x_min":94,"x_max":847,"o":"m 847 731 l 279 -367 l 201 -332 l 688 601 l 194 601 l 150 496 l 94 514 l 94 822 l 185 797 l 847 797 l 847 731 z "},"8":{"ha":1036,"x_min":92,"x_max":947,"o":"m 658 678 q 809 581 750 624 q 908 481 868 538 q 947 354 947 424 q 882 192 947 279 q 723 47 817 106 q 553 -12 629 -12 q 315 31 419 -12 q 151 151 210 75 q 92 318 92 226 q 153 458 92 389 q 360 632 215 528 q 217 757 268 693 q 165 901 165 821 q 226 1044 165 968 q 376 1174 288 1121 q 538 1226 464 1226 q 708 1192 633 1226 q 824 1101 782 1158 q 865 975 865 1043 q 817 849 860 915 q 658 678 774 783 m 508 1115 q 410 1073 449 1115 q 371 965 371 1031 q 426 838 371 894 q 588 718 482 782 q 656 826 642 789 q 671 910 671 864 q 626 1056 671 997 q 510 1115 581 1115 l 508 1115 m 557 97 q 651 124 611 97 q 714 195 692 151 q 736 289 736 239 q 701 388 736 342 q 614 469 665 433 q 472 560 563 506 l 424 589 q 324 478 349 521 q 300 383 300 435 q 335 242 300 308 q 431 137 371 176 q 557 97 490 97 z "},"9":{"ha":1033,"x_min":90,"x_max":915,"o":"m 542 811 q 734 758 649 811 q 867 614 819 706 q 915 410 915 522 q 858 140 915 264 q 655 -111 801 15 q 246 -367 508 -237 l 206 -296 q 589 29 472 -126 q 706 350 706 185 q 678 515 706 439 q 595 635 650 590 q 460 681 540 681 q 301 469 301 681 q 374 256 301 343 q 560 128 446 169 l 510 51 q 298 97 394 51 q 146 223 201 143 q 90 399 90 303 q 156 596 90 500 q 328 751 222 692 q 542 811 433 811 z "}," ":{"ha":388,"x_min":0,"x_max":0,"o":""},"A":{"ha":1233,"x_min":-3,"x_max":1239,"o":"m 1204 0 l 743 0 l 743 57 l 882 153 l 783 392 l 332 392 l 233 160 l 464 69 l 429 0 l -3 0 l -3 57 l 136 164 l 514 1047 l 696 1118 l 1097 149 l 1239 69 l 1204 0 m 563 929 l 367 471 l 751 471 l 563 929 z "},"Á":{"ha":1233,"x_min":-3,"x_max":1239,"o":"m 1204 0 l 743 0 l 743 57 l 882 153 l 783 392 l 332 392 l 233 160 l 464 69 l 429 0 l -3 0 l -3 57 l 136 164 l 514 1047 l 696 1118 l 1097 149 l 1239 69 l 1204 0 m 563 929 l 367 471 l 751 471 l 563 929 m 911 1515 l 583 1285 l 518 1317 l 667 1589 l 881 1563 l 911 1515 z "},"Ă":{"ha":1233,"x_min":-3,"x_max":1239,"o":"m 1204 0 l 743 0 l 743 57 l 882 153 l 783 392 l 332 392 l 233 160 l 464 69 l 429 0 l -3 0 l -3 57 l 136 164 l 514 1047 l 696 1118 l 1097 149 l 1239 69 l 1204 0 m 563 929 l 367 471 l 751 471 l 563 929 m 924 1569 q 870 1444 919 1507 q 749 1342 821 1382 q 607 1301 676 1301 q 440 1336 521 1301 q 321 1442 360 1371 l 482 1569 q 554 1450 514 1486 q 646 1414 594 1414 q 717 1435 689 1414 q 747 1490 744 1457 l 924 1569 z "},"Â":{"ha":1233,"x_min":-3,"x_max":1239,"o":"m 1204 0 l 743 0 l 743 57 l 882 153 l 783 392 l 332 392 l 233 160 l 464 69 l 429 0 l -3 0 l -3 57 l 136 164 l 514 1047 l 696 1118 l 1097 149 l 1239 69 l 1204 0 m 563 929 l 367 471 l 751 471 l 563 929 m 914 1294 l 711 1268 l 568 1447 l 338 1276 l 292 1342 l 610 1578 l 944 1342 l 914 1294 z "},"Ä":{"ha":1233,"x_min":-3,"x_max":1239,"o":"m 374 1296 q 301 1328 331 1296 q 272 1407 272 1360 q 293 1470 272 1440 q 344 1517 314 1500 q 404 1535 375 1535 q 476 1502 449 1535 q 504 1422 504 1469 q 484 1360 504 1389 q 433 1313 464 1331 q 374 1296 403 1296 m 825 1296 q 753 1328 782 1296 q 724 1407 724 1360 q 744 1470 724 1440 q 796 1517 765 1500 q 856 1535 826 1535 q 928 1502 900 1535 q 956 1422 956 1469 q 935 1360 956 1389 q 885 1313 915 1331 q 825 1296 854 1296 m 1204 0 l 743 0 l 743 57 l 882 153 l 783 392 l 332 392 l 233 160 l 464 69 l 429 0 l -3 0 l -3 57 l 136 164 l 514 1047 l 696 1118 l 1097 149 l 1239 69 l 1204 0 m 563 929 l 367 471 l 751 471 l 563 929 z "},"À":{"ha":1233,"x_min":-3,"x_max":1239,"o":"m 1204 0 l 743 0 l 743 57 l 882 153 l 783 392 l 332 392 l 233 160 l 464 69 l 429 0 l -3 0 l -3 57 l 136 164 l 514 1047 l 696 1118 l 1097 149 l 1239 69 l 1204 0 m 563 929 l 367 471 l 751 471 l 563 929 m 649 1285 l 322 1515 l 351 1563 l 565 1589 l 714 1317 l 649 1285 z "},"Ā":{"ha":1233,"x_min":-3,"x_max":1239,"o":"m 1204 0 l 743 0 l 743 57 l 882 153 l 783 392 l 332 392 l 233 160 l 464 69 l 429 0 l -3 0 l -3 57 l 136 164 l 514 1047 l 696 1118 l 1097 149 l 1239 69 l 1204 0 m 563 929 l 367 471 l 751 471 l 563 929 m 283 1460 l 947 1460 l 947 1385 l 283 1385 l 283 1460 z "},"Ą":{"ha":1233,"x_min":-3,"x_max":1238,"o":"m 1207 0 q 1131 -91 1154 -56 q 1108 -154 1108 -126 q 1124 -192 1108 -179 q 1172 -211 1139 -206 l 1172 -278 l 1060 -367 q 910 -210 910 -325 q 921 -153 910 -175 l 1113 0 l 743 0 l 743 57 l 882 153 l 783 392 l 332 392 l 233 160 l 464 69 l 429 0 l -3 0 l -3 57 l 136 164 l 514 1047 l 696 1118 l 1097 149 l 1238 69 l 1203 1 l 1207 0 m 563 929 l 367 471 l 751 471 l 563 929 z "},"Å":{"ha":1233,"x_min":-3,"x_max":1239,"o":"m 1204 0 l 743 0 l 743 57 l 882 153 l 783 392 l 332 392 l 233 160 l 464 69 l 429 0 l -3 0 l -3 57 l 136 164 l 514 1047 l 696 1118 l 1097 149 l 1239 69 l 1204 0 m 563 929 l 367 471 l 751 471 l 563 929 m 664 1581 q 783 1540 735 1581 q 831 1440 831 1499 q 790 1348 831 1392 q 687 1278 749 1304 q 565 1253 625 1253 q 447 1293 494 1253 q 399 1392 399 1333 q 440 1484 399 1440 q 542 1554 481 1528 q 664 1581 604 1581 m 583 1508 q 517 1456 517 1508 q 551 1361 517 1399 q 646 1324 585 1324 q 695 1338 678 1324 q 713 1379 713 1353 q 679 1472 713 1435 q 583 1508 646 1508 z "},"Ã":{"ha":1233,"x_min":-3,"x_max":1239,"o":"m 1204 0 l 743 0 l 743 57 l 882 153 l 783 392 l 332 392 l 233 160 l 464 69 l 429 0 l -3 0 l -3 57 l 136 164 l 514 1047 l 696 1118 l 1097 149 l 1239 69 l 1204 0 m 563 929 l 367 471 l 751 471 l 563 929 m 558 1588 q 746 1476 665 1476 q 822 1504 786 1476 l 879 1544 l 926 1479 l 671 1293 q 483 1403 563 1403 q 403 1374 443 1403 l 349 1336 l 303 1401 l 558 1588 z "},"Æ":{"ha":1539,"x_min":-3,"x_max":1417,"o":"m 1332 -1 l 526 -1 l 526 56 l 657 158 l 657 517 l 419 517 l 228 157 l 419 68 l 385 -1 l -3 -1 l -3 56 l 119 150 l 554 965 l 376 1022 l 411 1092 l 1318 1092 l 1403 1117 l 1403 783 l 1347 763 l 1179 1013 l 861 1013 l 861 597 l 1013 597 l 1115 767 l 1172 767 l 1172 351 l 1103 317 l 1014 518 l 861 518 l 861 81 l 1172 81 l 1361 357 l 1417 336 l 1417 -26 l 1332 -1 m 657 961 l 461 596 l 657 596 l 657 961 z "},"B":{"ha":1100,"x_min":60,"x_max":1033,"o":"m 811 590 q 974 484 914 557 q 1033 318 1033 411 q 961 153 1033 231 q 781 31 889 76 q 575 -15 672 -15 q 439 -8 506 -15 q 267 -1 328 -1 l 76 -1 l 76 56 l 207 158 l 207 978 l 60 1022 l 94 1092 l 265 1092 q 514 1100 392 1092 q 653 1106 608 1106 q 824 1069 750 1106 q 938 972 897 1033 q 978 833 978 910 q 932 701 978 764 q 811 590 886 638 m 760 765 q 706 937 760 871 q 544 1003 651 1003 q 413 967 472 1003 l 413 601 l 593 601 q 716 644 672 601 q 760 765 760 686 m 614 106 q 761 152 707 106 q 815 279 815 199 q 756 445 815 382 q 582 513 697 508 q 554 511 572 511 l 413 511 l 413 138 q 614 103 497 103 l 614 106 z "},"C":{"ha":1149,"x_min":90,"x_max":1072,"o":"m 701 1119 q 879 1099 778 1119 q 1026 1054 981 1078 l 1026 775 l 943 775 q 621 986 821 986 q 465 935 535 986 q 353 792 394 883 q 313 588 313 701 q 353 351 313 458 q 475 180 393 244 q 678 115 557 115 q 1025 278 797 115 l 1072 201 l 817 3 q 710 -22 761 -15 q 600 -28 658 -28 q 334 43 450 -28 q 154 238 218 114 q 90 521 90 363 q 187 822 90 683 q 427 1040 283 960 q 701 1119 571 1119 z "},"Ć":{"ha":1149,"x_min":90,"x_max":1072,"o":"m 701 1119 q 879 1099 778 1119 q 1026 1054 981 1078 l 1026 775 l 943 775 q 621 986 821 986 q 465 935 535 986 q 353 792 394 883 q 313 588 313 701 q 353 351 313 458 q 475 180 393 244 q 678 115 557 115 q 1025 278 797 115 l 1072 201 l 817 3 q 710 -22 761 -15 q 600 -28 658 -28 q 334 43 450 -28 q 154 238 218 114 q 90 521 90 363 q 187 822 90 683 q 427 1040 283 960 q 701 1119 571 1119 m 907 1515 l 579 1285 l 514 1317 l 663 1589 l 876 1563 l 907 1515 z "},"Č":{"ha":1149,"x_min":90,"x_max":1072,"o":"m 701 1119 q 879 1099 778 1119 q 1026 1054 981 1078 l 1026 775 l 943 775 q 621 986 821 986 q 465 935 535 986 q 353 792 394 883 q 313 588 313 701 q 353 351 313 458 q 475 180 393 244 q 678 115 557 115 q 1025 278 797 115 l 1072 201 l 817 3 q 710 -22 761 -15 q 600 -28 658 -28 q 334 43 450 -28 q 154 238 218 114 q 90 521 90 363 q 187 822 90 683 q 427 1040 283 960 q 701 1119 571 1119 m 617 1279 l 283 1515 l 313 1563 l 517 1589 l 658 1410 l 889 1581 l 935 1515 l 617 1279 z "},"Ç":{"ha":1149,"x_min":90,"x_max":1072,"o":"m 817 4 q 703 -21 765 -14 l 646 -69 q 741 -153 715 -119 q 767 -226 767 -187 q 698 -325 767 -290 q 486 -367 629 -360 l 486 -310 q 573 -264 544 -290 q 601 -200 601 -237 q 582 -148 601 -171 q 514 -93 563 -125 l 593 -28 q 331 45 446 -26 q 153 240 217 117 q 90 521 90 364 q 187 822 90 683 q 427 1040 283 960 q 701 1119 571 1119 q 879 1099 778 1119 q 1026 1054 981 1078 l 1026 775 l 943 775 q 621 986 821 986 q 465 935 535 986 q 353 792 394 883 q 313 588 313 701 q 353 351 313 458 q 475 180 393 244 q 678 115 557 115 q 1025 278 797 115 l 1072 201 l 817 3 l 817 4 z "},"Ċ":{"ha":1149,"x_min":90,"x_max":1072,"o":"m 701 1119 q 879 1099 778 1119 q 1026 1054 981 1078 l 1026 775 l 943 775 q 621 986 821 986 q 465 935 535 986 q 353 792 394 883 q 313 588 313 701 q 353 351 313 458 q 475 180 393 244 q 678 115 557 115 q 1025 278 797 115 l 1072 201 l 817 3 q 710 -22 761 -15 q 600 -28 658 -28 q 334 43 450 -28 q 154 238 218 114 q 90 521 90 363 q 187 822 90 683 q 427 1040 283 960 q 701 1119 571 1119 m 626 1536 q 707 1502 675 1536 q 739 1418 739 1468 q 716 1352 739 1383 q 659 1303 693 1321 q 593 1285 625 1285 q 513 1318 544 1285 q 481 1401 481 1351 q 503 1468 481 1438 q 560 1517 526 1499 q 626 1536 594 1536 z "},"D":{"ha":1253,"x_min":60,"x_max":1163,"o":"m 660 1104 q 923 1035 808 1104 q 1100 844 1038 967 q 1163 568 1163 722 q 1067 276 1163 410 q 831 63 972 142 q 561 -15 689 -15 q 433 -8 496 -15 q 271 -1 326 -1 l 76 -1 l 76 56 l 207 158 l 207 975 l 60 1022 l 94 1092 l 269 1092 q 524 1100 399 1092 q 660 1106 615 1106 l 660 1104 m 600 97 q 774 149 696 97 q 896 294 851 201 q 940 501 940 386 q 898 752 940 639 q 768 933 856 865 q 551 1000 681 1000 q 413 957 475 1000 l 413 129 q 600 99 492 99 l 600 97 z "},"Ð":{"ha":1253,"x_min":60,"x_max":1163,"o":"m 660 1104 q 923 1035 808 1104 q 1100 844 1038 967 q 1163 568 1163 722 q 1067 276 1163 410 q 831 63 972 142 q 561 -15 689 -15 q 433 -8 496 -15 q 271 -1 326 -1 l 76 -1 l 76 56 l 207 158 l 207 975 l 60 1022 l 94 1092 l 269 1092 q 524 1100 399 1092 q 660 1106 615 1106 l 660 1104 m 600 99 q 774 151 696 99 q 896 295 851 203 q 940 503 940 388 q 898 753 940 640 q 768 934 856 867 q 551 1001 681 1001 q 413 958 475 1001 l 413 581 l 438 581 l 438 561 l 413 561 l 413 129 q 600 99 492 99 z "},"Ď":{"ha":1253,"x_min":60,"x_max":1163,"o":"m 660 1104 q 923 1035 808 1104 q 1100 844 1038 967 q 1163 568 1163 722 q 1067 276 1163 410 q 831 63 972 142 q 561 -15 689 -15 q 433 -8 496 -15 q 271 -1 326 -1 l 76 -1 l 76 56 l 207 158 l 207 975 l 60 1022 l 94 1092 l 269 1092 q 524 1100 399 1092 q 660 1106 615 1106 l 660 1104 m 600 97 q 774 149 696 97 q 896 294 851 201 q 940 501 940 386 q 898 752 940 639 q 768 933 856 865 q 551 1000 681 1000 q 413 957 475 1000 l 413 129 q 600 99 492 99 l 600 97 m 575 1279 l 242 1515 l 271 1563 l 475 1589 l 617 1410 l 847 1581 l 893 1515 l 575 1279 z "},"Đ":{"ha":1253,"x_min":60,"x_max":1163,"o":"m 660 1104 q 923 1035 808 1104 q 1100 844 1038 967 q 1163 568 1163 722 q 1067 276 1163 410 q 831 63 972 142 q 561 -15 689 -15 q 433 -8 496 -15 q 271 -1 326 -1 l 76 -1 l 76 56 l 207 158 l 207 975 l 60 1022 l 94 1092 l 269 1092 q 524 1100 399 1092 q 660 1106 615 1106 l 660 1104 m 600 99 q 774 151 696 99 q 896 295 851 203 q 940 503 940 388 q 898 753 940 640 q 768 934 856 867 q 551 1001 681 1001 q 413 958 475 1001 l 413 581 l 438 581 l 438 561 l 413 561 l 413 129 q 600 99 492 99 z "},"E":{"ha":1135,"x_min":60,"x_max":1013,"o":"m 928 0 l 76 0 l 76 57 l 207 160 l 207 975 l 60 1022 l 94 1092 l 914 1092 l 999 1117 l 999 783 l 943 763 l 775 1013 l 413 1013 l 413 597 l 608 597 l 711 767 l 768 767 l 768 351 l 699 317 l 610 518 l 413 518 l 413 81 l 768 81 l 957 357 l 1013 336 l 1013 -25 l 928 0 z "},"É":{"ha":1135,"x_min":60,"x_max":1013,"o":"m 928 0 l 76 0 l 76 57 l 207 160 l 207 975 l 60 1022 l 94 1092 l 914 1092 l 999 1117 l 999 783 l 943 763 l 775 1013 l 413 1013 l 413 597 l 608 597 l 711 767 l 768 767 l 768 351 l 699 317 l 610 518 l 413 518 l 413 81 l 768 81 l 957 357 l 1013 336 l 1013 -25 l 928 0 m 868 1515 l 540 1285 l 475 1317 l 624 1589 l 838 1563 l 868 1515 z "},"Ě":{"ha":1135,"x_min":60,"x_max":1013,"o":"m 928 0 l 76 0 l 76 57 l 207 160 l 207 975 l 60 1022 l 94 1092 l 914 1092 l 999 1117 l 999 783 l 943 763 l 775 1013 l 413 1013 l 413 597 l 608 597 l 711 767 l 768 767 l 768 351 l 699 317 l 610 518 l 413 518 l 413 81 l 768 81 l 957 357 l 1013 336 l 1013 -25 l 928 0 m 578 1279 l 244 1515 l 274 1563 l 478 1589 l 619 1410 l 850 1581 l 896 1515 l 578 1279 z "},"Ê":{"ha":1135,"x_min":60,"x_max":1013,"o":"m 928 0 l 76 0 l 76 57 l 207 160 l 207 975 l 60 1022 l 94 1092 l 914 1092 l 999 1117 l 999 783 l 943 763 l 775 1013 l 413 1013 l 413 597 l 608 597 l 711 767 l 768 767 l 768 351 l 699 317 l 610 518 l 413 518 l 413 81 l 768 81 l 957 357 l 1013 336 l 1013 -25 l 928 0 m 871 1294 l 668 1268 l 525 1447 l 294 1276 l 249 1342 l 567 1578 l 901 1342 l 871 1294 z "},"Ë":{"ha":1135,"x_min":60,"x_max":1013,"o":"m 332 1296 q 260 1328 289 1296 q 231 1407 231 1360 q 251 1470 231 1440 q 303 1517 272 1500 q 363 1535 333 1535 q 435 1502 407 1535 q 463 1422 463 1469 q 442 1360 463 1389 q 392 1313 422 1331 q 332 1296 361 1296 m 783 1296 q 711 1328 740 1296 q 682 1407 682 1360 q 703 1470 682 1440 q 754 1517 724 1500 q 814 1535 785 1535 q 886 1502 858 1535 q 914 1422 914 1469 q 894 1360 914 1389 q 843 1313 874 1331 q 783 1296 813 1296 m 928 0 l 76 0 l 76 57 l 207 160 l 207 975 l 60 1022 l 94 1092 l 914 1092 l 999 1117 l 999 783 l 943 763 l 775 1013 l 413 1013 l 413 597 l 608 597 l 711 767 l 768 767 l 768 351 l 699 317 l 610 518 l 413 518 l 413 81 l 768 81 l 957 357 l 1013 336 l 1013 -25 l 928 0 z "},"Ė":{"ha":1135,"x_min":60,"x_max":1013,"o":"m 928 0 l 76 0 l 76 57 l 207 160 l 207 975 l 60 1022 l 94 1092 l 914 1092 l 999 1117 l 999 783 l 943 763 l 775 1013 l 413 1013 l 413 597 l 608 597 l 711 767 l 768 767 l 768 351 l 699 317 l 610 518 l 413 518 l 413 81 l 768 81 l 957 357 l 1013 336 l 1013 -25 l 928 0 m 588 1536 q 668 1502 636 1536 q 700 1418 700 1468 q 677 1352 700 1383 q 620 1303 654 1321 q 554 1285 586 1285 q 474 1318 506 1285 q 442 1401 442 1351 q 465 1468 442 1438 q 522 1517 488 1499 q 588 1536 556 1536 z "},"È":{"ha":1135,"x_min":60,"x_max":1013,"o":"m 928 0 l 76 0 l 76 57 l 207 160 l 207 975 l 60 1022 l 94 1092 l 914 1092 l 999 1117 l 999 783 l 943 763 l 775 1013 l 413 1013 l 413 597 l 608 597 l 711 767 l 768 767 l 768 351 l 699 317 l 610 518 l 413 518 l 413 81 l 768 81 l 957 357 l 1013 336 l 1013 -25 l 928 0 m 606 1285 l 279 1515 l 308 1563 l 522 1589 l 671 1317 l 606 1285 z "},"Ē":{"ha":1135,"x_min":60,"x_max":1013,"o":"m 928 0 l 76 0 l 76 57 l 207 160 l 207 975 l 60 1022 l 94 1092 l 914 1092 l 999 1117 l 999 783 l 943 763 l 775 1013 l 413 1013 l 413 597 l 608 597 l 711 767 l 768 767 l 768 351 l 699 317 l 610 518 l 413 518 l 413 81 l 768 81 l 957 357 l 1013 336 l 1013 -25 l 928 0 m 240 1460 l 904 1460 l 904 1385 l 240 1385 l 240 1460 z "},"Ę":{"ha":1135,"x_min":60,"x_max":1013,"o":"m 975 -14 q 909 -95 929 -62 q 889 -154 889 -128 q 904 -192 889 -179 q 953 -211 919 -206 l 953 -278 l 840 -367 q 690 -210 690 -325 q 701 -153 690 -175 l 893 0 l 76 0 l 76 57 l 207 160 l 207 975 l 60 1022 l 94 1092 l 914 1092 l 999 1117 l 999 783 l 943 763 l 775 1013 l 413 1013 l 413 597 l 608 597 l 711 767 l 768 767 l 768 351 l 699 317 l 610 518 l 413 518 l 413 81 l 768 81 l 957 357 l 1013 336 l 1013 -25 l 975 -14 z "},"F":{"ha":1079,"x_min":60,"x_max":999,"o":"m 999 783 l 943 763 l 772 1013 l 413 1013 l 413 597 l 608 597 l 711 767 l 768 767 l 768 376 l 699 342 l 611 518 l 413 518 l 413 125 l 638 69 l 603 0 l 76 0 l 76 57 l 207 160 l 207 975 l 60 1022 l 94 1092 l 914 1092 l 999 1117 l 999 783 z "},"G":{"ha":1282,"x_min":90,"x_max":1226,"o":"m 1094 229 l 1132 160 l 876 3 q 756 -22 814 -15 q 632 -28 699 -28 q 349 43 472 -28 q 158 238 226 114 q 90 521 90 363 q 192 822 90 683 q 446 1040 294 960 q 733 1119 597 1119 q 926 1099 815 1119 q 1086 1054 1036 1078 l 1086 761 l 1001 761 q 653 986 869 986 q 479 935 557 986 q 357 792 401 883 q 313 588 313 701 q 356 347 313 456 q 488 174 399 239 q 710 108 578 108 q 803 111 767 108 q 889 128 840 114 l 889 439 l 672 494 l 707 564 l 1226 564 l 1226 507 l 1094 400 l 1094 229 z "},"Ğ":{"ha":1282,"x_min":90,"x_max":1226,"o":"m 1094 229 l 1132 160 l 876 3 q 756 -22 814 -15 q 632 -28 699 -28 q 349 43 472 -28 q 158 238 226 114 q 90 521 90 363 q 192 822 90 683 q 446 1040 294 960 q 733 1119 597 1119 q 926 1099 815 1119 q 1086 1054 1036 1078 l 1086 761 l 1001 761 q 653 986 869 986 q 479 935 557 986 q 357 792 401 883 q 313 588 313 701 q 356 347 313 456 q 488 174 399 239 q 710 108 578 108 q 803 111 767 108 q 889 128 840 114 l 889 439 l 672 494 l 707 564 l 1226 564 l 1226 507 l 1094 400 l 1094 229 m 972 1569 q 919 1444 968 1507 q 797 1342 869 1382 q 656 1301 725 1301 q 489 1336 569 1301 q 369 1442 408 1371 l 531 1569 q 603 1450 563 1486 q 694 1414 643 1414 q 765 1435 738 1414 q 796 1490 793 1457 l 972 1569 z "},"Ģ":{"ha":1282,"x_min":90,"x_max":1226,"o":"m 1094 229 l 1132 160 l 876 3 q 756 -22 814 -15 q 632 -28 699 -28 q 349 43 472 -28 q 158 238 226 114 q 90 521 90 363 q 192 822 90 683 q 446 1040 294 960 q 733 1119 597 1119 q 926 1099 815 1119 q 1086 1054 1036 1078 l 1086 761 l 1001 761 q 653 986 869 986 q 479 935 557 986 q 357 792 401 883 q 313 588 313 701 q 356 347 313 456 q 488 174 399 239 q 710 108 578 108 q 803 111 767 108 q 889 128 840 114 l 889 439 l 672 494 l 707 564 l 1226 564 l 1226 507 l 1094 400 l 1094 229 m 853 -172 l 676 -422 l 597 -422 l 635 -258 l 521 -185 l 556 -115 l 853 -115 l 853 -172 z "},"Ġ":{"ha":1282,"x_min":90,"x_max":1226,"o":"m 1094 229 l 1132 160 l 876 3 q 756 -22 814 -15 q 632 -28 699 -28 q 349 43 472 -28 q 158 238 226 114 q 90 521 90 363 q 192 822 90 683 q 446 1040 294 960 q 733 1119 597 1119 q 926 1099 815 1119 q 1086 1054 1036 1078 l 1086 761 l 1001 761 q 653 986 869 986 q 479 935 557 986 q 357 792 401 883 q 313 588 313 701 q 356 347 313 456 q 488 174 399 239 q 710 108 578 108 q 803 111 767 108 q 889 128 840 114 l 889 439 l 672 494 l 707 564 l 1226 564 l 1226 507 l 1094 400 l 1094 229 m 679 1536 q 760 1502 728 1536 q 792 1418 792 1468 q 769 1352 792 1383 q 712 1303 746 1321 q 646 1285 678 1285 q 565 1318 597 1285 q 533 1401 533 1351 q 556 1468 533 1438 q 613 1517 579 1499 q 679 1536 647 1536 z "},"H":{"ha":1343,"x_min":60,"x_max":1283,"o":"m 1249 0 l 799 0 l 799 57 l 929 163 l 929 504 l 413 504 l 413 117 l 561 69 l 526 0 l 76 0 l 76 57 l 207 163 l 207 976 l 60 1022 l 94 1092 l 544 1092 l 544 1035 l 413 929 l 413 583 l 929 583 l 929 976 l 782 1022 l 817 1092 l 1267 1092 l 1267 1035 l 1135 929 l 1135 117 l 1283 69 l 1249 0 z "},"Ħ":{"ha":1343,"x_min":0,"x_max":1342,"o":"m 1135 117 l 1283 69 l 1249 0 l 799 0 l 799 57 l 929 163 l 929 504 l 413 504 l 413 117 l 561 69 l 526 0 l 76 0 l 76 57 l 207 163 l 207 750 l 0 750 l 0 831 l 207 831 l 207 976 l 60 1022 l 94 1092 l 544 1092 l 544 1035 l 413 929 l 413 831 l 929 831 l 929 976 l 782 1022 l 817 1092 l 1267 1092 l 1267 1035 l 1135 929 l 1135 831 l 1342 831 l 1342 750 l 1135 750 l 1135 117 m 413 750 l 413 583 l 929 583 l 929 750 l 413 750 z "},"I":{"ha":621,"x_min":60,"x_max":561,"o":"m 526 0 l 76 0 l 76 57 l 207 163 l 207 976 l 60 1022 l 94 1092 l 544 1092 l 544 1035 l 413 929 l 413 117 l 561 69 l 526 0 z "},"Ĳ":{"ha":1217,"x_min":60,"x_max":1158,"o":"m 526 0 l 76 0 l 76 57 l 207 163 l 207 976 l 60 1022 l 94 1092 l 544 1092 l 544 1035 l 413 929 l 413 117 l 561 69 l 526 0 m 1026 138 q 1030 35 1026 82 q 1039 -28 1033 -11 l 753 -367 l 686 -315 q 793 -146 765 -215 q 821 26 821 -76 l 821 974 l 646 1022 l 681 1092 l 1158 1092 l 1158 1035 l 1026 932 l 1026 138 z "},"Í":{"ha":621,"x_min":60,"x_max":606,"o":"m 526 0 l 76 0 l 76 57 l 207 163 l 207 976 l 60 1022 l 94 1092 l 544 1092 l 544 1035 l 413 929 l 413 117 l 561 69 l 526 0 m 606 1515 l 278 1285 l 213 1317 l 361 1589 l 575 1563 l 606 1515 z "},"Î":{"ha":621,"x_min":-14,"x_max":639,"o":"m 526 0 l 76 0 l 76 57 l 207 163 l 207 976 l 60 1022 l 94 1092 l 544 1092 l 544 1035 l 413 929 l 413 117 l 561 69 l 526 0 m 608 1294 l 406 1268 l 263 1447 l 32 1276 l -14 1342 l 304 1578 l 639 1342 l 608 1294 z "},"Ï":{"ha":621,"x_min":1,"x_max":621,"o":"m 526 0 l 76 0 l 76 57 l 207 163 l 207 976 l 60 1022 l 94 1092 l 544 1092 l 544 1035 l 413 929 l 413 117 l 561 69 l 526 0 m 132 1534 q 204 1503 176 1534 q 231 1424 231 1471 q 211 1362 231 1391 q 161 1316 191 1333 q 102 1298 130 1298 q 31 1330 59 1298 q 2 1409 2 1362 q 23 1471 2 1441 q 73 1517 43 1500 q 132 1534 103 1534 m 520 1534 q 593 1503 565 1534 q 620 1424 620 1471 q 600 1362 620 1391 q 549 1316 580 1333 q 491 1298 519 1298 q 419 1330 448 1298 q 391 1409 391 1362 q 411 1471 391 1441 q 462 1517 432 1500 q 520 1534 492 1534 z "},"İ":{"ha":621,"x_min":60,"x_max":561,"o":"m 526 0 l 76 0 l 76 57 l 207 163 l 207 976 l 60 1022 l 94 1092 l 544 1092 l 544 1035 l 413 929 l 413 117 l 561 69 l 526 0 m 326 1536 q 407 1502 375 1536 q 439 1418 439 1468 q 416 1352 439 1383 q 359 1303 393 1321 q 293 1285 325 1285 q 213 1318 244 1285 q 181 1401 181 1351 q 203 1468 181 1438 q 260 1517 226 1499 q 326 1536 294 1536 z "},"Ì":{"ha":621,"x_min":17,"x_max":561,"o":"m 526 0 l 76 0 l 76 57 l 207 163 l 207 976 l 60 1022 l 94 1092 l 544 1092 l 544 1035 l 413 929 l 413 117 l 561 69 l 526 0 m 343 1285 l 17 1515 l 46 1563 l 260 1589 l 408 1317 l 343 1285 z "},"Ī":{"ha":621,"x_min":-22,"x_max":642,"o":"m 526 0 l 76 0 l 76 57 l 207 163 l 207 976 l 60 1022 l 94 1092 l 544 1092 l 544 1035 l 413 929 l 413 117 l 561 69 l 526 0 m -22 1460 l 642 1460 l 642 1385 l -22 1385 l -22 1460 z "},"Į":{"ha":621,"x_min":60,"x_max":561,"o":"m 526 0 q 451 -91 474 -56 q 428 -154 428 -126 q 443 -192 428 -179 q 492 -211 458 -206 l 492 -278 l 379 -367 q 229 -210 229 -325 q 240 -153 229 -175 l 432 0 l 76 0 l 76 57 l 207 163 l 207 976 l 60 1022 l 94 1092 l 544 1092 l 544 1035 l 413 929 l 413 117 l 561 69 l 526 0 z "},"J":{"ha":596,"x_min":25,"x_max":538,"o":"m 406 138 q 409 35 406 82 q 418 -28 413 -11 l 132 -367 l 65 -315 q 172 -146 144 -215 q 200 26 200 -76 l 200 974 l 25 1022 l 60 1092 l 538 1092 l 538 1035 l 406 932 l 406 138 z "},"K":{"ha":1219,"x_min":60,"x_max":1203,"o":"m 561 69 l 526 0 l 76 0 l 76 57 l 207 163 l 207 976 l 60 1022 l 94 1092 l 544 1092 l 544 1035 l 413 929 l 413 117 l 561 69 m 1168 0 l 899 0 l 482 547 l 900 913 l 738 1022 l 772 1092 l 1163 1092 l 1163 1035 l 682 614 l 1046 144 l 1203 69 l 1168 0 z "},"Ķ":{"ha":1219,"x_min":60,"x_max":1203,"o":"m 561 69 l 526 0 l 76 0 l 76 57 l 207 163 l 207 976 l 60 1022 l 94 1092 l 544 1092 l 544 1035 l 413 929 l 413 117 l 561 69 m 1168 0 l 899 0 l 482 547 l 900 913 l 738 1022 l 772 1092 l 1163 1092 l 1163 1035 l 682 614 l 1046 144 l 1203 69 l 1168 0 m 822 -172 l 646 -422 l 567 -422 l 604 -258 l 490 -185 l 525 -115 l 822 -115 l 822 -172 z "},"L":{"ha":1096,"x_min":60,"x_max":1017,"o":"m 932 0 l 76 0 l 76 57 l 207 160 l 207 978 l 60 1022 l 94 1092 l 544 1092 l 544 1035 l 413 932 l 413 81 l 753 81 l 961 385 l 1017 364 l 1017 -25 l 932 0 z "},"Ĺ":{"ha":1096,"x_min":60,"x_max":1017,"o":"m 932 0 l 76 0 l 76 57 l 207 160 l 207 978 l 60 1022 l 94 1092 l 544 1092 l 544 1035 l 413 932 l 413 81 l 753 81 l 961 385 l 1017 364 l 1017 -25 l 932 0 m 628 1515 l 300 1285 l 235 1317 l 383 1589 l 597 1563 l 628 1515 z "},"Ľ":{"ha":1096,"x_min":60,"x_max":1017,"o":"m 932 0 l 76 0 l 76 57 l 207 160 l 207 978 l 60 1022 l 94 1092 l 544 1092 l 544 1035 l 413 932 l 413 81 l 753 81 l 961 385 l 1017 364 l 1017 -25 l 932 0 m 881 871 l 718 672 l 651 725 q 710 915 710 825 l 647 967 l 647 1024 l 815 1092 l 881 1092 l 881 871 z "},"Ļ":{"ha":1096,"x_min":60,"x_max":1017,"o":"m 932 0 l 76 0 l 76 57 l 207 160 l 207 978 l 60 1022 l 94 1092 l 544 1092 l 544 1035 l 413 932 l 413 81 l 753 81 l 961 385 l 1017 364 l 1017 -25 l 932 0 m 731 -172 l 554 -422 l 475 -422 l 513 -258 l 399 -185 l 433 -115 l 731 -115 l 731 -172 z "},"Ŀ":{"ha":1096,"x_min":60,"x_max":1017,"o":"m 932 0 l 76 0 l 76 57 l 207 160 l 207 978 l 60 1022 l 94 1092 l 544 1092 l 544 1035 l 413 932 l 413 81 l 753 81 l 961 385 l 1017 364 l 1017 -25 l 932 0 m 869 839 q 950 805 918 839 q 982 721 982 771 q 959 655 982 686 q 902 606 936 624 q 836 588 868 588 q 756 621 788 588 q 724 704 724 654 q 747 771 724 740 q 803 820 769 801 q 869 839 838 839 z "},"Ł":{"ha":1089,"x_min":0,"x_max":1017,"o":"m 932 0 l 76 0 l 76 57 l 207 160 l 207 382 l 0 218 l 0 297 l 207 461 l 207 978 l 60 1022 l 94 1092 l 544 1092 l 544 1035 l 413 932 l 413 563 l 772 846 l 772 767 l 413 483 l 413 81 l 753 81 l 961 385 l 1017 364 l 1017 -25 l 932 0 z "},"M":{"ha":1529,"x_min":60,"x_max":1471,"o":"m 1436 0 l 986 0 l 986 57 l 1117 160 l 1117 888 l 756 0 l 663 0 l 301 893 l 301 138 l 450 69 l 415 0 l 76 0 l 76 57 l 207 160 l 207 951 l 60 1022 l 94 1092 l 431 1092 l 765 258 l 1099 1092 l 1453 1092 l 1453 1035 l 1321 932 l 1321 115 l 1471 69 l 1436 0 z "},"N":{"ha":1228,"x_min":60,"x_max":1183,"o":"m 1051 929 l 1051 0 l 957 0 l 301 799 l 301 143 l 468 69 l 433 0 l 76 0 l 76 57 l 207 163 l 207 942 l 60 1022 l 94 1092 l 318 1092 l 957 315 l 957 951 l 792 1022 l 826 1092 l 1183 1092 l 1183 1035 l 1051 929 z "},"Ń":{"ha":1228,"x_min":60,"x_max":1183,"o":"m 1051 929 l 1051 0 l 957 0 l 301 799 l 301 143 l 468 69 l 433 0 l 76 0 l 76 57 l 207 163 l 207 942 l 60 1022 l 94 1092 l 318 1092 l 957 315 l 957 951 l 792 1022 l 826 1092 l 1183 1092 l 1183 1035 l 1051 929 m 911 1515 l 583 1285 l 518 1317 l 667 1589 l 881 1563 l 911 1515 z "},"Ň":{"ha":1228,"x_min":60,"x_max":1183,"o":"m 1051 929 l 1051 0 l 957 0 l 301 799 l 301 143 l 468 69 l 433 0 l 76 0 l 76 57 l 207 163 l 207 942 l 60 1022 l 94 1092 l 318 1092 l 957 315 l 957 951 l 792 1022 l 826 1092 l 1183 1092 l 1183 1035 l 1051 929 m 621 1279 l 288 1515 l 317 1563 l 521 1589 l 663 1410 l 893 1581 l 939 1515 l 621 1279 z "},"Ņ":{"ha":1228,"x_min":60,"x_max":1183,"o":"m 1051 929 l 1051 0 l 957 0 l 301 799 l 301 143 l 468 69 l 433 0 l 76 0 l 76 57 l 207 163 l 207 942 l 60 1022 l 94 1092 l 318 1092 l 957 315 l 957 951 l 792 1022 l 826 1092 l 1183 1092 l 1183 1035 l 1051 929 m 792 -172 l 615 -422 l 536 -422 l 574 -258 l 460 -185 l 494 -115 l 792 -115 l 792 -172 z "},"Ŋ":{"ha":1228,"x_min":60,"x_max":1183,"o":"m 1050 138 q 1053 35 1050 82 q 1063 -28 1057 -11 l 776 -367 l 710 -315 q 832 -151 792 -217 q 885 -36 872 -86 q 896 74 899 14 l 301 799 l 301 143 l 468 69 l 433 0 l 76 0 l 76 57 l 207 163 l 207 942 l 60 1022 l 94 1092 l 318 1092 l 957 315 l 957 951 l 792 1022 l 826 1092 l 1183 1092 l 1183 1035 l 1050 929 l 1050 138 z "},"Ñ":{"ha":1228,"x_min":60,"x_max":1183,"o":"m 1051 929 l 1051 0 l 957 0 l 301 799 l 301 143 l 468 69 l 433 0 l 76 0 l 76 57 l 207 163 l 207 942 l 60 1022 l 94 1092 l 318 1092 l 957 315 l 957 951 l 792 1022 l 826 1092 l 1183 1092 l 1183 1035 l 1051 929 m 558 1588 q 746 1476 665 1476 q 822 1504 786 1476 l 879 1544 l 926 1479 l 671 1293 q 483 1403 563 1403 q 403 1374 443 1403 l 349 1336 l 303 1401 l 558 1588 z "},"O":{"ha":1308,"x_min":90,"x_max":1218,"o":"m 703 1119 q 973 1049 856 1119 q 1154 853 1090 978 q 1218 569 1218 728 q 1121 269 1218 407 q 879 52 1024 132 q 604 -28 735 -28 q 336 42 453 -28 q 155 238 219 113 q 90 521 90 363 q 188 822 90 683 q 428 1040 285 960 q 703 1119 572 1119 m 622 986 q 465 935 536 986 q 353 792 394 883 q 313 588 313 700 q 353 347 313 456 q 478 172 394 238 q 685 107 561 107 q 842 158 771 107 q 955 301 914 210 q 996 504 996 392 q 955 747 996 638 q 830 921 914 856 q 622 986 746 986 z "},"Ó":{"ha":1308,"x_min":90,"x_max":1218,"o":"m 703 1119 q 973 1049 856 1119 q 1154 853 1090 978 q 1218 569 1218 728 q 1121 269 1218 407 q 879 52 1024 132 q 604 -28 735 -28 q 336 42 453 -28 q 155 238 219 113 q 90 521 90 363 q 188 822 90 683 q 428 1040 285 960 q 703 1119 572 1119 m 622 986 q 465 935 536 986 q 353 792 394 883 q 313 588 313 700 q 353 347 313 456 q 478 172 394 238 q 685 107 561 107 q 842 158 771 107 q 955 301 914 210 q 996 504 996 392 q 955 747 996 638 q 830 921 914 856 q 622 986 746 986 m 950 1515 l 622 1285 l 557 1317 l 706 1589 l 919 1563 l 950 1515 z "},"Ô":{"ha":1308,"x_min":90,"x_max":1218,"o":"m 703 1119 q 973 1049 856 1119 q 1154 853 1090 978 q 1218 569 1218 728 q 1121 269 1218 407 q 879 52 1024 132 q 604 -28 735 -28 q 336 42 453 -28 q 155 238 219 113 q 90 521 90 363 q 188 822 90 683 q 428 1040 285 960 q 703 1119 572 1119 m 622 986 q 465 935 536 986 q 353 792 394 883 q 313 588 313 700 q 353 347 313 456 q 478 172 394 238 q 685 107 561 107 q 842 158 771 107 q 955 301 914 210 q 996 504 996 392 q 955 747 996 638 q 830 921 914 856 q 622 986 746 986 m 953 1294 l 750 1268 l 607 1447 l 376 1276 l 331 1342 l 649 1578 l 983 1342 l 953 1294 z "},"Ö":{"ha":1308,"x_min":90,"x_max":1218,"o":"m 444 1535 q 517 1502 489 1535 q 544 1422 544 1469 q 524 1360 544 1389 q 474 1313 504 1331 q 414 1296 443 1296 q 342 1328 371 1296 q 313 1407 313 1360 q 333 1470 313 1440 q 385 1517 354 1500 q 444 1535 415 1535 m 896 1535 q 968 1502 940 1535 q 996 1422 996 1469 q 976 1360 996 1389 q 925 1313 956 1331 q 865 1296 894 1296 q 793 1328 822 1296 q 764 1407 764 1360 q 785 1470 764 1440 q 836 1517 806 1500 q 896 1535 867 1535 m 703 1119 q 973 1049 856 1119 q 1154 853 1090 978 q 1218 569 1218 728 q 1121 269 1218 407 q 879 52 1024 132 q 604 -28 735 -28 q 336 42 453 -28 q 155 238 219 113 q 90 521 90 363 q 188 822 90 683 q 428 1040 285 960 q 703 1119 572 1119 m 622 986 q 465 935 536 986 q 353 792 394 883 q 313 588 313 700 q 353 347 313 456 q 478 172 394 238 q 685 107 561 107 q 842 158 771 107 q 955 301 914 210 q 996 504 996 392 q 955 747 996 638 q 830 921 914 856 q 622 986 746 986 z "},"Ò":{"ha":1308,"x_min":90,"x_max":1218,"o":"m 703 1119 q 973 1049 856 1119 q 1154 853 1090 978 q 1218 569 1218 728 q 1121 269 1218 407 q 879 52 1024 132 q 604 -28 735 -28 q 336 42 453 -28 q 155 238 219 113 q 90 521 90 363 q 188 822 90 683 q 428 1040 285 960 q 703 1119 572 1119 m 622 986 q 465 935 536 986 q 353 792 394 883 q 313 588 313 700 q 353 347 313 456 q 478 172 394 238 q 685 107 561 107 q 842 158 771 107 q 955 301 914 210 q 996 504 996 392 q 955 747 996 638 q 830 921 914 856 q 622 986 746 986 m 688 1285 l 361 1515 l 390 1563 l 604 1589 l 753 1317 l 688 1285 z "},"Ő":{"ha":1308,"x_min":90,"x_max":1218,"o":"m 703 1119 q 973 1049 856 1119 q 1154 853 1090 978 q 1218 569 1218 728 q 1121 269 1218 407 q 879 52 1024 132 q 604 -28 735 -28 q 336 42 453 -28 q 155 238 219 113 q 90 521 90 363 q 188 822 90 683 q 428 1040 285 960 q 703 1119 572 1119 m 622 986 q 465 935 536 986 q 353 792 394 883 q 313 588 313 700 q 353 347 313 456 q 478 172 394 238 q 685 107 561 107 q 842 158 771 107 q 955 301 914 210 q 996 504 996 392 q 955 747 996 638 q 830 921 914 856 q 622 986 746 986 m 486 1335 l 371 1306 l 424 1521 l 579 1569 l 664 1538 l 486 1335 m 926 1335 l 811 1306 l 865 1521 l 1021 1569 l 1104 1538 l 926 1335 z "},"Ō":{"ha":1308,"x_min":90,"x_max":1218,"o":"m 703 1119 q 973 1049 856 1119 q 1154 853 1090 978 q 1218 569 1218 728 q 1121 269 1218 407 q 879 52 1024 132 q 604 -28 735 -28 q 336 42 453 -28 q 155 238 219 113 q 90 521 90 363 q 188 822 90 683 q 428 1040 285 960 q 703 1119 572 1119 m 622 986 q 465 935 536 986 q 353 792 394 883 q 313 588 313 700 q 353 347 313 456 q 478 172 394 238 q 685 107 561 107 q 842 158 771 107 q 955 301 914 210 q 996 504 996 392 q 955 747 996 638 q 830 921 914 856 q 622 986 746 986 m 322 1460 l 986 1460 l 986 1385 l 322 1385 l 322 1460 z "},"Ø":{"ha":1308,"x_min":90,"x_max":1219,"o":"m 985 1038 q 1158 844 1096 967 q 1219 565 1219 721 q 1122 265 1219 403 q 881 48 1025 128 q 606 -32 736 -32 q 392 11 490 -32 l 261 -214 l 196 -176 l 325 47 q 152 241 214 118 q 90 519 90 364 q 188 820 90 682 q 428 1038 285 958 q 703 1118 572 1118 q 918 1075 819 1118 l 1049 1303 l 1114 1265 l 985 1040 l 985 1038 m 313 585 q 341 381 313 475 q 425 219 369 286 l 828 918 q 622 982 742 982 q 465 931 536 982 q 353 788 394 879 q 313 583 313 696 l 313 585 m 683 106 q 841 157 769 106 q 953 299 913 208 q 994 503 994 390 q 967 706 994 611 q 883 867 939 800 l 481 168 q 685 104 567 104 l 683 106 z "},"Õ":{"ha":1308,"x_min":90,"x_max":1218,"o":"m 703 1119 q 973 1049 856 1119 q 1154 853 1090 978 q 1218 569 1218 728 q 1121 269 1218 407 q 879 52 1024 132 q 604 -28 735 -28 q 336 42 453 -28 q 155 238 219 113 q 90 521 90 363 q 188 822 90 683 q 428 1040 285 960 q 703 1119 572 1119 m 622 986 q 465 935 536 986 q 353 792 394 883 q 313 588 313 700 q 353 347 313 456 q 478 172 394 238 q 685 107 561 107 q 842 158 771 107 q 955 301 914 210 q 996 504 996 392 q 955 747 996 638 q 830 921 914 856 q 622 986 746 986 m 597 1588 q 785 1476 704 1476 q 861 1504 825 1476 l 918 1544 l 965 1479 l 710 1293 q 522 1403 601 1403 q 442 1374 482 1403 l 388 1336 l 342 1401 l 597 1588 z "},"Œ":{"ha":1722,"x_min":90,"x_max":1601,"o":"m 1517 0 l 963 0 q 708 -8 833 0 q 572 -14 614 -14 q 320 55 429 -14 q 151 246 211 124 q 90 522 90 368 q 182 815 90 681 q 410 1027 274 949 q 671 1106 547 1106 q 799 1099 733 1106 q 961 1092 903 1092 l 1503 1092 l 1588 1117 l 1588 783 l 1532 763 l 1364 1013 l 1025 1013 l 1025 597 l 1197 597 l 1303 767 l 1360 767 l 1360 351 l 1290 317 l 1197 518 l 1025 518 l 1025 81 l 1357 81 l 1546 357 l 1601 336 l 1601 -25 l 1517 0 m 313 589 q 353 338 313 451 q 476 158 393 225 q 681 90 558 90 q 819 133 757 90 l 819 963 q 632 993 740 993 q 470 940 543 993 q 355 795 397 888 q 313 588 313 703 l 313 589 z "},"P":{"ha":1089,"x_min":60,"x_max":1024,"o":"m 614 536 q 751 588 701 536 q 801 729 801 639 q 741 925 801 849 q 565 1001 681 1001 q 413 951 482 1001 l 413 124 l 638 68 l 603 -1 l 76 -1 l 76 56 l 207 158 l 207 975 l 60 1022 l 94 1092 l 283 1092 q 540 1100 415 1092 q 678 1106 635 1106 q 858 1064 779 1106 q 981 950 938 1022 q 1024 789 1024 878 q 950 603 1024 690 q 764 467 876 517 q 544 424 651 418 l 481 468 l 515 538 l 614 538 l 614 536 z "},"Þ":{"ha":1082,"x_min":58,"x_max":1015,"o":"m 676 844 q 853 808 776 844 q 973 710 931 772 q 1015 572 1015 647 q 943 411 1015 488 q 760 291 871 335 q 543 253 649 247 l 479 296 l 514 365 l 613 365 q 744 404 696 365 q 793 514 793 443 q 735 677 793 613 q 564 742 676 742 q 411 692 481 742 l 411 115 l 560 68 l 525 -1 l 75 -1 l 75 56 l 206 161 l 206 975 l 58 1021 l 93 1090 l 543 1090 l 543 1033 l 411 928 l 411 832 q 539 839 465 833 q 678 844 633 844 l 676 844 z "},"Q":{"ha":1308,"x_min":90,"x_max":1476,"o":"m 1476 -264 q 1154 -367 1242 -367 q 1002 -262 1104 -367 q 764 1 900 -158 q 604 -28 681 -28 q 336 42 453 -28 q 155 238 219 113 q 90 521 90 363 q 188 822 90 683 q 428 1040 285 960 q 703 1119 572 1119 q 973 1049 856 1119 q 1154 853 1090 978 q 1218 569 1218 728 q 1123 274 1218 410 q 883 56 1028 138 q 1117 -112 1004 -36 q 1254 -187 1231 -187 l 1442 -187 l 1476 -264 m 313 588 q 353 347 313 456 q 478 172 394 238 q 685 107 561 107 q 842 158 771 107 q 955 301 914 210 q 996 504 996 392 q 955 747 996 638 q 830 921 914 856 q 622 986 746 986 q 465 935 536 986 q 353 792 394 883 q 313 588 313 700 z "},"R":{"ha":1144,"x_min":58,"x_max":1147,"o":"m 1113 0 l 836 0 l 546 488 l 483 532 l 508 583 l 582 583 q 718 631 668 583 q 768 761 768 678 q 710 935 768 867 q 543 1003 653 1003 q 411 960 471 1003 l 411 117 l 560 69 l 525 0 l 75 0 l 75 57 l 206 163 l 206 978 l 58 1022 l 93 1092 l 282 1092 q 525 1100 406 1092 q 656 1106 614 1106 q 831 1068 754 1106 q 949 966 907 1031 q 990 824 990 901 q 903 638 990 722 q 692 513 815 553 l 792 481 l 993 143 l 1147 69 l 1113 0 z "},"Ŕ":{"ha":1144,"x_min":58,"x_max":1147,"o":"m 1113 0 l 836 0 l 546 488 l 483 532 l 508 583 l 582 583 q 718 631 668 583 q 768 761 768 678 q 710 935 768 867 q 543 1003 653 1003 q 411 960 471 1003 l 411 117 l 560 69 l 525 0 l 75 0 l 75 57 l 206 163 l 206 978 l 58 1022 l 93 1092 l 282 1092 q 525 1100 406 1092 q 656 1106 614 1106 q 831 1068 754 1106 q 949 966 907 1031 q 990 824 990 901 q 903 638 990 722 q 692 513 815 553 l 792 481 l 993 143 l 1147 69 l 1113 0 m 838 1515 l 510 1285 l 444 1317 l 593 1589 l 807 1563 l 838 1515 z "},"Ř":{"ha":1144,"x_min":58,"x_max":1147,"o":"m 1113 0 l 836 0 l 546 488 l 483 532 l 508 583 l 582 583 q 718 631 668 583 q 768 761 768 678 q 710 935 768 867 q 543 1003 653 1003 q 411 960 471 1003 l 411 117 l 560 69 l 525 0 l 75 0 l 75 57 l 206 163 l 206 978 l 58 1022 l 93 1092 l 282 1092 q 525 1100 406 1092 q 656 1106 614 1106 q 831 1068 754 1106 q 949 966 907 1031 q 990 824 990 901 q 903 638 990 722 q 692 513 815 553 l 792 481 l 993 143 l 1147 69 l 1113 0 m 547 1279 l 214 1515 l 243 1563 l 447 1589 l 589 1410 l 819 1581 l 865 1515 l 547 1279 z "},"Ŗ":{"ha":1144,"x_min":58,"x_max":1147,"o":"m 1113 0 l 836 0 l 546 488 l 483 532 l 508 583 l 582 583 q 718 631 668 583 q 768 761 768 678 q 710 935 768 867 q 543 1003 653 1003 q 411 960 471 1003 l 411 117 l 560 69 l 525 0 l 75 0 l 75 57 l 206 163 l 206 978 l 58 1022 l 93 1092 l 282 1092 q 525 1100 406 1092 q 656 1106 614 1106 q 831 1068 754 1106 q 949 966 907 1031 q 990 824 990 901 q 903 638 990 722 q 692 513 815 553 l 792 481 l 993 143 l 1147 69 l 1113 0 m 797 -172 l 621 -422 l 542 -422 l 579 -258 l 465 -185 l 500 -115 l 797 -115 l 797 -172 z "},"S":{"ha":972,"x_min":90,"x_max":889,"o":"m 676 239 q 642 319 676 282 q 558 388 608 357 q 419 467 508 419 q 251 563 315 522 q 142 659 188 604 q 97 781 97 714 q 158 930 97 850 q 306 1065 218 1010 q 467 1119 393 1119 q 674 1099 556 1119 q 847 1054 793 1078 l 847 771 l 764 771 q 623 946 700 883 q 461 1008 546 1008 q 350 965 390 1008 q 310 851 310 921 q 344 766 310 806 q 431 694 379 726 q 572 617 483 663 q 738 524 674 564 q 845 429 801 483 q 889 310 889 375 q 824 160 889 240 q 667 26 760 81 q 497 -29 574 -29 q 276 -8 404 -29 q 90 36 147 13 l 90 319 l 175 319 q 328 144 242 207 q 504 82 414 82 q 629 128 582 82 q 676 239 676 175 z "},"Ś":{"ha":972,"x_min":90,"x_max":889,"o":"m 676 239 q 642 319 676 282 q 558 388 608 357 q 419 467 508 419 q 251 563 315 522 q 142 659 188 604 q 97 781 97 714 q 158 930 97 850 q 306 1065 218 1010 q 467 1119 393 1119 q 674 1099 556 1119 q 847 1054 793 1078 l 847 771 l 764 771 q 623 946 700 883 q 461 1008 546 1008 q 350 965 390 1008 q 310 851 310 921 q 344 766 310 806 q 431 694 379 726 q 572 617 483 663 q 738 524 674 564 q 845 429 801 483 q 889 310 889 375 q 824 160 889 240 q 667 26 760 81 q 497 -29 574 -29 q 276 -8 404 -29 q 90 36 147 13 l 90 319 l 175 319 q 328 144 242 207 q 504 82 414 82 q 629 128 582 82 q 676 239 676 175 m 768 1515 l 440 1285 l 375 1317 l 524 1589 l 738 1563 l 768 1515 z "},"Š":{"ha":972,"x_min":90,"x_max":889,"o":"m 676 239 q 642 319 676 282 q 558 388 608 357 q 419 467 508 419 q 251 563 315 522 q 142 659 188 604 q 97 781 97 714 q 158 930 97 850 q 306 1065 218 1010 q 467 1119 393 1119 q 674 1099 556 1119 q 847 1054 793 1078 l 847 771 l 764 771 q 623 946 700 883 q 461 1008 546 1008 q 350 965 390 1008 q 310 851 310 921 q 344 766 310 806 q 431 694 379 726 q 572 617 483 663 q 738 524 674 564 q 845 429 801 483 q 889 310 889 375 q 824 160 889 240 q 667 26 760 81 q 497 -29 574 -29 q 276 -8 404 -29 q 90 36 147 13 l 90 319 l 175 319 q 328 144 242 207 q 504 82 414 82 q 629 128 582 82 q 676 239 676 175 m 478 1279 l 144 1515 l 174 1563 l 378 1589 l 519 1410 l 750 1581 l 796 1515 l 478 1279 z "},"Ş":{"ha":972,"x_min":90,"x_max":889,"o":"m 886 308 q 842 186 886 251 q 727 67 797 121 q 586 -12 657 13 l 518 -71 q 613 -155 588 -121 q 639 -228 639 -189 q 570 -326 639 -292 q 358 -368 501 -361 l 358 -311 q 445 -265 417 -292 q 474 -201 474 -239 q 454 -149 474 -172 q 386 -94 435 -126 l 464 -29 q 254 -6 368 -25 q 90 36 140 14 l 90 319 l 175 319 q 328 144 242 207 q 504 82 414 82 q 629 128 582 82 q 676 239 676 175 q 642 319 676 282 q 558 388 608 357 q 419 467 508 419 q 251 563 315 522 q 142 659 188 604 q 97 781 97 714 q 158 930 97 850 q 306 1065 218 1010 q 467 1119 393 1119 q 674 1099 556 1119 q 847 1054 793 1078 l 847 771 l 764 771 q 623 946 700 883 q 461 1008 546 1008 q 350 965 390 1008 q 310 851 310 921 q 344 766 310 806 q 431 694 379 726 q 572 617 483 663 q 738 524 674 564 q 845 429 801 483 q 889 310 889 375 l 886 308 z "},"Ș":{"ha":972,"x_min":90,"x_max":889,"o":"m 676 239 q 642 319 676 282 q 558 388 608 357 q 419 467 508 419 q 251 563 315 522 q 142 659 188 604 q 97 781 97 714 q 158 930 97 850 q 306 1065 218 1010 q 467 1119 393 1119 q 674 1099 556 1119 q 847 1054 793 1078 l 847 771 l 764 771 q 623 946 700 883 q 461 1008 546 1008 q 350 965 390 1008 q 310 851 310 921 q 344 766 310 806 q 431 694 379 726 q 572 617 483 663 q 738 524 674 564 q 845 429 801 483 q 889 310 889 375 q 824 160 889 240 q 667 26 760 81 q 497 -29 574 -29 q 276 -8 404 -29 q 90 36 147 13 l 90 319 l 175 319 q 328 144 242 207 q 504 82 414 82 q 629 128 582 82 q 676 239 676 175 m 653 -172 l 476 -422 l 397 -422 l 435 -258 l 321 -185 l 356 -115 l 653 -115 l 653 -172 z "},"ẞ":{"ha":1263,"x_min":60,"x_max":1175,"o":"m 800 672 l 1174 672 l 1174 606 l 747 196 l 1043 196 l 1103 314 l 1158 296 l 1158 -24 l 1068 1 l 501 1 l 501 68 l 929 478 l 540 478 l 540 544 l 918 908 q 811 943 876 919 q 667 987 724 972 q 549 1001 610 1001 q 435 958 476 1001 q 394 844 394 914 l 394 0 l 60 0 l 60 57 l 190 163 l 190 781 q 251 930 190 850 q 399 1065 311 1010 q 560 1119 486 1119 q 800 1108 633 1119 q 1175 1092 1008 1092 l 1174 1033 l 800 672 z "},"T":{"ha":1163,"x_min":83,"x_max":1079,"o":"m 1079 756 l 1024 735 l 835 1013 l 682 1013 l 682 115 l 831 69 l 796 0 l 346 0 l 346 57 l 476 160 l 476 1013 l 328 1013 l 139 735 l 83 756 l 83 1117 l 168 1092 l 994 1092 l 1079 1117 l 1079 756 z "},"Ŧ":{"ha":1163,"x_min":83,"x_max":1079,"o":"m 1079 756 l 1024 735 l 835 1013 l 682 1013 l 682 583 l 947 583 l 947 504 l 682 504 l 682 115 l 831 69 l 796 0 l 346 0 l 346 57 l 476 160 l 476 504 l 217 504 l 217 583 l 476 583 l 476 1013 l 328 1013 l 139 735 l 83 756 l 83 1117 l 168 1092 l 994 1092 l 1079 1117 l 1079 756 z "},"Ť":{"ha":1163,"x_min":83,"x_max":1079,"o":"m 1079 756 l 1024 735 l 835 1013 l 682 1013 l 682 115 l 831 69 l 796 0 l 346 0 l 346 57 l 476 160 l 476 1013 l 328 1013 l 139 735 l 83 756 l 83 1117 l 168 1092 l 994 1092 l 1079 1117 l 1079 756 m 588 1279 l 254 1515 l 283 1563 l 488 1589 l 629 1410 l 860 1581 l 906 1515 l 588 1279 z "},"Ţ":{"ha":1163,"x_min":83,"x_max":1081,"o":"m 1081 757 l 1025 736 l 836 1014 l 683 1014 l 683 117 l 711 108 l 715 113 l 732 100 l 831 71 l 796 1 l 693 1 q 611 -69 656 -33 q 706 -153 681 -119 q 732 -226 732 -187 q 663 -325 732 -290 q 451 -367 594 -360 l 451 -310 q 538 -264 510 -290 q 567 -200 567 -237 q 547 -148 567 -171 q 479 -93 528 -125 l 590 0 l 346 0 l 346 57 l 476 160 l 476 1013 l 328 1013 l 139 735 l 83 756 l 83 1117 l 168 1092 l 994 1092 l 1081 1118 l 1081 757 z "},"Ț":{"ha":1163,"x_min":83,"x_max":1079,"o":"m 1079 756 l 1024 735 l 835 1013 l 682 1013 l 682 115 l 831 69 l 796 0 l 346 0 l 346 57 l 476 160 l 476 1013 l 328 1013 l 139 735 l 83 756 l 83 1117 l 168 1092 l 994 1092 l 1079 1117 l 1079 756 m 743 -172 l 567 -422 l 488 -422 l 525 -258 l 411 -185 l 446 -115 l 743 -115 l 743 -172 z "},"U":{"ha":1247,"x_min":39,"x_max":1213,"o":"m 1081 932 l 1081 431 q 1010 181 1081 285 q 834 24 939 76 q 629 -28 729 -28 q 401 27 501 -28 q 243 178 300 82 q 186 396 186 275 l 186 978 l 39 1022 l 74 1092 l 524 1092 l 524 1035 l 392 932 l 392 456 q 474 199 392 290 q 724 107 557 107 q 847 147 786 107 q 948 263 908 186 q 988 442 988 339 l 988 954 l 836 1022 l 871 1092 l 1213 1092 l 1213 1035 l 1081 932 z "},"Ú":{"ha":1247,"x_min":39,"x_max":1213,"o":"m 1081 932 l 1081 431 q 1010 181 1081 285 q 834 24 939 76 q 629 -28 729 -28 q 401 27 501 -28 q 243 178 300 82 q 186 396 186 275 l 186 978 l 39 1022 l 74 1092 l 524 1092 l 524 1035 l 392 932 l 392 456 q 474 199 392 290 q 724 107 557 107 q 847 147 786 107 q 948 263 908 186 q 988 442 988 339 l 988 954 l 836 1022 l 871 1092 l 1213 1092 l 1213 1035 l 1081 932 m 938 1515 l 610 1285 l 544 1317 l 693 1589 l 907 1563 l 938 1515 z "},"Û":{"ha":1247,"x_min":39,"x_max":1213,"o":"m 1081 932 l 1081 431 q 1010 181 1081 285 q 834 24 939 76 q 629 -28 729 -28 q 401 27 501 -28 q 243 178 300 82 q 186 396 186 275 l 186 978 l 39 1022 l 74 1092 l 524 1092 l 524 1035 l 392 932 l 392 456 q 474 199 392 290 q 724 107 557 107 q 847 147 786 107 q 948 263 908 186 q 988 442 988 339 l 988 954 l 836 1022 l 871 1092 l 1213 1092 l 1213 1035 l 1081 932 m 940 1294 l 738 1268 l 594 1447 l 364 1276 l 318 1342 l 636 1578 l 971 1342 l 940 1294 z "},"Ü":{"ha":1247,"x_min":39,"x_max":1213,"o":"m 401 1296 q 329 1328 358 1296 q 300 1407 300 1360 q 321 1470 300 1440 q 372 1517 342 1500 q 432 1535 403 1535 q 504 1502 476 1535 q 532 1422 532 1469 q 512 1360 532 1389 q 461 1313 492 1331 q 401 1296 431 1296 m 853 1296 q 781 1328 810 1296 q 751 1407 751 1360 q 772 1470 751 1440 q 824 1517 793 1500 q 883 1535 854 1535 q 956 1502 928 1535 q 983 1422 983 1469 q 963 1360 983 1389 q 913 1313 943 1331 q 853 1296 882 1296 m 1081 932 l 1081 431 q 1010 181 1081 285 q 834 24 939 76 q 629 -28 729 -28 q 401 27 501 -28 q 243 178 300 82 q 186 396 186 275 l 186 978 l 39 1022 l 74 1092 l 524 1092 l 524 1035 l 392 932 l 392 456 q 474 199 392 290 q 724 107 557 107 q 847 147 786 107 q 948 263 908 186 q 988 442 988 339 l 988 954 l 836 1022 l 871 1092 l 1213 1092 l 1213 1035 l 1081 932 z "},"Ù":{"ha":1247,"x_min":39,"x_max":1213,"o":"m 1081 932 l 1081 431 q 1010 181 1081 285 q 834 24 939 76 q 629 -28 729 -28 q 401 27 501 -28 q 243 178 300 82 q 186 396 186 275 l 186 978 l 39 1022 l 74 1092 l 524 1092 l 524 1035 l 392 932 l 392 456 q 474 199 392 290 q 724 107 557 107 q 847 147 786 107 q 948 263 908 186 q 988 442 988 339 l 988 954 l 836 1022 l 871 1092 l 1213 1092 l 1213 1035 l 1081 932 m 675 1285 l 349 1515 l 378 1563 l 592 1589 l 740 1317 l 675 1285 z "},"Ű":{"ha":1247,"x_min":39,"x_max":1213,"o":"m 1081 932 l 1081 431 q 1010 181 1081 285 q 834 24 939 76 q 629 -28 729 -28 q 401 27 501 -28 q 243 178 300 82 q 186 396 186 275 l 186 978 l 39 1022 l 74 1092 l 524 1092 l 524 1035 l 392 932 l 392 456 q 474 199 392 290 q 724 107 557 107 q 847 147 786 107 q 948 263 908 186 q 988 442 988 339 l 988 954 l 836 1022 l 871 1092 l 1213 1092 l 1213 1035 l 1081 932 m 474 1335 l 358 1306 l 411 1521 l 567 1569 l 651 1538 l 474 1335 m 914 1335 l 799 1306 l 853 1521 l 1008 1569 l 1092 1538 l 914 1335 z "},"Ū":{"ha":1247,"x_min":39,"x_max":1213,"o":"m 1081 932 l 1081 431 q 1010 181 1081 285 q 834 24 939 76 q 629 -28 729 -28 q 401 27 501 -28 q 243 178 300 82 q 186 396 186 275 l 186 978 l 39 1022 l 74 1092 l 524 1092 l 524 1035 l 392 932 l 392 456 q 474 199 392 290 q 724 107 557 107 q 847 147 786 107 q 948 263 908 186 q 988 442 988 339 l 988 954 l 836 1022 l 871 1092 l 1213 1092 l 1213 1035 l 1081 932 m 310 1460 l 974 1460 l 974 1385 l 310 1385 l 310 1460 z "},"Ų":{"ha":1247,"x_min":39,"x_max":1213,"o":"m 1079 931 l 1079 429 q 1042 240 1079 324 q 939 97 1004 157 q 806 -63 836 -14 q 776 -143 776 -112 q 796 -190 776 -174 q 863 -211 815 -206 l 863 -278 l 750 -367 q 639 -312 679 -349 q 599 -225 599 -275 q 610 -153 599 -182 l 750 -10 q 629 -28 690 -28 q 401 27 501 -28 q 243 178 300 82 q 186 396 186 275 l 186 978 l 39 1022 l 74 1092 l 524 1092 l 524 1035 l 392 932 l 392 456 q 474 199 392 290 q 724 107 557 107 q 847 147 786 107 q 948 263 908 186 q 988 442 988 339 l 988 954 l 836 1022 l 871 1092 l 1213 1092 l 1211 1033 l 1079 931 z "},"Ů":{"ha":1247,"x_min":39,"x_max":1213,"o":"m 1081 932 l 1081 431 q 1010 181 1081 285 q 834 24 939 76 q 629 -28 729 -28 q 401 27 501 -28 q 243 178 300 82 q 186 396 186 275 l 186 978 l 39 1022 l 74 1092 l 524 1092 l 524 1035 l 392 932 l 392 456 q 474 199 392 290 q 724 107 557 107 q 847 147 786 107 q 948 263 908 186 q 988 442 988 339 l 988 954 l 836 1022 l 871 1092 l 1213 1092 l 1213 1035 l 1081 932 m 690 1581 q 809 1540 761 1581 q 857 1440 857 1499 q 816 1348 857 1392 q 713 1278 775 1304 q 592 1253 651 1253 q 473 1293 521 1253 q 425 1392 425 1333 q 466 1484 425 1440 q 569 1554 507 1528 q 690 1581 631 1581 m 610 1508 q 543 1456 543 1508 q 577 1361 543 1399 q 672 1324 611 1324 q 722 1338 704 1324 q 739 1379 739 1353 q 706 1472 739 1435 q 610 1508 672 1508 z "},"V":{"ha":1238,"x_min":-4,"x_max":1238,"o":"m 1099 928 l 721 44 l 538 -26 l 136 944 l -4 1022 l 32 1092 l 492 1092 l 492 1035 l 353 938 l 674 160 l 1001 932 l 769 1022 l 804 1092 l 1238 1092 l 1238 1035 l 1099 928 z "},"W":{"ha":1708,"x_min":-4,"x_max":1708,"o":"m 1579 935 l 1256 43 l 1072 -28 l 861 588 l 675 43 l 493 -28 l 131 946 l -4 1021 l 32 1090 l 440 1090 l 440 1033 l 340 958 l 625 178 l 814 726 l 738 949 l 610 1022 l 644 1092 l 1085 1092 l 1085 1035 l 954 943 l 1207 179 l 1476 931 l 1240 1022 l 1275 1092 l 1708 1092 l 1708 1033 l 1579 935 z "},"Ẃ":{"ha":1708,"x_min":-4,"x_max":1708,"o":"m 1579 935 l 1256 43 l 1072 -28 l 861 588 l 675 43 l 493 -28 l 131 946 l -4 1021 l 32 1090 l 440 1090 l 440 1033 l 340 958 l 625 178 l 814 726 l 738 949 l 610 1022 l 644 1092 l 1085 1092 l 1085 1035 l 954 943 l 1207 179 l 1476 931 l 1240 1022 l 1275 1092 l 1708 1092 l 1708 1033 l 1579 935 m 1189 1515 l 861 1285 l 796 1317 l 944 1589 l 1158 1563 l 1189 1515 z "},"Ŵ":{"ha":1708,"x_min":-4,"x_max":1708,"o":"m 1579 935 l 1256 43 l 1072 -28 l 861 588 l 675 43 l 493 -28 l 131 946 l -4 1021 l 32 1090 l 440 1090 l 440 1033 l 340 958 l 625 178 l 814 726 l 738 949 l 610 1022 l 644 1092 l 1085 1092 l 1085 1035 l 954 943 l 1207 179 l 1476 931 l 1240 1022 l 1275 1092 l 1708 1092 l 1708 1033 l 1579 935 m 1192 1294 l 989 1268 l 846 1447 l 615 1276 l 569 1342 l 888 1578 l 1222 1342 l 1192 1294 z "},"Ẅ":{"ha":1708,"x_min":-4,"x_max":1708,"o":"m 651 1296 q 579 1328 608 1296 q 550 1407 550 1360 q 571 1470 550 1440 q 622 1517 592 1500 q 682 1535 653 1535 q 754 1502 726 1535 q 782 1422 782 1469 q 762 1360 782 1389 q 711 1313 742 1331 q 651 1296 681 1296 m 1103 1296 q 1031 1328 1060 1296 q 1001 1407 1001 1360 q 1022 1470 1001 1440 q 1074 1517 1043 1500 q 1133 1535 1104 1535 q 1206 1502 1178 1535 q 1233 1422 1233 1469 q 1213 1360 1233 1389 q 1163 1313 1193 1331 q 1103 1296 1132 1296 m 1579 935 l 1256 43 l 1072 -28 l 861 588 l 675 43 l 493 -28 l 131 946 l -4 1021 l 32 1090 l 440 1090 l 440 1033 l 340 958 l 625 178 l 814 726 l 738 949 l 610 1022 l 644 1092 l 1085 1092 l 1085 1035 l 954 943 l 1207 179 l 1476 931 l 1240 1022 l 1275 1092 l 1708 1092 l 1708 1033 l 1579 935 z "},"Ẁ":{"ha":1708,"x_min":-4,"x_max":1708,"o":"m 1579 935 l 1256 43 l 1072 -28 l 861 588 l 675 43 l 493 -28 l 131 946 l -4 1021 l 32 1090 l 440 1090 l 440 1033 l 340 958 l 625 178 l 814 726 l 738 949 l 610 1022 l 644 1092 l 1085 1092 l 1085 1035 l 954 943 l 1207 179 l 1476 931 l 1240 1022 l 1275 1092 l 1708 1092 l 1708 1033 l 1579 935 m 926 1285 l 600 1515 l 629 1563 l 843 1589 l 992 1317 l 926 1285 z "},"X":{"ha":1219,"x_min":19,"x_max":1189,"o":"m 1154 3 l 707 3 l 707 60 l 817 139 l 567 446 l 300 154 l 488 71 l 453 1 l 19 1 l 19 58 l 178 160 l 507 517 l 161 946 l 31 1024 l 65 1093 l 511 1093 l 511 1036 l 400 960 l 649 653 l 893 940 l 704 1024 l 739 1093 l 1171 1093 l 1171 1036 l 1025 943 l 710 579 l 1064 140 l 1189 72 l 1154 3 z "},"Y":{"ha":1140,"x_min":-4,"x_max":1140,"o":"m 668 115 l 818 69 l 783 0 l 336 0 l 336 57 l 467 160 l 467 382 l 104 963 l -4 1022 l 25 1092 l 468 1092 l 468 1035 l 349 943 l 614 518 l 888 931 l 672 1022 l 707 1092 l 1140 1092 l 1140 1035 l 1018 954 l 668 422 l 668 115 z "},"Ý":{"ha":1140,"x_min":-4,"x_max":1140,"o":"m 668 115 l 818 69 l 783 0 l 336 0 l 336 57 l 467 160 l 467 382 l 104 963 l -4 1022 l 25 1092 l 468 1092 l 468 1035 l 349 943 l 614 518 l 888 931 l 672 1022 l 707 1092 l 1140 1092 l 1140 1035 l 1018 954 l 668 422 l 668 115 m 868 1515 l 540 1285 l 475 1317 l 624 1589 l 838 1563 l 868 1515 z "},"Ŷ":{"ha":1140,"x_min":-4,"x_max":1140,"o":"m 668 115 l 818 69 l 783 0 l 336 0 l 336 57 l 467 160 l 467 382 l 104 963 l -4 1022 l 25 1092 l 468 1092 l 468 1035 l 349 943 l 614 518 l 888 931 l 672 1022 l 707 1092 l 1140 1092 l 1140 1035 l 1018 954 l 668 422 l 668 115 m 871 1294 l 668 1268 l 525 1447 l 294 1276 l 249 1342 l 567 1578 l 901 1342 l 871 1294 z "},"Ÿ":{"ha":1140,"x_min":-4,"x_max":1140,"o":"m 332 1296 q 260 1328 289 1296 q 231 1407 231 1360 q 251 1470 231 1440 q 303 1517 272 1500 q 363 1535 333 1535 q 435 1502 407 1535 q 463 1422 463 1469 q 442 1360 463 1389 q 392 1313 422 1331 q 332 1296 361 1296 m 783 1296 q 711 1328 740 1296 q 682 1407 682 1360 q 703 1470 682 1440 q 754 1517 724 1500 q 814 1535 785 1535 q 886 1502 858 1535 q 914 1422 914 1469 q 894 1360 914 1389 q 843 1313 874 1331 q 783 1296 813 1296 m 668 115 l 818 69 l 783 0 l 336 0 l 336 57 l 467 160 l 467 382 l 104 963 l -4 1022 l 25 1092 l 468 1092 l 468 1035 l 349 943 l 614 518 l 888 931 l 672 1022 l 707 1092 l 1140 1092 l 1140 1035 l 1018 954 l 668 422 l 668 115 z "},"Ỳ":{"ha":1140,"x_min":-4,"x_max":1140,"o":"m 668 115 l 818 69 l 783 0 l 336 0 l 336 57 l 467 160 l 467 382 l 104 963 l -4 1022 l 25 1092 l 468 1092 l 468 1035 l 349 943 l 614 518 l 888 931 l 672 1022 l 707 1092 l 1140 1092 l 1140 1035 l 1018 954 l 668 422 l 668 115 m 606 1285 l 279 1515 l 308 1563 l 522 1589 l 671 1317 l 606 1285 z "},"Z":{"ha":1097,"x_min":82,"x_max":1008,"o":"m 747 81 l 939 371 l 994 350 l 994 -25 l 910 0 l 82 0 l 82 81 l 768 1013 l 354 1013 l 181 749 l 125 769 l 125 1117 l 210 1092 l 1008 1092 l 1008 1013 l 322 81 l 747 81 z "},"Ź":{"ha":1097,"x_min":82,"x_max":1008,"o":"m 747 81 l 939 371 l 994 350 l 994 -25 l 910 0 l 82 0 l 82 81 l 768 1013 l 354 1013 l 181 749 l 125 769 l 125 1117 l 210 1092 l 1008 1092 l 1008 1013 l 322 81 l 747 81 m 844 1515 l 517 1285 l 451 1317 l 600 1589 l 814 1563 l 844 1515 z "},"Ž":{"ha":1097,"x_min":82,"x_max":1008,"o":"m 747 81 l 939 371 l 994 350 l 994 -25 l 910 0 l 82 0 l 82 81 l 768 1013 l 354 1013 l 181 749 l 125 769 l 125 1117 l 210 1092 l 1008 1092 l 1008 1013 l 322 81 l 747 81 m 554 1279 l 221 1515 l 250 1563 l 454 1589 l 596 1410 l 826 1581 l 872 1515 l 554 1279 z "},"Ż":{"ha":1097,"x_min":82,"x_max":1008,"o":"m 747 81 l 939 371 l 994 350 l 994 -25 l 910 0 l 82 0 l 82 81 l 768 1013 l 354 1013 l 181 749 l 125 769 l 125 1117 l 210 1092 l 1008 1092 l 1008 1013 l 322 81 l 747 81 m 564 1536 q 644 1502 613 1536 q 676 1418 676 1468 q 653 1352 676 1383 q 597 1303 631 1321 q 531 1285 563 1285 q 450 1318 482 1285 q 418 1401 418 1351 q 441 1468 418 1438 q 498 1517 464 1499 q 564 1536 532 1536 z "},"a":{"ha":888,"x_min":76,"x_max":860,"o":"m 825 0 l 540 0 l 540 121 l 383 -3 q 314 -14 356 -14 q 133 48 189 -14 q 76 197 76 110 q 112 298 76 249 q 213 392 147 347 l 540 392 l 540 456 q 371 614 540 614 q 143 521 282 614 l 101 583 l 299 740 q 444 756 357 756 q 658 690 582 756 q 735 500 735 625 l 735 118 l 860 69 l 825 0 m 368 132 q 540 203 446 132 l 540 321 l 303 321 q 275 240 275 288 q 301 163 275 194 q 368 132 326 132 z "},"á":{"ha":888,"x_min":76,"x_max":860,"o":"m 825 0 l 540 0 l 540 121 l 383 -3 q 314 -14 356 -14 q 133 48 189 -14 q 76 197 76 110 q 112 298 76 249 q 213 392 147 347 l 540 392 l 540 456 q 371 614 540 614 q 143 521 282 614 l 101 583 l 299 740 q 444 756 357 756 q 658 690 582 756 q 735 500 735 625 l 735 118 l 860 69 l 825 0 m 368 132 q 540 203 446 132 l 540 321 l 303 321 q 275 240 275 288 q 301 163 275 194 q 368 132 326 132 m 721 1165 l 393 935 l 328 967 l 476 1239 l 690 1213 l 721 1165 z "},"ă":{"ha":888,"x_min":76,"x_max":860,"o":"m 825 0 l 540 0 l 540 121 l 383 -3 q 314 -14 356 -14 q 133 48 189 -14 q 76 197 76 110 q 112 298 76 249 q 213 392 147 347 l 540 392 l 540 456 q 371 614 540 614 q 143 521 282 614 l 101 583 l 299 740 q 444 756 357 756 q 658 690 582 756 q 735 500 735 625 l 735 118 l 860 69 l 825 0 m 368 132 q 540 203 446 132 l 540 321 l 303 321 q 275 240 275 288 q 301 163 275 194 q 368 132 326 132 m 733 1219 q 680 1094 729 1157 q 558 992 631 1032 q 417 951 486 951 q 250 986 331 951 q 131 1092 169 1021 l 292 1219 q 364 1100 324 1136 q 456 1064 404 1064 q 526 1085 499 1064 q 557 1140 554 1107 l 733 1219 z "},"â":{"ha":888,"x_min":76,"x_max":860,"o":"m 825 0 l 540 0 l 540 121 l 383 -3 q 314 -14 356 -14 q 133 48 189 -14 q 76 197 76 110 q 112 298 76 249 q 213 392 147 347 l 540 392 l 540 456 q 371 614 540 614 q 143 521 282 614 l 101 583 l 299 740 q 444 756 357 756 q 658 690 582 756 q 735 500 735 625 l 735 118 l 860 69 l 825 0 m 368 132 q 540 203 446 132 l 540 321 l 303 321 q 275 240 275 288 q 301 163 275 194 q 368 132 326 132 m 724 944 l 521 918 l 378 1097 l 147 926 l 101 992 l 419 1228 l 754 992 l 724 944 z "},"ä":{"ha":888,"x_min":76,"x_max":860,"o":"m 215 949 q 145 981 174 949 q 117 1058 117 1013 q 137 1121 117 1092 q 187 1167 157 1150 q 246 1185 217 1185 q 317 1153 289 1185 q 344 1074 344 1121 q 324 1012 344 1040 q 274 966 304 983 q 215 949 243 949 m 604 949 q 534 981 563 949 q 506 1058 506 1013 q 526 1121 506 1092 q 576 1167 546 1150 q 635 1185 606 1185 q 706 1153 678 1185 q 733 1074 733 1121 q 713 1012 733 1040 q 663 966 693 983 q 604 949 632 949 m 825 0 l 540 0 l 540 121 l 383 -3 q 314 -14 356 -14 q 133 48 189 -14 q 76 197 76 110 q 112 298 76 249 q 213 392 147 347 l 540 392 l 540 456 q 371 614 540 614 q 143 521 282 614 l 101 583 l 299 740 q 444 756 357 756 q 658 690 582 756 q 735 500 735 625 l 735 118 l 860 69 l 825 0 m 368 132 q 540 203 446 132 l 540 321 l 303 321 q 275 240 275 288 q 301 163 275 194 q 368 132 326 132 z "},"à":{"ha":888,"x_min":76,"x_max":860,"o":"m 825 0 l 540 0 l 540 121 l 383 -3 q 314 -14 356 -14 q 133 48 189 -14 q 76 197 76 110 q 112 298 76 249 q 213 392 147 347 l 540 392 l 540 456 q 371 614 540 614 q 143 521 282 614 l 101 583 l 299 740 q 444 756 357 756 q 658 690 582 756 q 735 500 735 625 l 735 118 l 860 69 l 825 0 m 368 132 q 540 203 446 132 l 540 321 l 303 321 q 275 240 275 288 q 301 163 275 194 q 368 132 326 132 m 458 935 l 132 1165 l 161 1213 l 375 1239 l 524 967 l 458 935 z "},"ā":{"ha":888,"x_min":76,"x_max":860,"o":"m 825 0 l 540 0 l 540 121 l 383 -3 q 314 -14 356 -14 q 133 48 189 -14 q 76 197 76 110 q 112 298 76 249 q 213 392 147 347 l 540 392 l 540 456 q 371 614 540 614 q 143 521 282 614 l 101 583 l 299 740 q 444 756 357 756 q 658 690 582 756 q 735 500 735 625 l 735 118 l 860 69 l 825 0 m 368 132 q 540 203 446 132 l 540 321 l 303 321 q 275 240 275 288 q 301 163 275 194 q 368 132 326 132 m 121 1110 l 729 1110 l 729 1035 l 121 1035 l 121 1110 z "},"ą":{"ha":888,"x_min":76,"x_max":860,"o":"m 825 0 q 749 -91 772 -56 q 726 -154 726 -126 q 742 -192 726 -179 q 790 -211 757 -206 l 790 -278 l 678 -367 q 528 -210 528 -325 q 539 -153 528 -175 l 731 0 l 540 0 l 540 121 l 383 -3 q 314 -14 356 -14 q 133 48 189 -14 q 76 197 76 110 q 112 298 76 249 q 213 392 147 347 l 540 392 l 540 456 q 371 614 540 614 q 143 521 282 614 l 101 583 l 299 740 q 444 756 357 756 q 658 690 582 756 q 735 500 735 625 l 735 118 l 860 69 l 825 0 m 368 132 q 540 203 446 132 l 540 321 l 303 321 q 275 240 275 288 q 301 163 275 194 q 368 132 326 132 z "},"å":{"ha":888,"x_min":76,"x_max":860,"o":"m 825 0 l 540 0 l 540 121 l 383 -3 q 314 -14 356 -14 q 133 48 189 -14 q 76 197 76 110 q 112 298 76 249 q 213 392 147 347 l 540 392 l 540 456 q 371 614 540 614 q 143 521 282 614 l 101 583 l 299 740 q 444 756 357 756 q 658 690 582 756 q 735 500 735 625 l 735 118 l 860 69 l 825 0 m 368 132 q 540 203 446 132 l 540 321 l 303 321 q 275 240 275 288 q 301 163 275 194 q 368 132 326 132 m 474 1231 q 592 1190 544 1231 q 640 1090 640 1149 q 599 998 640 1042 q 497 928 558 954 q 375 903 435 903 q 256 943 304 903 q 208 1042 208 983 q 249 1134 208 1090 q 352 1204 290 1178 q 474 1231 414 1231 m 393 1158 q 326 1106 326 1158 q 360 1011 326 1049 q 456 974 394 974 q 505 988 488 974 q 522 1029 522 1003 q 489 1122 522 1085 q 393 1158 456 1158 z "},"ã":{"ha":888,"x_min":76,"x_max":860,"o":"m 825 0 l 540 0 l 540 121 l 383 -3 q 314 -14 356 -14 q 133 48 189 -14 q 76 197 76 110 q 112 298 76 249 q 213 392 147 347 l 540 392 l 540 456 q 371 614 540 614 q 143 521 282 614 l 101 583 l 299 740 q 444 756 357 756 q 658 690 582 756 q 735 500 735 625 l 735 118 l 860 69 l 825 0 m 368 132 q 540 203 446 132 l 540 321 l 303 321 q 275 240 275 288 q 301 163 275 194 q 368 132 326 132 m 368 1238 q 556 1126 475 1126 q 632 1154 596 1126 l 689 1194 l 736 1129 l 481 943 q 293 1053 372 1053 q 213 1024 253 1053 l 158 986 l 113 1051 l 368 1238 z "},"æ":{"ha":1290,"x_min":75,"x_max":1200,"o":"m 935 756 q 1131 649 1061 756 q 1199 361 1200 542 l 728 361 q 785 190 738 256 q 911 125 832 125 q 1154 233 994 125 l 1196 171 l 983 1 q 831 -14 922 -14 q 690 22 754 -14 q 583 124 626 58 l 431 -3 q 313 -14 382 -14 q 131 48 188 -14 q 75 197 75 110 q 110 298 75 249 q 211 390 146 347 l 521 390 l 521 456 q 479 577 521 540 q 367 614 438 614 q 142 521 279 614 l 100 583 l 297 740 q 439 756 354 756 q 581 728 521 756 q 675 650 642 701 q 804 728 735 700 q 936 756 874 756 l 935 756 m 856 622 q 725 432 732 622 l 989 432 q 968 538 979 500 q 931 599 957 576 q 856 622 904 622 m 381 124 q 549 189 458 124 q 521 321 525 251 l 301 321 q 274 240 274 288 q 303 158 274 192 q 381 125 332 125 l 381 124 z "},"b":{"ha":993,"x_min":28,"x_max":903,"o":"m 625 754 q 767 706 704 754 q 867 576 831 658 q 903 394 903 494 q 835 192 903 286 q 667 41 768 97 q 471 -15 565 -15 q 366 9 415 -15 q 279 76 317 33 l 218 0 l 151 0 l 151 974 l 28 1058 l 28 1115 l 279 1213 l 346 1213 l 346 607 l 519 744 q 625 756 564 756 l 625 754 m 551 119 q 694 328 694 119 q 657 531 694 450 q 549 613 619 613 q 451 595 497 613 q 346 531 404 578 l 346 288 q 399 167 346 215 q 551 119 453 119 z "},"c":{"ha":865,"x_min":90,"x_max":785,"o":"m 494 756 q 635 740 556 756 q 750 704 714 724 l 750 474 l 683 474 q 561 583 631 543 q 418 622 492 622 q 329 569 360 622 q 299 414 299 515 q 351 208 299 290 q 504 125 404 125 q 743 229 589 125 l 785 165 l 576 1 q 424 -14 515 -14 q 252 34 328 -14 q 133 165 176 82 q 90 347 90 247 q 153 549 90 456 q 310 699 215 643 q 494 756 406 756 z "},"ć":{"ha":865,"x_min":90,"x_max":785,"o":"m 494 756 q 635 740 556 756 q 750 704 714 724 l 750 474 l 683 474 q 561 583 631 543 q 418 622 492 622 q 329 569 360 622 q 299 414 299 515 q 351 208 299 290 q 504 125 404 125 q 743 229 589 125 l 785 165 l 576 1 q 424 -14 515 -14 q 252 34 328 -14 q 133 165 176 82 q 90 347 90 247 q 153 549 90 456 q 310 699 215 643 q 494 756 406 756 m 743 1165 l 415 935 l 350 967 l 499 1239 l 713 1213 l 743 1165 z "},"č":{"ha":865,"x_min":90,"x_max":785,"o":"m 494 756 q 635 740 556 756 q 750 704 714 724 l 750 474 l 683 474 q 561 583 631 543 q 418 622 492 622 q 329 569 360 622 q 299 414 299 515 q 351 208 299 290 q 504 125 404 125 q 743 229 589 125 l 785 165 l 576 1 q 424 -14 515 -14 q 252 34 328 -14 q 133 165 176 82 q 90 347 90 247 q 153 549 90 456 q 310 699 215 643 q 494 756 406 756 m 453 929 l 119 1165 l 149 1213 l 353 1239 l 494 1060 l 725 1231 l 771 1165 l 453 929 z "},"ç":{"ha":865,"x_min":90,"x_max":785,"o":"m 493 -69 q 588 -153 563 -119 q 614 -226 614 -187 q 545 -325 614 -290 q 333 -367 476 -360 l 333 -310 q 420 -264 392 -290 q 449 -200 449 -237 q 429 -148 449 -171 q 361 -93 410 -125 l 458 -12 l 424 -12 q 252 35 328 -12 q 133 166 176 83 q 90 349 90 249 q 153 551 90 457 q 310 701 215 644 q 494 757 406 757 q 635 741 556 757 q 750 706 714 725 l 750 475 l 683 475 q 561 584 631 544 q 418 624 492 624 q 329 570 360 624 q 299 415 299 517 q 351 209 299 292 q 504 126 404 126 q 743 231 589 126 l 785 167 l 607 26 q 494 -69 576 0 l 493 -69 z "},"ċ":{"ha":865,"x_min":90,"x_max":785,"o":"m 494 756 q 635 740 556 756 q 750 704 714 724 l 750 474 l 683 474 q 561 583 631 543 q 418 622 492 622 q 329 569 360 622 q 299 414 299 515 q 351 208 299 290 q 504 125 404 125 q 743 229 589 125 l 785 165 l 576 1 q 424 -14 515 -14 q 252 34 328 -14 q 133 165 176 82 q 90 347 90 247 q 153 549 90 456 q 310 699 215 643 q 494 756 406 756 m 463 1186 q 543 1152 511 1186 q 575 1068 575 1118 q 552 1002 575 1033 q 495 953 529 971 q 429 935 461 935 q 349 968 381 935 q 317 1051 317 1001 q 340 1118 317 1088 q 397 1167 363 1149 q 463 1186 431 1186 z "},"d":{"ha":993,"x_min":90,"x_max":965,"o":"m 931 0 l 646 0 l 646 101 l 515 -3 q 410 -14 471 -14 q 245 34 318 -14 q 131 165 172 82 q 90 347 90 247 q 158 549 90 456 q 326 699 225 643 q 522 756 428 756 q 646 718 589 756 l 646 974 l 522 1058 l 522 1115 l 774 1213 l 840 1213 l 840 115 l 965 69 l 931 0 m 486 133 q 565 144 528 133 q 646 182 603 154 l 646 479 q 585 582 638 542 q 442 622 533 622 q 299 413 299 622 q 347 213 299 293 q 486 132 396 132 l 486 133 z "},"ð":{"ha":932,"x_min":72,"x_max":853,"o":"m 572 1039 q 777 772 701 922 q 853 476 853 622 q 792 235 853 349 q 631 54 732 122 q 417 -14 531 -14 q 246 33 322 -14 q 126 163 169 81 q 82 347 82 246 q 145 541 82 446 q 310 696 208 636 q 515 756 411 756 q 550 754 538 756 q 397 938 488 860 l 144 790 l 115 840 l 349 976 q 72 1108 222 1069 l 72 1165 l 263 1226 q 526 1079 403 1179 l 778 1226 l 807 1176 l 572 1040 l 572 1039 m 496 121 q 610 187 574 121 q 646 397 646 253 q 610 621 646 513 l 435 621 q 328 568 364 621 q 292 413 292 515 q 348 199 292 279 q 497 119 404 119 l 496 121 z "},"ď":{"ha":993,"x_min":90,"x_max":1185,"o":"m 931 0 l 646 0 l 646 101 l 515 -3 q 410 -14 471 -14 q 245 34 318 -14 q 131 165 172 82 q 90 347 90 247 q 158 549 90 456 q 326 699 225 643 q 522 756 428 756 q 646 718 589 756 l 646 974 l 522 1058 l 522 1115 l 774 1213 l 840 1213 l 840 115 l 965 69 l 931 0 m 486 133 q 565 144 528 133 q 646 182 603 154 l 646 479 q 585 582 638 542 q 442 622 533 622 q 299 413 299 622 q 347 213 299 293 q 486 132 396 132 l 486 133 m 1185 992 l 1022 793 l 956 846 q 1014 1036 1014 946 l 951 1088 l 951 1144 l 1119 1213 l 1185 1213 l 1185 992 z "},"đ":{"ha":993,"x_min":90,"x_max":993,"o":"m 840 115 l 965 69 l 931 0 l 646 0 l 646 101 l 515 -3 q 410 -14 471 -14 q 245 34 318 -14 q 131 165 172 82 q 90 347 90 247 q 158 549 90 456 q 326 699 225 643 q 522 756 428 756 q 646 718 589 756 l 646 928 l 385 928 l 385 999 l 646 999 l 646 1186 l 774 1236 l 840 1236 l 840 999 l 993 999 l 993 928 l 840 928 l 840 115 m 486 133 q 565 144 528 133 q 646 182 603 154 l 646 479 q 585 582 638 542 q 442 622 533 622 q 299 413 299 622 q 347 213 299 293 q 486 132 396 132 l 486 133 z "},"e":{"ha":903,"x_min":89,"x_max":811,"o":"m 579 1 q 422 -14 515 -14 q 251 34 326 -14 q 132 165 175 82 q 89 347 89 247 q 156 549 89 456 q 325 699 224 643 q 521 756 426 756 q 735 649 658 756 q 810 361 811 542 l 300 361 q 363 190 311 256 q 504 125 415 125 q 771 249 597 125 l 811 185 l 579 1 m 442 622 q 297 432 304 622 l 599 432 q 574 538 588 500 q 530 599 561 576 q 442 622 499 622 z "},"é":{"ha":903,"x_min":89,"x_max":811,"o":"m 579 1 q 422 -14 515 -14 q 251 34 326 -14 q 132 165 175 82 q 89 347 89 247 q 156 549 89 456 q 325 699 224 643 q 521 756 426 756 q 735 649 658 756 q 810 361 811 542 l 300 361 q 363 190 311 256 q 504 125 415 125 q 771 249 597 125 l 811 185 l 579 1 m 442 622 q 297 432 304 622 l 599 432 q 574 538 588 500 q 530 599 561 576 q 442 622 499 622 m 750 1165 l 422 935 l 357 967 l 506 1239 l 719 1213 l 750 1165 z "},"ě":{"ha":903,"x_min":89,"x_max":811,"o":"m 579 1 q 422 -14 515 -14 q 251 34 326 -14 q 132 165 175 82 q 89 347 89 247 q 156 549 89 456 q 325 699 224 643 q 521 756 426 756 q 735 649 658 756 q 810 361 811 542 l 300 361 q 363 190 311 256 q 504 125 415 125 q 771 249 597 125 l 811 185 l 579 1 m 442 622 q 297 432 304 622 l 599 432 q 574 538 588 500 q 530 599 561 576 q 442 622 499 622 m 460 929 l 126 1165 l 156 1213 l 360 1239 l 501 1060 l 732 1231 l 778 1165 l 460 929 z "},"ê":{"ha":903,"x_min":89,"x_max":811,"o":"m 579 1 q 422 -14 515 -14 q 251 34 326 -14 q 132 165 175 82 q 89 347 89 247 q 156 549 89 456 q 325 699 224 643 q 521 756 426 756 q 735 649 658 756 q 810 361 811 542 l 300 361 q 363 190 311 256 q 504 125 415 125 q 771 249 597 125 l 811 185 l 579 1 m 442 622 q 297 432 304 622 l 599 432 q 574 538 588 500 q 530 599 561 576 q 442 622 499 622 m 753 944 l 550 918 l 407 1097 l 176 926 l 131 992 l 449 1228 l 783 992 l 753 944 z "},"ë":{"ha":903,"x_min":89,"x_max":811,"o":"m 246 949 q 176 981 204 949 q 147 1058 147 1013 q 167 1121 147 1092 q 217 1167 188 1150 q 276 1185 247 1185 q 347 1153 319 1185 q 375 1074 375 1121 q 355 1012 375 1040 q 304 966 335 983 q 246 949 274 949 m 635 949 q 565 981 593 949 q 536 1058 536 1013 q 556 1121 536 1092 q 606 1167 576 1150 q 665 1185 636 1185 q 736 1153 708 1185 q 764 1074 764 1121 q 744 1012 764 1040 q 693 966 724 983 q 635 949 663 949 m 579 1 q 422 -14 515 -14 q 251 34 326 -14 q 132 165 175 82 q 89 347 89 247 q 156 549 89 456 q 325 699 224 643 q 521 756 426 756 q 735 649 658 756 q 810 361 811 542 l 300 361 q 363 190 311 256 q 504 125 415 125 q 771 249 597 125 l 811 185 l 579 1 m 442 622 q 297 432 304 622 l 599 432 q 574 538 588 500 q 530 599 561 576 q 442 622 499 622 z "},"ė":{"ha":903,"x_min":89,"x_max":811,"o":"m 579 1 q 422 -14 515 -14 q 251 34 326 -14 q 132 165 175 82 q 89 347 89 247 q 156 549 89 456 q 325 699 224 643 q 521 756 426 756 q 735 649 658 756 q 810 361 811 542 l 300 361 q 363 190 311 256 q 504 125 415 125 q 771 249 597 125 l 811 185 l 579 1 m 442 622 q 297 432 304 622 l 599 432 q 574 538 588 500 q 530 599 561 576 q 442 622 499 622 m 469 1186 q 550 1152 518 1186 q 582 1068 582 1118 q 559 1002 582 1033 q 502 953 536 971 q 436 935 468 935 q 356 968 388 935 q 324 1051 324 1001 q 347 1118 324 1088 q 403 1167 369 1149 q 469 1186 438 1186 z "},"è":{"ha":903,"x_min":89,"x_max":811,"o":"m 579 1 q 422 -14 515 -14 q 251 34 326 -14 q 132 165 175 82 q 89 347 89 247 q 156 549 89 456 q 325 699 224 643 q 521 756 426 756 q 735 649 658 756 q 810 361 811 542 l 300 361 q 363 190 311 256 q 504 125 415 125 q 771 249 597 125 l 811 185 l 579 1 m 442 622 q 297 432 304 622 l 599 432 q 574 538 588 500 q 530 599 561 576 q 442 622 499 622 m 488 935 l 161 1165 l 190 1213 l 404 1239 l 553 967 l 488 935 z "},"ē":{"ha":903,"x_min":89,"x_max":811,"o":"m 579 1 q 422 -14 515 -14 q 251 34 326 -14 q 132 165 175 82 q 89 347 89 247 q 156 549 89 456 q 325 699 224 643 q 521 756 426 756 q 735 649 658 756 q 810 361 811 542 l 300 361 q 363 190 311 256 q 504 125 415 125 q 771 249 597 125 l 811 185 l 579 1 m 442 622 q 297 432 304 622 l 599 432 q 574 538 588 500 q 530 599 561 576 q 442 622 499 622 m 150 1110 l 758 1110 l 758 1035 l 150 1035 l 150 1110 z "},"ę":{"ha":903,"x_min":89,"x_max":813,"o":"m 483 -153 q 501 -192 483 -179 q 560 -211 519 -206 l 560 -278 l 447 -367 q 351 -312 386 -349 q 317 -225 317 -275 q 328 -153 317 -182 l 472 -12 q 422 -14 454 -14 q 251 34 326 -14 q 132 165 175 82 q 89 347 89 247 q 156 549 89 456 q 325 699 224 643 q 521 756 426 756 q 735 649 658 756 q 810 361 811 542 l 300 361 q 363 190 311 256 q 504 125 415 125 q 771 249 597 125 l 813 185 l 588 7 q 507 -85 528 -47 q 486 -153 486 -122 l 483 -153 m 440 622 q 296 432 303 622 l 597 432 q 573 538 586 500 q 528 599 560 576 q 440 622 497 622 z "},"f":{"ha":638,"x_min":35,"x_max":758,"o":"m 583 1226 q 681 1217 626 1226 q 758 1196 735 1207 l 758 968 l 692 968 q 608 1060 658 1026 q 507 1094 558 1094 q 418 1043 449 1094 q 388 893 388 992 l 388 700 l 631 700 l 631 629 l 388 629 l 388 128 l 589 69 l 554 0 l 69 0 l 69 57 l 193 157 l 193 629 l 35 629 l 35 700 l 193 700 l 193 818 q 253 1020 193 926 q 406 1170 314 1114 q 583 1226 497 1226 z "},"g":{"ha":889,"x_min":69,"x_max":861,"o":"m 704 629 q 738 517 738 576 q 665 345 738 426 q 485 229 592 264 q 449 150 449 189 q 482 109 449 128 q 588 60 515 90 q 738 -15 686 19 q 790 -96 790 -49 q 736 -204 790 -139 q 601 -318 682 -269 q 444 -367 519 -367 q 253 -340 363 -367 q 69 -287 143 -314 l 69 -60 l 136 -60 q 288 -203 211 -154 q 460 -253 364 -253 q 523 -240 494 -253 q 567 -207 551 -226 q 583 -169 583 -187 q 542 -108 583 -135 q 417 -44 500 -81 q 290 19 332 -8 q 247 82 247 46 q 294 150 247 115 q 406 211 342 185 q 364 208 378 208 q 222 241 286 208 q 119 329 157 274 q 82 449 82 385 q 137 597 82 525 q 279 712 192 668 q 458 756 367 756 q 639 700 561 756 l 861 700 l 860 629 l 704 629 m 442 343 q 556 451 556 343 q 506 575 556 528 q 375 622 457 622 q 292 596 321 622 q 263 517 263 569 q 312 391 263 439 q 442 343 361 343 z "},"ğ":{"ha":889,"x_min":69,"x_max":861,"o":"m 704 629 q 738 517 738 576 q 665 345 738 426 q 485 229 592 264 q 449 150 449 189 q 482 109 449 128 q 588 60 515 90 q 738 -15 686 19 q 790 -96 790 -49 q 736 -204 790 -139 q 601 -318 682 -269 q 444 -367 519 -367 q 253 -340 363 -367 q 69 -287 143 -314 l 69 -60 l 136 -60 q 288 -203 211 -154 q 460 -253 364 -253 q 523 -240 494 -253 q 567 -207 551 -226 q 583 -169 583 -187 q 542 -108 583 -135 q 417 -44 500 -81 q 290 19 332 -8 q 247 82 247 46 q 294 150 247 115 q 406 211 342 185 q 364 208 378 208 q 222 241 286 208 q 119 329 157 274 q 82 449 82 385 q 137 597 82 525 q 279 712 192 668 q 458 756 367 756 q 639 700 561 756 l 861 700 l 860 629 l 704 629 m 442 343 q 556 451 556 343 q 506 575 556 528 q 375 622 457 622 q 292 596 321 622 q 263 517 263 569 q 312 391 263 439 q 442 343 361 343 m 732 1219 q 678 1094 728 1157 q 557 992 629 1032 q 415 951 485 951 q 249 986 329 951 q 129 1092 168 1021 l 290 1219 q 363 1100 322 1136 q 454 1064 403 1064 q 525 1085 497 1064 q 556 1140 553 1107 l 732 1219 z "},"ģ":{"ha":889,"x_min":69,"x_max":861,"o":"m 704 629 q 738 517 738 576 q 665 345 738 426 q 485 229 592 264 q 449 150 449 189 q 482 109 449 128 q 588 60 515 90 q 738 -15 686 19 q 790 -96 790 -49 q 736 -204 790 -139 q 601 -318 682 -269 q 444 -367 519 -367 q 253 -340 363 -367 q 69 -287 143 -314 l 69 -60 l 136 -60 q 288 -203 211 -154 q 460 -253 364 -253 q 523 -240 494 -253 q 567 -207 551 -226 q 583 -169 583 -187 q 542 -108 583 -135 q 417 -44 500 -81 q 290 19 332 -8 q 247 82 247 46 q 294 150 247 115 q 406 211 342 185 q 364 208 378 208 q 222 241 286 208 q 119 329 157 274 q 82 449 82 385 q 137 597 82 525 q 279 712 192 668 q 458 756 367 756 q 639 700 561 756 l 861 700 l 860 629 l 704 629 m 442 343 q 556 451 556 343 q 506 575 556 528 q 375 622 457 622 q 292 596 321 622 q 263 517 263 569 q 312 391 263 439 q 442 343 361 343 m 258 1032 l 435 1282 l 514 1282 l 476 1118 l 590 1044 l 556 975 l 258 975 l 258 1032 z "},"ġ":{"ha":889,"x_min":69,"x_max":861,"o":"m 704 629 q 738 517 738 576 q 665 345 738 426 q 485 229 592 264 q 449 150 449 189 q 482 109 449 128 q 588 60 515 90 q 738 -15 686 19 q 790 -96 790 -49 q 736 -204 790 -139 q 601 -318 682 -269 q 444 -367 519 -367 q 253 -340 363 -367 q 69 -287 143 -314 l 69 -60 l 136 -60 q 288 -203 211 -154 q 460 -253 364 -253 q 523 -240 494 -253 q 567 -207 551 -226 q 583 -169 583 -187 q 542 -108 583 -135 q 417 -44 500 -81 q 290 19 332 -8 q 247 82 247 46 q 294 150 247 115 q 406 211 342 185 q 364 208 378 208 q 222 241 286 208 q 119 329 157 274 q 82 449 82 385 q 137 597 82 525 q 279 712 192 668 q 458 756 367 756 q 639 700 561 756 l 861 700 l 860 629 l 704 629 m 442 343 q 556 451 556 343 q 506 575 556 528 q 375 622 457 622 q 292 596 321 622 q 263 517 263 569 q 312 391 263 439 q 442 343 361 343 m 439 1186 q 519 1152 488 1186 q 551 1068 551 1118 q 528 1002 551 1033 q 472 953 506 971 q 406 935 438 935 q 325 968 357 935 q 293 1051 293 1001 q 316 1118 293 1088 q 373 1167 339 1149 q 439 1186 407 1186 z "},"h":{"ha":985,"x_min":42,"x_max":957,"o":"m 922 0 l 638 0 l 638 458 q 615 560 638 532 q 538 589 593 589 q 454 575 496 589 q 360 522 413 561 l 360 115 l 485 69 l 450 0 l 42 0 l 42 57 l 165 157 l 165 974 l 42 1058 l 42 1115 l 293 1213 l 360 1213 l 360 606 l 536 744 q 617 756 565 756 q 774 698 715 756 q 832 542 832 640 l 832 115 l 957 69 l 922 0 z "},"ħ":{"ha":985,"x_min":0,"x_max":957,"o":"m 922 0 l 638 0 l 638 458 q 615 560 638 532 q 538 589 593 589 q 454 575 496 589 q 360 522 413 561 l 360 115 l 485 69 l 450 0 l 42 0 l 42 57 l 165 157 l 165 928 l 0 928 l 0 999 l 165 999 l 165 1176 l 293 1236 l 360 1236 l 360 999 l 608 999 l 608 928 l 360 928 l 360 606 l 536 744 q 617 756 565 756 q 774 698 715 756 q 832 542 832 640 l 832 115 l 957 69 l 922 0 z "},"i":{"ha":551,"x_min":69,"x_max":513,"o":"m 478 0 l 69 0 l 69 57 l 193 157 l 193 529 l 69 614 l 69 671 l 321 768 l 388 768 l 388 115 l 513 69 l 478 0 m 286 1186 q 367 1152 335 1186 q 399 1068 399 1118 q 376 1002 399 1033 q 319 953 353 971 q 253 935 285 935 q 172 968 204 935 q 140 1051 140 1001 q 163 1118 140 1088 q 220 1167 186 1149 q 286 1186 254 1186 z "},"ı":{"ha":551,"x_min":69,"x_max":513,"o":"m 478 0 l 69 0 l 69 57 l 193 157 l 193 529 l 69 614 l 69 671 l 321 768 l 388 768 l 388 115 l 513 69 l 478 0 z "},"í":{"ha":551,"x_min":69,"x_max":567,"o":"m 478 0 l 69 0 l 69 57 l 193 157 l 193 529 l 69 614 l 69 671 l 321 768 l 388 768 l 388 115 l 513 69 l 478 0 m 567 1165 l 239 935 l 174 967 l 322 1239 l 536 1213 l 567 1165 z "},"î":{"ha":551,"x_min":-53,"x_max":600,"o":"m 478 0 l 69 0 l 69 57 l 193 157 l 193 529 l 69 614 l 69 671 l 321 768 l 388 768 l 388 115 l 513 69 l 478 0 m 569 944 l 367 918 l 224 1097 l -7 926 l -53 992 l 265 1228 l 600 992 l 569 944 z "},"ï":{"ha":551,"x_min":-37,"x_max":579,"o":"m 190 1074 q 170 1012 190 1040 q 119 966 150 983 q 61 949 89 949 q -9 981 19 949 q -37 1058 -37 1013 q -17 1121 -37 1092 q 33 1167 3 1150 q 92 1185 63 1185 q 163 1153 135 1185 q 190 1074 190 1121 m 481 1185 q 551 1153 524 1185 q 579 1074 579 1121 q 559 1012 579 1040 q 508 966 539 983 q 450 949 478 949 q 380 981 408 949 q 351 1058 351 1013 q 372 1121 351 1092 q 422 1167 392 1150 q 481 1185 451 1185 m 513 69 l 478 0 l 69 0 l 69 57 l 193 157 l 193 529 l 69 614 l 69 671 l 321 768 l 388 768 l 388 115 l 513 69 z "},"ì":{"ha":551,"x_min":-22,"x_max":513,"o":"m 478 0 l 69 0 l 69 57 l 193 157 l 193 529 l 69 614 l 69 671 l 321 768 l 388 768 l 388 115 l 513 69 l 478 0 m 304 935 l -22 1165 l 7 1213 l 221 1239 l 369 967 l 304 935 z "},"ĳ":{"ha":1082,"x_min":69,"x_max":943,"o":"m 253 935 q 172 968 204 935 q 140 1051 140 1001 q 163 1118 140 1088 q 220 1167 186 1149 q 286 1186 254 1186 q 367 1152 335 1186 q 399 1068 399 1118 q 376 1002 399 1033 q 319 953 353 971 q 253 935 285 935 m 797 931 q 717 964 749 931 q 685 1047 685 997 q 708 1114 685 1083 q 765 1163 731 1144 q 831 1182 799 1182 q 911 1148 879 1182 q 943 1064 943 1114 q 920 998 943 1029 q 863 949 897 967 q 797 931 829 931 m 513 69 l 478 0 l 69 0 l 69 57 l 193 157 l 193 529 l 69 614 l 69 671 l 321 768 l 388 768 l 388 115 l 513 69 m 931 138 q 934 35 931 82 q 943 -28 938 -11 l 663 -367 l 596 -315 q 708 -147 679 -217 q 736 26 736 -76 l 736 536 l 613 622 l 613 679 l 864 768 l 931 768 l 931 138 z "},"ī":{"ha":551,"x_min":-33,"x_max":575,"o":"m 478 0 l 69 0 l 69 57 l 193 157 l 193 529 l 69 614 l 69 671 l 321 768 l 388 768 l 388 115 l 513 69 l 478 0 m -33 1110 l 575 1110 l 575 1035 l -33 1035 l -33 1110 z "},"į":{"ha":551,"x_min":69,"x_max":513,"o":"m 253 935 q 172 968 204 935 q 140 1051 140 1001 q 163 1118 140 1088 q 220 1167 186 1149 q 286 1186 254 1186 q 367 1152 335 1186 q 399 1068 399 1118 q 376 1002 399 1033 q 319 953 353 971 q 253 935 285 935 m 478 0 q 402 -91 425 -56 q 379 -154 379 -126 q 394 -192 379 -179 q 443 -211 410 -206 l 443 -278 l 331 -367 q 181 -210 181 -325 q 192 -153 181 -175 l 383 0 l 69 0 l 69 57 l 193 157 l 193 529 l 69 614 l 69 671 l 321 768 l 388 768 l 388 115 l 513 69 l 478 0 z "},"j":{"ha":531,"x_min":44,"x_max":392,"o":"m 379 138 q 383 35 379 82 q 392 -28 386 -11 l 111 -367 l 44 -315 q 156 -147 128 -217 q 185 26 185 -76 l 185 536 l 61 622 l 61 679 l 313 768 l 379 768 l 379 138 m 279 1182 q 360 1148 328 1182 q 392 1064 392 1114 q 369 998 392 1029 q 312 949 346 967 q 246 931 278 931 q 165 964 197 931 q 133 1047 133 997 q 156 1114 133 1083 q 213 1163 179 1144 q 279 1182 247 1182 z "},"ȷ":{"ha":531,"x_min":44,"x_max":392,"o":"m 379 138 q 383 35 379 82 q 392 -28 386 -11 l 111 -367 l 44 -315 q 156 -147 128 -217 q 185 26 185 -76 l 185 536 l 61 622 l 61 679 l 313 768 l 379 768 l 379 138 z "},"k":{"ha":982,"x_min":42,"x_max":964,"o":"m 485 69 l 450 0 l 42 0 l 42 57 l 165 157 l 165 974 l 42 1058 l 42 1115 l 293 1213 l 360 1213 l 360 115 l 485 69 m 929 0 l 674 0 l 426 369 l 681 578 l 532 672 l 567 742 l 926 742 l 926 685 l 618 429 l 833 119 l 964 69 l 929 0 z "},"ķ":{"ha":982,"x_min":42,"x_max":964,"o":"m 485 69 l 450 0 l 42 0 l 42 57 l 165 157 l 165 974 l 42 1058 l 42 1115 l 293 1213 l 360 1213 l 360 115 l 485 69 m 929 0 l 674 0 l 426 369 l 681 578 l 532 672 l 567 742 l 926 742 l 926 685 l 618 429 l 833 119 l 964 69 l 929 0 m 686 -172 l 510 -422 l 431 -422 l 468 -258 l 354 -185 l 389 -115 l 686 -115 l 686 -172 z "},"l":{"ha":524,"x_min":42,"x_max":485,"o":"m 450 0 l 42 0 l 42 57 l 165 157 l 165 974 l 42 1058 l 42 1115 l 293 1213 l 360 1213 l 360 115 l 485 69 l 450 0 z "},"ĺ":{"ha":524,"x_min":42,"x_max":553,"o":"m 450 0 l 42 0 l 42 57 l 165 157 l 165 974 l 42 1058 l 42 1115 l 293 1213 l 360 1213 l 360 115 l 485 69 l 450 0 m 553 1567 l 225 1336 l 160 1368 l 308 1640 l 522 1614 l 553 1567 z "},"ľ":{"ha":524,"x_min":42,"x_max":704,"o":"m 450 0 l 42 0 l 42 57 l 165 157 l 165 974 l 42 1058 l 42 1115 l 293 1213 l 360 1213 l 360 115 l 485 69 l 450 0 m 704 992 l 542 793 l 475 846 q 533 1036 533 946 l 471 1088 l 471 1144 l 639 1213 l 704 1213 l 704 992 z "},"ļ":{"ha":524,"x_min":42,"x_max":485,"o":"m 450 0 l 42 0 l 42 57 l 165 157 l 165 974 l 42 1058 l 42 1115 l 293 1213 l 360 1213 l 360 115 l 485 69 l 450 0 m 433 -172 l 257 -422 l 178 -422 l 215 -258 l 101 -185 l 136 -115 l 433 -115 l 433 -172 z "},"ŀ":{"ha":729,"x_min":42,"x_max":751,"o":"m 450 0 l 42 0 l 42 57 l 165 157 l 165 974 l 42 1058 l 42 1115 l 293 1213 l 360 1213 l 360 115 l 485 69 l 450 0 m 639 701 q 719 667 688 701 q 751 583 751 633 q 728 517 751 549 q 672 468 706 486 q 606 450 638 450 q 525 483 557 450 q 493 567 493 517 q 516 633 493 603 q 573 683 539 664 q 639 701 607 701 z "},"ł":{"ha":513,"x_min":-35,"x_max":547,"o":"m 360 115 l 485 69 l 450 0 l 42 0 l 42 57 l 165 157 l 165 540 l -35 344 l -35 436 l 165 640 l 165 974 l 42 1058 l 42 1115 l 293 1213 l 360 1213 l 360 754 l 547 947 l 547 842 l 360 651 l 360 115 z "},"m":{"ha":1450,"x_min":68,"x_max":1421,"o":"m 1386 0 l 1101 0 l 1101 465 q 1080 562 1101 535 q 1004 589 1058 589 q 928 575 967 589 q 842 522 890 561 l 842 114 l 963 69 l 928 0 l 647 0 l 647 465 q 626 562 647 535 q 550 589 604 589 q 473 575 511 589 q 386 522 435 561 l 386 114 l 508 69 l 474 0 l 68 0 l 68 57 l 192 157 l 192 518 l 68 593 l 68 650 l 326 768 l 375 597 l 553 744 q 629 756 579 756 q 765 715 711 756 q 836 601 819 674 l 1008 744 q 1085 756 1035 756 q 1240 698 1182 756 q 1297 542 1297 640 l 1297 115 l 1421 69 l 1386 0 z "},"n":{"ha":1013,"x_min":69,"x_max":985,"o":"m 950 0 l 665 0 l 665 458 q 643 560 665 532 q 565 589 621 589 q 482 575 524 589 q 388 522 440 561 l 388 115 l 513 69 l 478 0 l 69 0 l 69 57 l 193 157 l 193 518 l 69 593 l 69 650 l 328 768 l 376 596 l 564 744 q 644 756 593 756 q 801 698 743 756 q 860 542 860 640 l 860 115 l 985 69 l 950 0 z "},"ń":{"ha":1013,"x_min":69,"x_max":985,"o":"m 950 0 l 665 0 l 665 458 q 643 560 665 532 q 565 589 621 589 q 482 575 524 589 q 388 522 440 561 l 388 115 l 513 69 l 478 0 l 69 0 l 69 57 l 193 157 l 193 518 l 69 593 l 69 650 l 328 768 l 376 596 l 564 744 q 644 756 593 756 q 801 698 743 756 q 860 542 860 640 l 860 115 l 985 69 l 950 0 m 789 1165 l 461 935 l 396 967 l 544 1239 l 758 1213 l 789 1165 z "},"ň":{"ha":1013,"x_min":69,"x_max":985,"o":"m 950 0 l 665 0 l 665 458 q 643 560 665 532 q 565 589 621 589 q 482 575 524 589 q 388 522 440 561 l 388 115 l 513 69 l 478 0 l 69 0 l 69 57 l 193 157 l 193 518 l 69 593 l 69 650 l 328 768 l 376 596 l 564 744 q 644 756 593 756 q 801 698 743 756 q 860 542 860 640 l 860 115 l 985 69 l 950 0 m 499 929 l 165 1165 l 194 1213 l 399 1239 l 540 1060 l 771 1231 l 817 1165 l 499 929 z "},"ņ":{"ha":1013,"x_min":69,"x_max":985,"o":"m 950 0 l 665 0 l 665 458 q 643 560 665 532 q 565 589 621 589 q 482 575 524 589 q 388 522 440 561 l 388 115 l 513 69 l 478 0 l 69 0 l 69 57 l 193 157 l 193 518 l 69 593 l 69 650 l 328 768 l 376 596 l 564 744 q 644 756 593 756 q 801 698 743 756 q 860 542 860 640 l 860 115 l 985 69 l 950 0 m 725 -172 l 549 -422 l 469 -422 l 507 -258 l 393 -185 l 428 -115 l 725 -115 l 725 -172 z "},"ŋ":{"ha":1011,"x_min":69,"x_max":872,"o":"m 860 138 q 863 35 860 82 q 872 -28 867 -11 l 592 -367 l 525 -315 q 637 -147 608 -217 q 665 26 665 -76 l 665 458 q 643 560 665 532 q 565 589 621 589 q 482 575 524 589 q 388 522 440 561 l 388 115 l 513 69 l 478 0 l 69 0 l 69 57 l 193 157 l 193 518 l 69 593 l 69 650 l 328 768 l 376 596 l 564 744 q 644 756 593 756 q 801 698 743 756 q 860 542 860 640 l 860 138 z "},"ñ":{"ha":1013,"x_min":69,"x_max":985,"o":"m 950 0 l 665 0 l 665 458 q 643 560 665 532 q 565 589 621 589 q 482 575 524 589 q 388 522 440 561 l 388 115 l 513 69 l 478 0 l 69 0 l 69 57 l 193 157 l 193 518 l 69 593 l 69 650 l 328 768 l 376 596 l 564 744 q 644 756 593 756 q 801 698 743 756 q 860 542 860 640 l 860 115 l 985 69 l 950 0 m 436 1238 q 624 1126 543 1126 q 700 1154 664 1126 l 757 1194 l 804 1129 l 549 943 q 361 1053 440 1053 q 281 1024 321 1053 l 226 986 l 181 1051 l 436 1238 z "},"o":{"ha":946,"x_min":90,"x_max":856,"o":"m 522 756 q 694 708 618 756 q 813 578 771 660 q 856 396 856 496 q 788 193 856 288 q 619 42 721 99 q 424 -14 518 -14 q 252 34 328 -14 q 133 165 176 82 q 90 347 90 247 q 158 549 90 456 q 326 699 225 643 q 522 756 428 756 m 442 622 q 337 569 372 622 q 301 414 301 517 q 354 204 301 288 q 504 121 407 121 q 646 331 646 121 q 593 539 646 456 q 442 622 540 622 z "},"ó":{"ha":946,"x_min":90,"x_max":856,"o":"m 522 756 q 694 708 618 756 q 813 578 771 660 q 856 396 856 496 q 788 193 856 288 q 619 42 721 99 q 424 -14 518 -14 q 252 34 328 -14 q 133 165 176 82 q 90 347 90 247 q 158 549 90 456 q 326 699 225 643 q 522 756 428 756 m 442 622 q 337 569 372 622 q 301 414 301 517 q 354 204 301 288 q 504 121 407 121 q 646 331 646 121 q 593 539 646 456 q 442 622 540 622 m 769 1165 l 442 935 l 376 967 l 525 1239 l 739 1213 l 769 1165 z "},"ô":{"ha":946,"x_min":90,"x_max":856,"o":"m 522 756 q 694 708 618 756 q 813 578 771 660 q 856 396 856 496 q 788 193 856 288 q 619 42 721 99 q 424 -14 518 -14 q 252 34 328 -14 q 133 165 176 82 q 90 347 90 247 q 158 549 90 456 q 326 699 225 643 q 522 756 428 756 m 442 622 q 337 569 372 622 q 301 414 301 517 q 354 204 301 288 q 504 121 407 121 q 646 331 646 121 q 593 539 646 456 q 442 622 540 622 m 772 944 l 569 918 l 426 1097 l 196 926 l 150 992 l 468 1228 l 803 992 l 772 944 z "},"ö":{"ha":946,"x_min":90,"x_max":856,"o":"m 296 1185 q 367 1153 339 1185 q 394 1074 394 1121 q 374 1012 394 1040 q 324 966 354 983 q 265 949 293 949 q 195 981 224 949 q 167 1058 167 1013 q 187 1121 167 1092 q 237 1167 207 1150 q 296 1185 267 1185 m 685 1185 q 756 1153 728 1185 q 783 1074 783 1121 q 763 1012 783 1040 q 713 966 743 983 q 654 949 682 949 q 584 981 613 949 q 556 1058 556 1013 q 576 1121 556 1092 q 626 1167 596 1150 q 685 1185 656 1185 m 522 756 q 694 708 618 756 q 813 578 771 660 q 856 396 856 496 q 788 193 856 288 q 619 42 721 99 q 424 -14 518 -14 q 252 34 328 -14 q 133 165 176 82 q 90 347 90 247 q 158 549 90 456 q 326 699 225 643 q 522 756 428 756 m 442 622 q 337 569 372 622 q 301 414 301 517 q 354 204 301 288 q 504 121 407 121 q 646 331 646 121 q 593 539 646 456 q 442 622 540 622 z "},"ò":{"ha":946,"x_min":90,"x_max":856,"o":"m 522 756 q 694 708 618 756 q 813 578 771 660 q 856 396 856 496 q 788 193 856 288 q 619 42 721 99 q 424 -14 518 -14 q 252 34 328 -14 q 133 165 176 82 q 90 347 90 247 q 158 549 90 456 q 326 699 225 643 q 522 756 428 756 m 442 622 q 337 569 372 622 q 301 414 301 517 q 354 204 301 288 q 504 121 407 121 q 646 331 646 121 q 593 539 646 456 q 442 622 540 622 m 507 935 l 181 1165 l 210 1213 l 424 1239 l 572 967 l 507 935 z "},"ő":{"ha":946,"x_min":90,"x_max":910,"o":"m 522 756 q 694 708 618 756 q 813 578 771 660 q 856 396 856 496 q 788 193 856 288 q 619 42 721 99 q 424 -14 518 -14 q 252 34 328 -14 q 133 165 176 82 q 90 347 90 247 q 158 549 90 456 q 326 699 225 643 q 522 756 428 756 m 442 622 q 337 569 372 622 q 301 414 301 517 q 354 204 301 288 q 504 121 407 121 q 646 331 646 121 q 593 539 646 456 q 442 622 540 622 m 538 1165 l 267 935 l 201 967 l 306 1239 l 508 1213 l 538 1165 m 910 1165 l 638 935 l 572 967 l 676 1239 l 879 1213 l 910 1165 z "},"ō":{"ha":946,"x_min":90,"x_max":856,"o":"m 522 756 q 694 708 618 756 q 813 578 771 660 q 856 396 856 496 q 788 193 856 288 q 619 42 721 99 q 424 -14 518 -14 q 252 34 328 -14 q 133 165 176 82 q 90 347 90 247 q 158 549 90 456 q 326 699 225 643 q 522 756 428 756 m 442 622 q 337 569 372 622 q 301 414 301 517 q 354 204 301 288 q 504 121 407 121 q 646 331 646 121 q 593 539 646 456 q 442 622 540 622 m 169 1110 l 778 1110 l 778 1035 l 169 1035 l 169 1110 z "},"ø":{"ha":946,"x_min":89,"x_max":854,"o":"m 701 700 q 813 571 772 651 q 854 394 854 490 q 787 192 854 286 q 618 41 719 97 q 422 -15 517 -15 q 303 7 361 -15 l 179 -208 l 117 -174 l 240 40 q 129 169 169 89 q 89 347 89 250 q 156 549 89 456 q 325 699 224 643 q 521 756 426 756 q 640 735 586 756 l 765 950 l 826 914 l 704 701 l 701 700 m 299 414 q 342 219 299 297 l 551 582 q 439 621 504 621 q 334 568 369 621 q 299 413 299 515 l 299 414 m 501 119 q 643 329 643 119 q 600 524 643 446 l 390 160 q 501 121 436 121 l 501 119 z "},"õ":{"ha":946,"x_min":90,"x_max":856,"o":"m 522 756 q 694 708 618 756 q 813 578 771 660 q 856 396 856 496 q 788 193 856 288 q 619 42 721 99 q 424 -14 518 -14 q 252 34 328 -14 q 133 165 176 82 q 90 347 90 247 q 158 549 90 456 q 326 699 225 643 q 522 756 428 756 m 442 622 q 337 569 372 622 q 301 414 301 517 q 354 204 301 288 q 504 121 407 121 q 646 331 646 121 q 593 539 646 456 q 442 622 540 622 m 417 1238 q 604 1126 524 1126 q 681 1154 644 1126 l 738 1194 l 785 1129 l 529 943 q 342 1053 421 1053 q 261 1024 301 1053 l 207 986 l 161 1051 l 417 1238 z "},"œ":{"ha":1368,"x_min":90,"x_max":1279,"o":"m 1014 756 q 1210 649 1140 756 q 1278 361 1279 542 l 807 361 q 864 190 817 256 q 990 125 911 125 q 1233 233 1074 125 l 1275 171 l 1063 1 q 910 -14 1001 -14 q 776 19 838 -14 q 671 110 714 51 q 539 19 611 53 q 400 -14 467 -14 q 240 34 311 -14 q 130 165 169 82 q 90 347 90 247 q 153 549 90 456 q 313 699 217 643 q 499 756 408 756 q 630 722 569 756 q 732 629 690 689 q 869 722 793 688 q 1014 756 944 756 m 481 121 q 567 174 538 121 q 597 331 597 226 q 551 539 597 456 q 418 622 504 622 q 331 569 360 622 q 301 414 301 517 q 348 204 301 288 q 481 121 394 121 m 935 622 q 804 432 811 622 l 1068 432 q 1047 538 1058 500 q 1010 599 1036 576 q 935 622 983 622 z "},"p":{"ha":1035,"x_min":69,"x_max":944,"o":"m 511 -14 q 388 25 443 -14 l 388 -226 l 589 -283 l 554 -353 l 69 -353 l 69 -296 l 193 -197 l 193 518 l 69 593 l 69 650 l 328 768 l 376 596 l 565 744 q 667 756 610 756 q 809 708 746 756 q 908 578 872 660 q 944 396 944 496 q 877 193 944 288 q 708 42 810 99 q 513 -14 607 -14 l 511 -14 m 589 600 q 491 583 538 600 q 386 518 444 565 l 386 289 q 440 169 386 217 q 592 121 493 121 q 735 329 735 121 q 697 522 735 444 q 589 600 660 600 z "},"þ":{"ha":1006,"x_min":42,"x_max":915,"o":"m 483 -15 q 360 24 415 -15 l 360 -226 l 561 -283 l 526 -353 l 42 -353 l 42 -296 l 165 -197 l 165 974 l 42 1058 l 42 1115 l 293 1213 l 360 1213 l 360 608 l 532 744 q 638 756 576 756 q 781 708 717 756 q 880 578 844 660 q 915 396 915 496 q 848 193 915 288 q 679 42 781 99 q 483 -14 578 -14 l 483 -15 m 563 608 q 465 592 511 608 q 360 529 418 575 l 360 265 q 420 160 368 201 q 564 119 472 119 q 707 328 707 119 q 669 528 707 447 q 561 608 632 608 l 563 608 z "},"q":{"ha":993,"x_min":89,"x_max":968,"o":"m 933 -351 l 444 -351 l 444 -294 l 644 -194 l 644 101 l 515 -1 q 408 -12 471 -12 q 244 35 317 -12 q 130 165 171 83 q 89 346 89 247 q 154 549 89 454 q 317 701 219 644 q 507 757 415 757 q 701 679 619 757 l 774 765 l 840 765 l 840 -240 l 968 -282 l 933 -351 m 485 133 q 564 144 526 133 q 644 182 601 154 l 644 478 q 584 583 636 542 q 440 624 532 624 q 333 569 369 624 q 297 413 297 515 q 347 214 297 294 q 486 133 396 133 l 485 133 z "},"r":{"ha":749,"x_min":69,"x_max":744,"o":"m 513 590 q 388 526 451 590 l 388 128 l 589 69 l 554 0 l 69 0 l 69 57 l 193 157 l 193 518 l 69 593 l 69 650 l 328 768 l 375 604 l 513 744 q 585 756 538 756 q 683 728 642 756 q 744 650 725 700 l 636 514 l 569 514 q 552 572 565 554 q 513 589 539 589 l 513 590 z "},"ŕ":{"ha":749,"x_min":69,"x_max":744,"o":"m 513 590 q 388 526 451 590 l 388 128 l 589 69 l 554 0 l 69 0 l 69 57 l 193 157 l 193 518 l 69 593 l 69 650 l 328 768 l 375 604 l 513 744 q 585 756 538 756 q 683 728 642 756 q 744 650 725 700 l 636 514 l 569 514 q 552 572 565 554 q 513 589 539 589 l 513 590 m 692 1165 l 364 935 l 299 967 l 447 1239 l 661 1213 l 692 1165 z "},"ř":{"ha":749,"x_min":68,"x_max":744,"o":"m 513 590 q 388 526 451 590 l 388 128 l 589 69 l 554 0 l 69 0 l 69 57 l 193 157 l 193 518 l 69 593 l 69 650 l 328 768 l 375 604 l 513 744 q 585 756 538 756 q 683 728 642 756 q 744 650 725 700 l 636 514 l 569 514 q 552 572 565 554 q 513 589 539 589 l 513 590 m 401 929 l 68 1165 l 97 1213 l 301 1239 l 443 1060 l 674 1231 l 719 1165 l 401 929 z "},"ŗ":{"ha":749,"x_min":69,"x_max":744,"o":"m 513 590 q 388 526 451 590 l 388 128 l 589 69 l 554 0 l 69 0 l 69 57 l 193 157 l 193 518 l 69 593 l 69 650 l 328 768 l 375 604 l 513 744 q 585 756 538 756 q 683 728 642 756 q 744 650 725 700 l 636 514 l 569 514 q 552 572 565 554 q 513 589 539 589 l 513 590 m 472 -172 l 296 -422 l 217 -422 l 254 -258 l 140 -185 l 175 -115 l 472 -115 l 472 -172 z "},"s":{"ha":776,"x_min":104,"x_max":694,"o":"m 500 161 q 459 225 500 194 q 335 300 418 256 q 168 405 226 358 q 110 514 110 451 q 154 621 110 564 q 263 717 199 678 q 382 756 328 756 q 537 740 449 756 q 665 704 625 724 l 665 483 l 599 483 q 502 607 558 563 q 388 651 446 651 q 328 631 350 651 q 306 582 306 611 q 348 513 306 544 q 476 435 390 481 q 591 369 549 396 q 664 306 633 342 q 694 228 694 271 q 648 120 694 176 q 535 25 601 64 q 414 -14 469 -14 q 244 2 342 -14 q 104 38 146 18 l 104 263 l 171 263 q 281 135 217 181 q 411 90 346 90 q 475 111 450 90 q 500 161 500 132 z "},"ś":{"ha":776,"x_min":104,"x_max":699,"o":"m 500 161 q 459 225 500 194 q 335 300 418 256 q 168 405 226 358 q 110 514 110 451 q 154 621 110 564 q 263 717 199 678 q 382 756 328 756 q 537 740 449 756 q 665 704 625 724 l 665 483 l 599 483 q 502 607 558 563 q 388 651 446 651 q 328 631 350 651 q 306 582 306 611 q 348 513 306 544 q 476 435 390 481 q 591 369 549 396 q 664 306 633 342 q 694 228 694 271 q 648 120 694 176 q 535 25 601 64 q 414 -14 469 -14 q 244 2 342 -14 q 104 38 146 18 l 104 263 l 171 263 q 281 135 217 181 q 411 90 346 90 q 475 111 450 90 q 500 161 500 132 m 699 1165 l 371 935 l 306 967 l 454 1239 l 668 1213 l 699 1165 z "},"š":{"ha":776,"x_min":75,"x_max":726,"o":"m 500 161 q 459 225 500 194 q 335 300 418 256 q 168 405 226 358 q 110 514 110 451 q 154 621 110 564 q 263 717 199 678 q 382 756 328 756 q 537 740 449 756 q 665 704 625 724 l 665 483 l 599 483 q 502 607 558 563 q 388 651 446 651 q 328 631 350 651 q 306 582 306 611 q 348 513 306 544 q 476 435 390 481 q 591 369 549 396 q 664 306 633 342 q 694 228 694 271 q 648 120 694 176 q 535 25 601 64 q 414 -14 469 -14 q 244 2 342 -14 q 104 38 146 18 l 104 263 l 171 263 q 281 135 217 181 q 411 90 346 90 q 475 111 450 90 q 500 161 500 132 m 408 929 l 75 1165 l 104 1213 l 308 1239 l 450 1060 l 681 1231 l 726 1165 l 408 929 z "},"ş":{"ha":776,"x_min":104,"x_max":694,"o":"m 692 229 q 649 125 692 181 q 544 32 607 69 q 426 -71 508 -1 q 522 -155 496 -121 q 547 -228 547 -189 q 478 -326 547 -292 q 267 -368 410 -361 l 267 -311 q 353 -265 325 -292 q 382 -201 382 -239 q 363 -149 382 -172 q 294 -94 343 -126 l 392 -14 q 231 4 319 -11 q 104 38 143 19 l 104 263 l 171 263 q 281 135 217 181 q 411 90 346 90 q 475 111 450 90 q 500 161 500 132 q 459 225 500 194 q 335 300 418 256 q 168 405 226 358 q 110 514 110 451 q 154 621 110 564 q 263 717 199 678 q 382 756 328 756 q 537 740 449 756 q 665 704 625 724 l 665 483 l 599 483 q 502 607 558 563 q 388 651 446 651 q 328 631 350 651 q 306 582 306 611 q 348 513 306 544 q 476 435 390 481 q 591 369 549 396 q 664 306 633 342 q 694 228 694 271 l 692 229 z "},"ș":{"ha":776,"x_min":104,"x_max":694,"o":"m 500 161 q 459 225 500 194 q 335 300 418 256 q 168 405 226 358 q 110 514 110 451 q 154 621 110 564 q 263 717 199 678 q 382 756 328 756 q 537 740 449 756 q 665 704 625 724 l 665 483 l 599 483 q 502 607 558 563 q 388 651 446 651 q 328 631 350 651 q 306 582 306 611 q 348 513 306 544 q 476 435 390 481 q 591 369 549 396 q 664 306 633 342 q 694 228 694 271 q 648 120 694 176 q 535 25 601 64 q 414 -14 469 -14 q 244 2 342 -14 q 104 38 146 18 l 104 263 l 171 263 q 281 135 217 181 q 411 90 346 90 q 475 111 450 90 q 500 161 500 132 m 563 -172 l 386 -422 l 307 -422 l 344 -258 l 231 -185 l 265 -115 l 563 -115 l 563 -172 z "},"ß":{"ha":1103,"x_min":35,"x_max":1021,"o":"m 699 661 q 735 574 699 613 q 846 483 772 536 q 938 412 904 442 q 997 342 972 382 q 1021 256 1021 303 q 978 136 1021 200 q 874 29 935 72 q 761 -14 813 -14 q 621 -2 701 -14 q 507 24 540 10 l 507 249 l 574 249 q 663 132 610 174 q 768 90 717 90 q 817 117 799 90 q 836 182 836 144 q 803 253 836 219 q 701 336 771 286 q 565 452 613 400 q 517 574 517 504 q 543 663 517 624 q 622 761 569 703 q 688 838 667 808 q 708 901 708 868 q 679 983 708 936 q 606 1063 650 1029 q 515 1096 561 1096 q 424 1042 456 1096 q 393 886 393 989 l 393 0 l 75 0 l 75 57 l 199 154 l 199 629 l 35 629 l 35 700 l 199 700 l 199 819 q 261 1021 199 926 q 419 1171 324 1115 q 603 1226 514 1226 q 727 1191 656 1226 q 850 1101 799 1156 q 901 993 901 1047 q 874 900 901 940 q 792 807 846 860 q 722 731 744 763 q 699 661 699 700 z "},"ſ":{"ha":638,"x_min":35,"x_max":758,"o":"m 583 1226 q 681 1217 626 1226 q 758 1196 735 1207 l 758 968 l 692 968 q 608 1060 658 1026 q 507 1094 558 1094 q 418 1043 449 1094 q 388 893 388 992 l 388 128 l 589 69 l 554 0 l 69 0 l 69 57 l 193 157 l 193 629 l 35 629 l 35 700 l 193 700 l 193 818 q 253 1020 193 926 q 406 1170 314 1114 q 583 1226 497 1226 z "},"t":{"ha":654,"x_min":17,"x_max":635,"o":"m 494 -3 q 403 -14 457 -14 q 223 47 279 -14 q 167 233 167 107 l 167 629 l 17 629 l 17 693 l 294 1007 l 361 1007 l 361 700 l 611 700 l 611 629 l 361 629 l 361 228 q 388 147 361 172 q 469 122 415 122 q 526 133 499 122 q 593 172 553 143 l 635 108 l 494 -3 z "},"ŧ":{"ha":654,"x_min":17,"x_max":635,"o":"m 494 -3 q 403 -14 457 -14 q 223 47 279 -14 q 167 233 167 107 l 167 629 l 17 629 l 17 693 l 294 1007 l 361 1007 l 361 700 l 611 700 l 611 629 l 361 629 l 361 228 q 388 147 361 172 q 469 122 415 122 q 526 133 499 122 q 593 172 553 143 l 635 108 l 494 -3 m 314 522 l 314 522 l 314 522 l 314 522 l 314 522 z "},"ť":{"ha":654,"x_min":17,"x_max":706,"o":"m 494 -3 q 403 -14 457 -14 q 223 47 279 -14 q 167 233 167 107 l 167 629 l 17 629 l 17 693 l 294 1007 l 361 1007 l 361 700 l 611 700 l 611 629 l 361 629 l 361 228 q 388 147 361 172 q 469 122 415 122 q 526 133 499 122 q 593 172 553 143 l 635 108 l 494 -3 m 706 992 l 543 793 l 476 846 q 535 1036 535 946 l 472 1088 l 472 1144 l 640 1213 l 706 1213 l 706 992 z "},"ţ":{"ha":654,"x_min":15,"x_max":633,"o":"m 413 -69 q 508 -153 482 -119 q 533 -226 533 -187 q 465 -325 533 -290 q 253 -367 396 -360 l 253 -310 q 340 -264 311 -290 q 368 -200 368 -237 q 349 -148 368 -171 q 281 -93 329 -125 l 378 -12 q 216 53 267 -7 q 165 233 165 113 l 165 629 l 15 629 l 15 693 l 293 1007 l 360 1007 l 360 700 l 610 700 l 610 629 l 360 629 l 360 228 q 387 147 360 172 q 468 122 414 122 q 524 133 497 122 q 592 172 551 143 l 633 108 l 506 7 l 415 -69 l 413 -69 z "},"ț":{"ha":654,"x_min":17,"x_max":635,"o":"m 494 -3 q 403 -14 457 -14 q 223 47 279 -14 q 167 233 167 107 l 167 629 l 17 629 l 17 693 l 294 1007 l 361 1007 l 361 700 l 611 700 l 611 629 l 361 629 l 361 228 q 388 147 361 172 q 469 122 415 122 q 526 133 499 122 q 593 172 553 143 l 635 108 l 494 -3 m 549 -172 l 372 -422 l 293 -422 l 331 -258 l 217 -185 l 251 -115 l 549 -115 l 549 -172 z "},"u":{"ha":982,"x_min":39,"x_max":943,"o":"m 908 0 l 624 0 l 624 135 l 458 -3 q 378 -14 429 -14 q 221 44 279 -14 q 163 200 163 101 l 163 518 l 39 590 l 39 647 l 290 765 l 357 765 l 357 283 q 379 181 357 210 q 457 153 401 153 q 535 167 496 153 q 624 219 574 181 l 624 518 l 500 590 l 500 647 l 751 765 l 818 765 l 818 115 l 943 69 l 908 0 z "},"ú":{"ha":982,"x_min":39,"x_max":943,"o":"m 908 0 l 624 0 l 624 135 l 458 -3 q 378 -14 429 -14 q 221 44 279 -14 q 163 200 163 101 l 163 518 l 39 590 l 39 647 l 290 765 l 357 765 l 357 283 q 379 181 357 210 q 457 153 401 153 q 535 167 496 153 q 624 219 574 181 l 624 518 l 500 590 l 500 647 l 751 765 l 818 765 l 818 115 l 943 69 l 908 0 m 796 1165 l 468 935 l 403 967 l 551 1239 l 765 1213 l 796 1165 z "},"û":{"ha":982,"x_min":39,"x_max":943,"o":"m 908 0 l 624 0 l 624 135 l 458 -3 q 378 -14 429 -14 q 221 44 279 -14 q 163 200 163 101 l 163 518 l 39 590 l 39 647 l 290 765 l 357 765 l 357 283 q 379 181 357 210 q 457 153 401 153 q 535 167 496 153 q 624 219 574 181 l 624 518 l 500 590 l 500 647 l 751 765 l 818 765 l 818 115 l 943 69 l 908 0 m 799 944 l 596 918 l 453 1097 l 222 926 l 176 992 l 494 1228 l 829 992 l 799 944 z "},"ü":{"ha":982,"x_min":39,"x_max":943,"o":"m 292 949 q 222 981 250 949 q 193 1058 193 1013 q 213 1121 193 1092 q 263 1167 233 1150 q 322 1185 293 1185 q 393 1153 365 1185 q 421 1074 421 1121 q 401 1012 421 1040 q 350 966 381 983 q 292 949 319 949 m 681 949 q 610 981 639 949 q 582 1058 582 1013 q 602 1121 582 1092 q 652 1167 622 1150 q 711 1185 682 1185 q 782 1153 754 1185 q 810 1074 810 1121 q 790 1012 810 1040 q 739 966 769 983 q 681 949 708 949 m 908 0 l 624 0 l 624 135 l 458 -3 q 378 -14 429 -14 q 221 44 279 -14 q 163 200 163 101 l 163 518 l 39 590 l 39 647 l 290 765 l 357 765 l 357 283 q 379 181 357 210 q 457 153 401 153 q 535 167 496 153 q 624 219 574 181 l 624 518 l 500 590 l 500 647 l 751 765 l 818 765 l 818 115 l 943 69 l 908 0 z "},"ù":{"ha":982,"x_min":39,"x_max":943,"o":"m 908 0 l 624 0 l 624 135 l 458 -3 q 378 -14 429 -14 q 221 44 279 -14 q 163 200 163 101 l 163 518 l 39 590 l 39 647 l 290 765 l 357 765 l 357 283 q 379 181 357 210 q 457 153 401 153 q 535 167 496 153 q 624 219 574 181 l 624 518 l 500 590 l 500 647 l 751 765 l 818 765 l 818 115 l 943 69 l 908 0 m 533 935 l 207 1165 l 236 1213 l 450 1239 l 599 967 l 533 935 z "},"ű":{"ha":982,"x_min":39,"x_max":943,"o":"m 908 0 l 624 0 l 624 135 l 458 -3 q 378 -14 429 -14 q 221 44 279 -14 q 163 200 163 101 l 163 518 l 39 590 l 39 647 l 290 765 l 357 765 l 357 283 q 379 181 357 210 q 457 153 401 153 q 535 167 496 153 q 624 219 574 181 l 624 518 l 500 590 l 500 647 l 751 765 l 818 765 l 818 115 l 943 69 l 908 0 m 564 1165 l 293 935 l 228 967 l 332 1239 l 535 1213 l 564 1165 m 936 1165 l 664 935 l 599 967 l 703 1239 l 906 1213 l 936 1165 z "},"ū":{"ha":982,"x_min":39,"x_max":943,"o":"m 908 0 l 624 0 l 624 135 l 458 -3 q 378 -14 429 -14 q 221 44 279 -14 q 163 200 163 101 l 163 518 l 39 590 l 39 647 l 290 765 l 357 765 l 357 283 q 379 181 357 210 q 457 153 401 153 q 535 167 496 153 q 624 219 574 181 l 624 518 l 500 590 l 500 647 l 751 765 l 818 765 l 818 115 l 943 69 l 908 0 m 196 1110 l 804 1110 l 804 1035 l 196 1035 l 196 1110 z "},"ų":{"ha":982,"x_min":39,"x_max":943,"o":"m 910 0 q 834 -91 857 -56 q 811 -154 811 -126 q 826 -192 811 -179 q 875 -211 842 -206 l 875 -278 l 763 -367 q 613 -210 613 -325 q 624 -153 613 -175 l 815 0 l 624 0 l 624 135 l 458 -3 q 378 -14 429 -14 q 221 44 279 -14 q 163 200 163 101 l 163 518 l 39 590 l 39 647 l 290 765 l 357 765 l 357 283 q 379 181 357 210 q 457 153 401 153 q 535 167 496 153 q 624 219 574 181 l 624 518 l 500 590 l 500 647 l 751 765 l 818 765 l 818 115 l 943 69 l 908 0 l 910 0 z "},"ů":{"ha":982,"x_min":39,"x_max":943,"o":"m 908 0 l 624 0 l 624 135 l 458 -3 q 378 -14 429 -14 q 221 44 279 -14 q 163 200 163 101 l 163 518 l 39 590 l 39 647 l 290 765 l 357 765 l 357 283 q 379 181 357 210 q 457 153 401 153 q 535 167 496 153 q 624 219 574 181 l 624 518 l 500 590 l 500 647 l 751 765 l 818 765 l 818 115 l 943 69 l 908 0 m 549 1231 q 667 1190 619 1231 q 715 1090 715 1149 q 674 998 715 1042 q 572 928 633 954 q 450 903 510 903 q 331 943 379 903 q 283 1042 283 983 q 324 1134 283 1090 q 427 1204 365 1178 q 549 1231 489 1231 m 468 1158 q 401 1106 401 1158 q 435 1011 401 1049 q 531 974 469 974 q 580 988 563 974 q 597 1029 597 1003 q 564 1122 597 1085 q 468 1158 531 1158 z "},"v":{"ha":878,"x_min":3,"x_max":835,"o":"m 835 685 l 481 0 l 347 0 l 135 518 l 3 594 l 3 651 l 268 768 l 321 558 l 483 163 l 668 538 l 476 672 l 511 742 l 835 742 l 835 685 z "},"w":{"ha":1281,"x_min":1,"x_max":1235,"o":"m 1235 685 l 919 0 l 786 0 l 650 332 l 479 0 l 346 0 l 133 518 l 1 594 l 1 651 l 267 768 l 319 558 l 482 164 l 610 431 l 574 518 l 442 594 l 442 651 l 707 768 l 760 558 l 918 174 l 1076 532 l 878 672 l 913 742 l 1235 742 l 1235 685 z "},"ẃ":{"ha":1281,"x_min":1,"x_max":1235,"o":"m 1235 685 l 919 0 l 786 0 l 650 332 l 479 0 l 346 0 l 133 518 l 1 594 l 1 651 l 267 768 l 319 558 l 482 164 l 610 431 l 574 518 l 442 594 l 442 651 l 707 768 l 760 558 l 918 174 l 1076 532 l 878 672 l 913 742 l 1235 742 l 1235 685 m 935 1165 l 607 935 l 542 967 l 690 1239 l 904 1213 l 935 1165 z "},"ŵ":{"ha":1281,"x_min":1,"x_max":1235,"o":"m 1235 685 l 919 0 l 786 0 l 650 332 l 479 0 l 346 0 l 133 518 l 1 594 l 1 651 l 267 768 l 319 558 l 482 164 l 610 431 l 574 518 l 442 594 l 442 651 l 707 768 l 760 558 l 918 174 l 1076 532 l 878 672 l 913 742 l 1235 742 l 1235 685 m 938 944 l 735 918 l 592 1097 l 361 926 l 315 992 l 633 1228 l 968 992 l 938 944 z "},"ẅ":{"ha":1281,"x_min":1,"x_max":1235,"o":"m 431 949 q 360 981 389 949 q 332 1058 332 1013 q 352 1121 332 1092 q 402 1167 372 1150 q 461 1185 432 1185 q 532 1153 504 1185 q 560 1074 560 1121 q 540 1012 560 1040 q 489 966 519 983 q 431 949 458 949 m 819 949 q 749 981 778 949 q 721 1058 721 1013 q 741 1121 721 1092 q 791 1167 761 1150 q 850 1185 821 1185 q 921 1153 893 1185 q 949 1074 949 1121 q 928 1012 949 1040 q 878 966 908 983 q 819 949 847 949 m 1235 685 l 919 0 l 786 0 l 650 332 l 479 0 l 346 0 l 133 518 l 1 594 l 1 651 l 267 768 l 319 558 l 482 164 l 610 431 l 574 518 l 442 594 l 442 651 l 707 768 l 760 558 l 918 174 l 1076 532 l 878 672 l 913 742 l 1235 742 l 1235 685 z "},"ẁ":{"ha":1281,"x_min":1,"x_max":1235,"o":"m 1235 685 l 919 0 l 786 0 l 650 332 l 479 0 l 346 0 l 133 518 l 1 594 l 1 651 l 267 768 l 319 558 l 482 164 l 610 431 l 574 518 l 442 594 l 442 651 l 707 768 l 760 558 l 918 174 l 1076 532 l 878 672 l 913 742 l 1235 742 l 1235 685 m 672 935 l 346 1165 l 375 1213 l 589 1239 l 738 967 l 672 935 z "},"x":{"ha":883,"x_min":19,"x_max":864,"o":"m 829 0 l 597 0 l 389 285 l 246 151 l 374 68 l 339 -1 l 28 -1 l 28 56 l 340 347 l 146 600 l 19 672 l 54 742 l 285 742 l 494 463 l 631 589 l 503 671 l 538 740 l 849 740 l 849 683 l 540 397 l 731 150 l 864 69 l 829 0 z "},"y":{"ha":878,"x_min":3,"x_max":835,"o":"m 835 683 l 481 -1 l 176 -368 l 110 -317 q 226 -168 185 -232 q 284 -40 267 -104 q 303 108 301 25 l 135 517 l 3 594 l 3 651 l 268 768 l 321 558 l 483 163 l 668 538 l 476 672 l 511 742 l 835 740 l 835 683 z "},"ý":{"ha":878,"x_min":3,"x_max":835,"o":"m 835 683 l 481 -1 l 176 -368 l 110 -317 q 226 -168 185 -232 q 284 -40 267 -104 q 303 108 301 25 l 135 517 l 3 594 l 3 651 l 268 768 l 321 558 l 483 163 l 668 538 l 476 672 l 511 742 l 835 740 l 835 683 m 724 1165 l 396 935 l 331 967 l 479 1239 l 693 1213 l 724 1165 z "},"ŷ":{"ha":878,"x_min":3,"x_max":835,"o":"m 835 683 l 481 -1 l 176 -368 l 110 -317 q 226 -168 185 -232 q 284 -40 267 -104 q 303 108 301 25 l 135 517 l 3 594 l 3 651 l 268 768 l 321 558 l 483 163 l 668 538 l 476 672 l 511 742 l 835 740 l 835 683 m 726 944 l 524 918 l 381 1097 l 150 926 l 104 992 l 422 1228 l 757 992 l 726 944 z "},"ÿ":{"ha":878,"x_min":3,"x_max":835,"o":"m 218 949 q 148 981 176 949 q 119 1058 119 1013 q 140 1121 119 1092 q 190 1167 160 1150 q 249 1185 219 1185 q 319 1153 292 1185 q 347 1074 347 1121 q 327 1012 347 1040 q 276 966 307 983 q 218 949 246 949 m 607 949 q 537 981 565 949 q 508 1058 508 1013 q 528 1121 508 1092 q 578 1167 549 1150 q 638 1185 608 1185 q 708 1153 681 1185 q 736 1074 736 1121 q 716 1012 736 1040 q 665 966 696 983 q 607 949 635 949 m 835 683 l 481 -1 l 176 -368 l 110 -317 q 226 -168 185 -232 q 284 -40 267 -104 q 303 108 301 25 l 135 517 l 3 594 l 3 651 l 268 768 l 321 558 l 483 163 l 668 538 l 476 672 l 511 742 l 835 740 l 835 683 z "},"ỳ":{"ha":878,"x_min":3,"x_max":835,"o":"m 835 683 l 481 -1 l 176 -368 l 110 -317 q 226 -168 185 -232 q 284 -40 267 -104 q 303 108 301 25 l 135 517 l 3 594 l 3 651 l 268 768 l 321 558 l 483 163 l 668 538 l 476 672 l 511 742 l 835 740 l 835 683 m 461 935 l 135 1165 l 164 1213 l 378 1239 l 526 967 l 461 935 z "},"z":{"ha":868,"x_min":96,"x_max":774,"o":"m 644 194 l 704 313 l 760 294 l 760 -25 l 669 0 l 96 0 l 96 67 l 547 547 l 221 547 l 165 444 l 110 461 l 110 767 l 200 742 l 774 742 l 774 675 l 325 194 l 644 194 z "},"ź":{"ha":868,"x_min":96,"x_max":774,"o":"m 644 194 l 704 313 l 760 294 l 760 -25 l 669 0 l 96 0 l 96 67 l 547 547 l 221 547 l 165 444 l 110 461 l 110 767 l 200 742 l 774 742 l 774 675 l 325 194 l 644 194 m 739 1165 l 411 935 l 346 967 l 494 1239 l 708 1213 l 739 1165 z "},"ž":{"ha":868,"x_min":96,"x_max":774,"o":"m 644 194 l 704 313 l 760 294 l 760 -25 l 669 0 l 96 0 l 96 67 l 547 547 l 221 547 l 165 444 l 110 461 l 110 767 l 200 742 l 774 742 l 774 675 l 325 194 l 644 194 m 449 929 l 115 1165 l 144 1213 l 349 1239 l 490 1060 l 721 1231 l 767 1165 l 449 929 z "},"ż":{"ha":868,"x_min":96,"x_max":774,"o":"m 644 194 l 704 313 l 760 294 l 760 -25 l 669 0 l 96 0 l 96 67 l 547 547 l 221 547 l 165 444 l 110 461 l 110 767 l 200 742 l 774 742 l 774 675 l 325 194 l 644 194 m 458 1186 q 539 1152 507 1186 q 571 1068 571 1118 q 548 1002 571 1033 q 491 953 525 971 q 425 935 457 935 q 344 968 376 935 q 313 1051 313 1001 q 335 1118 313 1088 q 392 1167 358 1149 q 458 1186 426 1186 z "},"ﬁ":{"ha":1100,"x_min":35,"x_max":1063,"o":"m 1028 0 l 743 0 l 743 542 l 629 629 l 386 629 l 386 128 l 588 69 l 553 0 l 68 0 l 68 57 l 192 157 l 192 629 l 35 629 l 35 700 l 192 700 l 192 818 q 252 1020 192 926 q 404 1170 313 1114 q 582 1226 496 1226 q 755 1210 658 1226 q 886 1174 851 1193 q 933 1130 917 1157 q 949 1068 949 1103 q 926 1002 949 1033 q 869 953 903 971 q 803 935 835 935 q 701 999 738 935 q 631 1076 669 1058 q 507 1094 592 1094 q 417 1043 447 1094 q 386 893 386 992 l 386 700 l 643 700 l 871 768 l 938 768 l 938 115 l 1063 69 l 1028 0 z "},"ﬂ":{"ha":1100,"x_min":35,"x_max":1063,"o":"m 1028 0 l 743 0 l 743 1003 q 651 1069 708 1044 q 538 1094 593 1094 q 429 1041 472 1094 q 386 893 386 988 l 386 700 l 631 700 l 631 629 l 386 629 l 386 128 l 588 69 l 553 0 l 68 0 l 68 57 l 192 157 l 192 629 l 35 629 l 35 700 l 192 700 l 192 818 q 259 1020 192 926 q 428 1170 326 1114 q 624 1226 529 1226 q 878 1213 747 1226 l 938 1213 l 938 115 l 1063 69 l 1028 0 z "},"ª":{"ha":769,"x_min":75,"x_max":743,"o":"m 712 576 l 470 576 l 470 667 l 337 574 q 278 566 313 566 q 124 612 172 566 q 76 724 76 659 q 106 800 76 763 q 192 870 136 837 l 470 870 l 470 918 q 326 1037 470 1037 q 133 967 251 1037 l 97 1014 l 265 1132 q 389 1143 315 1143 q 571 1094 506 1143 q 636 951 636 1045 l 636 665 l 742 628 l 712 576 m 324 675 q 470 728 390 675 l 470 817 l 268 817 q 245 757 245 792 q 267 699 245 722 q 324 675 289 675 z "},"º":{"ha":831,"x_min":89,"x_max":740,"o":"m 456 1143 q 603 1107 538 1143 q 704 1010 668 1071 q 740 873 740 948 q 682 721 740 792 q 539 608 625 650 q 373 566 453 566 q 227 602 291 566 q 126 700 162 638 q 89 837 89 762 q 146 988 89 918 q 290 1101 204 1059 q 456 1143 376 1143 m 388 1043 q 299 1003 329 1043 q 269 887 269 964 q 314 730 269 792 q 441 667 358 667 q 561 824 561 667 q 517 981 561 918 q 388 1043 472 1043 z "},"Δ":{"ha":1207,"x_min":76,"x_max":1121,"o":"m 1121 0 l 76 0 l 76 57 l 501 1047 l 683 1118 l 1121 63 l 1121 0 m 549 929 l 188 81 l 899 81 l 549 929 z "},"Ω":{"ha":1311,"x_min":90,"x_max":1221,"o":"m 1193 261 l 1193 -24 l 1108 1 l 704 1 l 704 401 q 853 438 786 404 q 960 527 921 471 q 999 651 999 583 q 958 822 999 746 q 833 943 917 899 q 625 988 750 988 q 466 954 538 988 q 353 863 394 921 q 313 735 313 806 q 388 515 313 608 q 608 401 463 422 l 608 1 l 203 1 l 118 -24 l 118 261 l 174 282 l 351 82 l 438 82 l 438 282 q 186 424 282 319 q 90 667 90 528 q 188 893 90 789 q 430 1058 285 997 q 706 1119 575 1119 q 974 1067 857 1119 q 1156 922 1092 1014 q 1221 715 1221 831 q 1120 487 1221 592 q 874 322 1019 382 l 874 81 l 960 81 l 1138 282 l 1193 261 z "},"μ":{"ha":971,"x_min":81,"x_max":897,"o":"m 817 253 q 839 169 817 215 q 897 83 861 124 l 689 -12 l 622 -12 l 622 136 l 457 -1 q 376 -12 428 -12 l 356 -12 l 356 -87 q 377 -170 354 -124 q 436 -257 400 -217 l 228 -353 l 161 -353 l 161 500 q 139 583 161 538 q 81 669 117 629 l 289 765 l 356 765 l 356 283 q 378 181 356 210 q 456 153 400 153 q 533 167 494 153 q 622 219 572 181 l 622 500 q 600 583 622 538 q 542 669 578 629 l 750 765 l 817 765 l 817 253 z "},"π":{"ha":1092,"x_min":0,"x_max":1019,"o":"m 844 242 q 867 158 844 204 q 925 72 889 113 l 744 -14 l 678 -14 l 678 546 l 475 546 l 475 0 l 228 0 l 228 57 q 286 143 264 97 q 308 226 308 189 l 308 546 l 253 546 q 50 492 160 546 l 0 572 l 214 742 l 1019 742 l 1019 546 l 844 546 l 844 242 z "},"ॲ":{"ha":1446,"x_min":114,"x_max":1718,"o":"m 1354 931 l 1354 -12 l 1288 -12 l 1110 124 l 1160 183 l 1160 453 q 1068 405 1115 419 q 963 390 1021 390 q 840 408 899 390 l 840 404 q 800 303 842 353 q 692 221 758 253 q 557 189 625 189 q 496 192 532 189 q 440 200 460 196 l 114 453 l 164 515 l 243 454 q 367 378 308 403 q 483 353 425 353 q 597 388 550 356 q 643 468 643 421 q 599 550 643 507 q 454 653 554 593 l 454 719 q 554 793 519 750 q 589 888 589 836 q 572 943 589 924 q 522 963 554 963 q 414 927 475 963 q 293 831 353 892 l 158 926 l 158 993 q 294 1078 219 1047 q 436 1108 369 1108 q 598 1062 515 1108 q 735 944 681 1015 q 789 807 789 874 q 754 700 789 751 q 658 613 719 649 q 717 571 689 592 q 865 518 801 518 q 1010 567 940 518 q 1158 722 1081 617 l 1158 929 l 981 929 l 847 1025 l 847 1092 l 1450 1092 l 1583 996 l 1585 931 l 1354 931 m 1040 1625 q 1031 1538 1031 1582 q 1077 1452 1031 1479 q 1219 1425 1124 1425 q 1408 1483 1333 1425 q 1507 1640 1482 1540 l 1560 1693 l 1718 1575 q 1647 1432 1703 1496 q 1501 1332 1590 1368 q 1304 1296 1413 1296 q 1074 1339 1188 1296 q 890 1451 961 1382 q 819 1590 819 1519 q 831 1685 819 1638 l 881 1746 l 1040 1625 z "},"ऄ":{"ha":1446,"x_min":-233,"x_max":1586,"o":"m 1354 931 l 1354 -12 l 1288 -12 l 1110 124 l 1160 183 l 1160 453 q 1068 405 1115 419 q 963 390 1021 390 q 840 408 899 390 l 840 404 q 800 303 842 353 q 692 221 758 253 q 557 189 625 189 q 496 192 532 189 q 440 200 460 196 l 114 453 l 164 515 l 243 454 q 367 378 308 403 q 483 353 425 353 q 597 388 550 356 q 643 468 643 421 q 599 550 643 507 q 454 653 554 593 l 454 719 q 554 793 519 750 q 589 888 589 836 q 572 943 589 924 q 522 963 554 963 q 414 927 475 963 q 293 831 353 892 l 158 926 l 158 993 q 294 1078 219 1047 q 436 1108 369 1108 q 598 1062 515 1108 q 735 944 681 1015 q 789 807 789 874 q 754 700 789 751 q 658 613 719 649 q 717 571 689 592 q 865 518 801 518 q 1010 567 940 518 q 1158 722 1081 617 l 1158 929 l 981 929 l 847 1025 l 847 1092 l 1160 1092 l 965 1257 q 833 1338 899 1314 q 692 1363 768 1363 q 619 1358 651 1363 q 540 1346 588 1354 q 382 1328 453 1328 q 188 1364 272 1328 q -7 1493 103 1400 l -233 1685 l -181 1744 l -3 1594 q 129 1515 64 1539 q 271 1490 194 1490 q 343 1494 311 1490 q 422 1507 375 1499 q 581 1525 510 1525 q 775 1489 690 1525 q 969 1358 860 1453 l 1283 1092 l 1450 1092 l 1585 996 l 1586 931 l 1354 931 z "},"अ":{"ha":1446,"x_min":114,"x_max":1585,"o":"m 1354 931 l 1354 -12 l 1288 -12 l 1110 124 l 1160 183 l 1160 453 q 1068 405 1115 419 q 963 390 1021 390 q 840 408 899 390 l 840 404 q 800 303 842 353 q 692 221 758 253 q 557 189 625 189 q 496 192 532 189 q 440 200 460 196 l 114 453 l 164 515 l 243 454 q 367 378 308 403 q 483 353 425 353 q 597 388 550 356 q 643 468 643 421 q 599 550 643 507 q 454 653 554 593 l 454 719 q 554 793 519 750 q 589 888 589 836 q 572 943 589 924 q 522 963 554 963 q 414 927 475 963 q 293 831 353 892 l 158 926 l 158 993 q 294 1078 219 1047 q 436 1108 369 1108 q 598 1062 515 1108 q 735 944 681 1015 q 789 807 789 874 q 754 700 789 751 q 658 613 719 649 q 717 571 689 592 q 865 518 801 518 q 1010 567 940 518 q 1158 722 1081 617 l 1158 929 l 981 929 l 847 1025 l 847 1092 l 1450 1092 l 1583 996 l 1585 931 l 1354 931 z "},"आ":{"ha":1913,"x_min":114,"x_max":2051,"o":"m 1819 931 l 1819 -12 l 1753 -12 l 1575 124 l 1625 183 l 1625 931 l 1354 931 l 1354 -12 l 1288 -12 l 1110 124 l 1160 183 l 1160 453 q 1068 405 1115 419 q 963 390 1021 390 q 840 408 899 390 l 840 404 q 800 303 842 353 q 692 221 758 253 q 557 189 625 189 q 496 192 532 189 q 440 200 460 196 l 114 453 l 164 515 l 243 454 q 367 378 308 403 q 483 353 425 353 q 597 388 550 356 q 643 468 643 421 q 599 550 643 507 q 454 653 554 593 l 454 719 q 554 793 519 750 q 589 888 589 836 q 572 943 589 924 q 522 963 554 963 q 414 927 475 963 q 293 831 353 892 l 158 926 l 158 993 q 294 1078 219 1047 q 436 1108 369 1108 q 598 1062 515 1108 q 735 944 681 1015 q 789 807 789 874 q 754 700 789 751 q 658 613 719 649 q 717 571 689 592 q 865 518 801 518 q 1010 567 940 518 q 1158 722 1081 617 l 1158 929 l 981 929 l 847 1025 l 847 1092 l 1915 1092 l 2050 996 l 2051 931 l 1819 931 z "},"इ":{"ha":1031,"x_min":-96,"x_max":1260,"o":"m 556 661 q 457 629 497 661 q 417 551 417 597 q 428 510 417 529 q 468 471 440 492 q 568 517 528 503 q 642 531 608 531 q 812 481 722 531 q 961 359 901 432 q 1021 219 1021 286 q 953 113 1021 168 q 783 22 886 58 q 583 -14 681 -14 q 521 -10 553 -14 l 661 -119 q 926 -206 771 -206 q 1060 -190 989 -206 l 1188 -283 l 1188 -350 q 1035 -367 1111 -367 q 843 -331 928 -367 q 644 -207 758 -296 l 278 78 q 138 202 190 132 q 85 342 85 272 q 104 415 85 390 q 157 439 124 439 q 369 192 269 439 q 547 150 449 150 q 678 172 615 150 q 781 228 742 194 q 819 299 819 263 q 795 348 819 325 q 743 371 771 371 q 603 315 685 371 q 417 381 506 328 q 274 503 328 433 q 219 632 219 572 q 253 726 219 682 q 344 797 288 771 q 464 824 400 824 l 689 824 l 689 929 l 39 929 l -96 1025 l -96 1092 l 1125 1092 l 1260 996 l 1260 929 l 883 929 l 883 661 l 556 661 z "},"ई":{"ha":1031,"x_min":-96,"x_max":1260,"o":"m 556 661 q 457 629 497 661 q 417 551 417 597 q 428 510 417 529 q 468 471 440 492 q 568 517 528 503 q 642 531 608 531 q 812 481 722 531 q 961 359 901 432 q 1021 219 1021 286 q 953 113 1021 168 q 783 22 886 58 q 583 -14 681 -14 q 521 -10 553 -14 l 661 -119 q 926 -206 771 -206 q 1060 -190 989 -206 l 1188 -283 l 1188 -350 q 1035 -367 1111 -367 q 843 -331 928 -367 q 644 -207 758 -296 l 278 78 q 138 202 190 132 q 85 342 85 272 q 104 415 85 390 q 157 439 124 439 q 369 192 269 439 q 547 150 449 150 q 678 172 615 150 q 781 228 742 194 q 819 299 819 263 q 795 348 819 325 q 743 371 771 371 q 603 315 685 371 q 417 381 506 328 q 274 503 328 433 q 219 632 219 572 q 253 726 219 682 q 344 797 288 771 q 464 824 400 824 l 689 824 l 689 929 l 39 929 l -96 1025 l -96 1092 l 706 1092 l 453 1306 q 442 1426 442 1360 q 485 1601 442 1525 q 608 1718 528 1676 q 794 1760 688 1760 q 918 1749 861 1760 l 1129 1582 l 1088 1518 q 956 1588 1013 1567 q 847 1608 899 1608 q 705 1546 757 1608 q 653 1381 653 1483 q 761 1150 653 1240 l 829 1092 l 1125 1092 l 1260 996 l 1260 929 l 883 929 l 883 661 l 556 661 z "},"उ":{"ha":872,"x_min":-124,"x_max":972,"o":"m 603 928 q 666 836 643 885 q 689 739 689 788 q 654 624 689 676 q 558 543 619 572 q 801 376 717 458 q 886 221 886 294 q 835 115 886 171 q 706 22 783 60 q 558 -15 629 -15 q 432 -4 479 -15 l 42 306 l 93 368 l 231 256 q 363 174 299 200 q 500 149 426 149 q 592 168 549 149 q 661 218 635 188 q 688 282 688 249 q 656 359 688 322 q 542 445 624 396 q 303 572 460 494 l 303 639 q 386 679 344 650 q 453 745 428 708 q 479 813 479 782 q 425 929 479 901 l 11 929 l -124 1025 l -124 1092 l 836 1092 l 971 996 l 972 928 l 603 928 z "},"ऊ":{"ha":1514,"x_min":-124,"x_max":1635,"o":"m 603 926 q 666 835 643 883 q 689 738 689 786 q 654 623 689 675 q 558 542 619 571 l 618 508 l 643 540 q 746 660 703 617 q 850 731 789 703 q 999 758 911 758 q 1178 713 1086 758 q 1333 592 1271 668 q 1394 428 1394 515 q 1360 316 1394 367 q 1266 234 1326 265 q 1129 199 1206 203 l 999 294 l 999 361 q 1054 356 1038 356 q 1151 396 1117 356 q 1185 499 1185 436 q 1160 595 1185 561 q 1086 629 1135 629 q 986 607 1031 629 q 906 549 942 585 q 810 444 869 514 l 772 401 q 886 221 886 304 q 835 115 886 171 q 706 22 783 60 q 558 -15 629 -15 q 432 -4 479 -15 l 42 306 l 93 368 l 231 256 q 363 174 299 200 q 500 149 426 149 q 592 168 549 149 q 661 218 635 188 q 688 282 688 249 q 656 359 688 322 q 542 445 624 396 q 303 572 460 494 l 303 639 q 386 679 344 650 q 453 745 428 708 q 479 813 479 782 q 425 929 479 901 l 11 929 l -124 1025 l -124 1092 l 1500 1092 l 1635 996 l 1635 929 l 603 926 z "},"ऋ":{"ha":1831,"x_min":-131,"x_max":1963,"o":"m 961 607 l 1011 581 q 1051 561 1022 561 q 1097 581 1079 561 q 1133 646 1114 601 l 1150 604 q 1194 733 1160 675 q 1276 822 1229 790 q 1367 854 1322 854 q 1489 825 1421 854 q 1604 751 1557 796 q 1651 664 1651 707 q 1578 576 1651 610 q 1374 518 1504 542 q 1497 354 1388 442 l 1497 288 q 1442 292 1468 292 q 1345 251 1379 292 q 1311 146 1311 210 q 1336 44 1311 79 q 1410 8 1361 8 q 1521 65 1465 8 q 1619 218 1576 122 l 1751 121 l 1751 54 q 1640 -80 1699 -37 q 1496 -122 1581 -122 q 1316 -76 1408 -122 q 1162 49 1224 -29 q 1100 215 1100 126 q 1125 314 1100 268 q 1196 393 1150 360 q 1147 535 1154 467 q 1089 524 1118 524 q 1024 545 1057 524 q 960 603 990 567 l 960 -15 l 893 -15 l 715 121 l 765 181 l 765 410 q 431 201 603 290 l 297 299 l 297 365 q 624 547 457 435 q 557 590 586 578 q 496 601 528 601 q 360 567 429 601 q 179 453 292 533 l 51 546 l 51 613 q 249 719 176 688 q 381 750 322 750 q 499 729 444 750 q 635 642 553 708 l 690 596 q 764 653 728 624 l 764 929 l 4 929 l -131 1025 l -131 1092 l 1828 1092 l 1963 996 l 1963 929 l 961 928 l 961 607 z "},"ॠ":{"ha":1831,"x_min":-131,"x_max":1963,"o":"m 961 611 l 1011 585 q 1051 565 1022 565 q 1097 585 1079 565 q 1133 650 1114 606 l 1150 608 q 1194 737 1160 679 q 1276 826 1229 794 q 1367 858 1322 858 q 1489 829 1421 858 q 1604 756 1557 800 q 1651 668 1651 711 q 1578 580 1651 614 q 1374 522 1504 546 q 1410 443 1381 485 l 1422 443 l 1557 346 l 1557 279 q 1482 289 1519 289 q 1374 260 1414 289 q 1333 192 1335 232 q 1343 154 1333 172 q 1442 169 1393 165 l 1565 94 l 1565 28 q 1405 -7 1464 26 q 1346 -99 1346 -40 q 1372 -139 1346 -125 q 1446 -153 1397 -153 q 1546 -122 1499 -151 q 1629 -39 1593 -92 l 1761 -136 l 1761 -203 q 1558 -268 1678 -268 q 1367 -231 1461 -268 q 1213 -133 1272 -193 q 1153 -10 1153 -74 q 1177 60 1153 28 q 1246 117 1201 93 q 1160 184 1192 147 q 1129 261 1129 221 q 1201 383 1129 335 q 1147 535 1154 460 q 1089 524 1118 524 q 1024 545 1057 524 q 960 603 990 567 l 960 -15 l 893 -15 l 715 121 l 765 181 l 765 410 q 431 201 603 290 l 297 299 l 297 365 q 624 547 457 435 q 557 590 586 578 q 496 601 528 601 q 360 567 429 601 q 179 453 292 533 l 51 546 l 51 613 q 249 719 176 688 q 381 750 322 750 q 499 729 444 750 q 635 642 553 708 l 690 596 q 764 653 728 624 l 764 929 l 4 929 l -131 1025 l -131 1092 l 1828 1092 l 1963 996 l 1963 929 l 1190 929 l 961 932 l 961 611 z "},"ऌ":{"ha":1311,"x_min":-119,"x_max":1431,"o":"m 963 722 q 1128 600 1061 678 q 1194 440 1194 522 q 1166 368 1194 403 q 1078 282 1138 333 q 968 170 1006 218 q 931 63 931 122 q 1006 -42 931 -42 q 1167 126 1089 -42 l 1308 31 l 1308 -37 q 1107 -164 1224 -164 q 935 -119 1022 -164 q 792 -3 849 -74 q 736 138 736 67 q 769 232 736 188 q 868 339 803 276 q 960 440 931 400 q 990 522 990 479 q 965 604 990 571 q 889 638 939 638 q 785 597 828 638 q 694 481 743 556 l 667 440 l 550 529 l 550 596 l 554 600 q 482 632 531 632 q 375 584 415 632 q 335 465 335 536 q 359 372 335 417 q 442 279 383 328 l 563 178 l 511 117 l 135 435 q 124 522 124 474 q 158 641 124 586 q 253 728 192 696 q 394 761 315 761 q 513 742 453 761 q 625 690 572 724 q 688 738 654 721 q 765 760 721 756 l 765 929 l 14 929 l -119 1025 l -119 1092 l 1296 1092 l 1431 996 l 1431 929 l 963 929 l 963 722 z "},"ॡ":{"ha":1311,"x_min":-119,"x_max":1431,"o":"m 960 725 q 1125 603 1058 681 q 1192 442 1192 525 q 1156 346 1192 385 q 1053 261 1119 307 q 974 199 1000 225 q 949 142 949 174 q 954 113 949 125 q 996 118 968 115 l 1126 32 l 1126 -35 q 967 -62 1028 -32 q 907 -144 907 -93 q 1006 -204 907 -204 q 1103 -176 1061 -204 q 1183 -94 1144 -147 l 1315 -192 l 1315 -258 q 1117 -319 1232 -319 q 927 -282 1021 -319 q 774 -185 833 -244 q 714 -62 714 -125 q 747 19 714 -18 q 839 81 781 56 q 743 214 743 140 q 769 279 743 253 q 850 342 796 306 q 951 424 917 386 q 986 525 986 463 q 960 608 986 575 q 883 640 933 640 q 782 599 825 640 q 692 485 739 558 q 663 443 678 461 l 546 532 l 546 599 l 554 607 q 479 633 528 633 q 372 585 413 633 q 332 467 332 538 q 356 374 332 418 q 439 281 381 329 l 560 179 l 508 118 l 132 436 q 121 524 121 475 q 155 642 121 588 q 251 730 189 697 q 392 763 313 763 q 511 744 451 763 q 624 690 571 725 q 686 738 653 721 q 765 760 719 756 l 765 929 l 14 929 l -119 1025 l -119 1092 l 1296 1092 l 1431 996 l 1431 929 l 960 932 l 960 725 z "},"ऍ":{"ha":888,"x_min":-119,"x_max":1161,"o":"m 793 928 q 846 621 846 725 q 701 321 846 392 l 571 417 l 571 483 q 625 558 610 515 q 640 678 640 600 q 621 928 640 756 l 365 928 q 324 608 324 738 q 356 416 324 494 q 464 279 389 338 l 646 129 q 833 -94 783 22 q 883 -368 883 -210 l 817 -368 l 689 -310 q 654 -60 694 -174 q 521 126 614 53 l 321 288 q 165 445 208 374 q 121 611 121 517 q 169 929 121 718 l 21 929 l -119 1025 l -119 1092 l 890 1092 l 1025 996 l 1026 928 l 793 928 m 483 1625 q 474 1538 474 1582 q 520 1452 474 1479 q 663 1425 567 1425 q 851 1483 776 1425 q 950 1640 925 1540 l 1003 1693 l 1161 1575 q 1090 1432 1146 1496 q 944 1332 1033 1368 q 747 1296 856 1296 q 517 1339 631 1296 q 333 1451 404 1382 q 263 1590 263 1519 q 274 1685 263 1638 l 324 1746 l 483 1625 z "},"ऎ":{"ha":888,"x_min":-790,"x_max":1026,"o":"m 793 928 q 846 621 846 725 q 701 321 846 392 l 571 417 l 571 483 q 625 558 610 515 q 640 678 640 600 q 621 928 640 756 l 365 928 q 324 608 324 738 q 356 416 324 494 q 464 279 389 338 l 646 129 q 833 -94 783 22 q 883 -368 883 -210 l 817 -368 l 689 -310 q 654 -60 694 -174 q 521 126 614 53 l 321 288 q 165 445 208 374 q 121 611 121 517 q 169 929 121 718 l 21 929 l -119 1025 l -119 1092 l 603 1092 l 408 1257 q 276 1338 342 1314 q 135 1363 211 1363 q 63 1358 94 1363 q -17 1346 31 1354 q -175 1328 -104 1328 q -369 1364 -285 1328 q -564 1493 -454 1400 l -790 1685 l -737 1744 l -560 1594 q -428 1515 -493 1539 q -287 1490 -362 1490 q -136 1507 -225 1490 q 24 1525 -49 1525 q 218 1489 133 1525 q 413 1358 303 1453 l 726 1092 l 890 1092 l 1025 996 l 1026 928 l 793 928 z "},"ए":{"ha":888,"x_min":-119,"x_max":1026,"o":"m 793 928 q 846 621 846 725 q 701 321 846 392 l 571 417 l 571 483 q 625 558 610 515 q 640 678 640 600 q 621 928 640 756 l 365 928 q 324 608 324 738 q 356 416 324 494 q 464 279 389 338 l 646 129 q 833 -94 783 22 q 883 -368 883 -210 l 817 -368 l 689 -310 q 654 -60 694 -174 q 521 126 614 53 l 321 288 q 165 445 208 374 q 121 611 121 517 q 169 929 121 718 l 21 929 l -119 1025 l -119 1092 l 890 1092 l 1025 996 l 1026 928 l 793 928 z "},"ऐ":{"ha":888,"x_min":-225,"x_max":1026,"o":"m 793 928 q 846 621 846 725 q 701 321 846 392 l 571 417 l 571 483 q 625 558 610 515 q 640 678 640 600 q 621 928 640 756 l 365 928 q 324 608 324 738 q 356 416 324 494 q 464 279 389 338 l 646 129 q 833 -94 783 22 q 883 -368 883 -210 l 817 -368 l 689 -310 q 654 -60 694 -174 q 521 126 614 53 l 321 288 q 165 445 208 374 q 121 611 121 517 q 169 929 121 718 l 21 929 l -119 1025 l -119 1092 l 603 1092 l 326 1325 q 194 1405 258 1381 q 53 1429 129 1429 q -92 1411 -14 1429 l -225 1508 l -225 1575 q -60 1592 -144 1592 q 135 1556 50 1592 q 331 1426 219 1519 l 726 1092 l 890 1092 l 1025 996 l 1026 928 l 793 928 z "},"ऑ":{"ha":1913,"x_min":114,"x_max":2183,"o":"m 2183 1575 q 2112 1432 2168 1496 q 1967 1332 2056 1368 q 1769 1296 1878 1296 q 1540 1339 1653 1296 q 1356 1451 1426 1382 q 1285 1590 1285 1519 q 1296 1685 1285 1638 l 1346 1746 l 1506 1625 q 1496 1538 1496 1582 q 1542 1452 1496 1479 q 1685 1425 1589 1425 q 1873 1483 1799 1425 q 1972 1640 1947 1540 l 2025 1693 l 2183 1575 m 2051 997 l 2051 931 l 1819 931 l 1819 -12 l 1753 -12 l 1575 124 l 1625 183 l 1625 931 l 1354 931 l 1354 -12 l 1288 -12 l 1110 124 l 1160 183 l 1160 453 q 1068 405 1115 419 q 963 390 1021 390 q 840 408 899 390 l 840 404 q 800 303 842 353 q 692 221 758 253 q 557 189 625 189 q 496 192 532 189 q 440 200 460 196 l 114 453 l 164 515 l 243 454 q 367 378 308 403 q 483 353 425 353 q 597 388 550 356 q 643 468 643 421 q 599 550 643 507 q 454 653 554 593 l 454 719 q 554 793 519 750 q 589 888 589 836 q 572 943 589 924 q 522 963 554 963 q 414 927 475 963 q 293 831 353 892 l 158 926 l 158 993 q 294 1078 219 1047 q 436 1108 369 1108 q 598 1062 515 1108 q 735 944 681 1015 q 789 807 789 874 q 754 700 789 751 q 658 613 719 649 q 717 571 689 592 q 865 518 801 518 q 1010 567 940 518 q 1158 722 1081 617 l 1158 929 l 981 929 l 847 1025 l 847 1092 l 1818 1092 l 1917 1093 l 2051 997 z "},"ऒ":{"ha":1913,"x_min":114,"x_max":2051,"o":"m 1819 931 l 1819 -12 l 1753 -12 l 1575 124 l 1625 183 l 1625 931 l 1354 931 l 1354 -12 l 1288 -12 l 1110 124 l 1160 183 l 1160 453 q 1068 405 1115 419 q 963 390 1021 390 q 840 408 899 390 l 840 404 q 800 303 842 353 q 692 221 758 253 q 557 189 625 189 q 496 192 532 189 q 440 200 460 196 l 114 453 l 164 515 l 243 454 q 367 378 308 403 q 483 353 425 353 q 597 388 550 356 q 643 468 643 421 q 599 550 643 507 q 454 653 554 593 l 454 719 q 554 793 519 750 q 589 888 589 836 q 572 943 589 924 q 522 963 554 963 q 414 927 475 963 q 293 831 353 892 l 158 926 l 158 993 q 294 1078 219 1047 q 436 1108 369 1108 q 598 1062 515 1108 q 735 944 681 1015 q 789 807 789 874 q 754 700 789 751 q 658 613 719 649 q 717 571 689 592 q 865 518 801 518 q 1010 567 940 518 q 1158 722 1081 617 l 1158 929 l 981 929 l 847 1025 l 847 1092 l 1625 1092 l 1431 1257 q 1299 1338 1364 1314 q 1157 1363 1233 1363 q 1085 1358 1117 1363 q 1006 1346 1053 1354 q 847 1328 918 1328 q 653 1364 738 1328 q 458 1493 568 1400 l 232 1685 l 285 1744 l 463 1594 q 594 1515 529 1539 q 736 1490 660 1490 q 808 1494 776 1490 q 888 1507 840 1499 q 1046 1525 975 1525 q 1240 1489 1156 1525 q 1435 1358 1325 1453 l 1749 1092 l 1915 1092 l 2050 996 l 2051 931 l 1819 931 z "},"ओ":{"ha":1913,"x_min":114,"x_max":2051,"o":"m 1819 931 l 1819 -12 l 1753 -12 l 1575 124 l 1625 183 l 1625 931 l 1354 931 l 1354 -12 l 1288 -12 l 1110 124 l 1160 183 l 1160 453 q 1068 405 1115 419 q 963 390 1021 390 q 840 408 899 390 l 840 404 q 800 303 842 353 q 692 221 758 253 q 557 189 625 189 q 496 192 532 189 q 440 200 460 196 l 114 453 l 164 515 l 243 454 q 367 378 308 403 q 483 353 425 353 q 597 388 550 356 q 643 468 643 421 q 599 550 643 507 q 454 653 554 593 l 454 719 q 554 793 519 750 q 589 888 589 836 q 572 943 589 924 q 522 963 554 963 q 414 927 475 963 q 293 831 353 892 l 158 926 l 158 993 q 294 1078 219 1047 q 436 1108 369 1108 q 598 1062 515 1108 q 735 944 681 1015 q 789 807 789 874 q 754 700 789 751 q 658 613 719 649 q 717 571 689 592 q 865 518 801 518 q 1010 567 940 518 q 1158 722 1081 617 l 1158 929 l 981 929 l 847 1025 l 847 1092 l 1625 1092 l 1349 1325 q 1216 1405 1281 1381 q 1075 1429 1151 1429 q 931 1411 1008 1429 l 797 1508 l 797 1575 q 964 1592 878 1592 q 1157 1556 1072 1592 q 1353 1426 1242 1519 l 1749 1092 l 1915 1092 l 2050 996 l 2051 931 l 1819 931 z "},"औ":{"ha":1913,"x_min":114,"x_max":2051,"o":"m 1819 931 l 1819 -12 l 1753 -12 l 1575 124 l 1625 183 l 1625 931 l 1354 931 l 1354 -12 l 1288 -12 l 1110 124 l 1160 183 l 1160 453 q 1068 405 1115 419 q 963 390 1021 390 q 840 408 899 390 l 840 404 q 800 303 842 353 q 692 221 758 253 q 557 189 625 189 q 496 192 532 189 q 440 200 460 196 l 114 453 l 164 515 l 243 454 q 367 378 308 403 q 483 353 425 353 q 597 388 550 356 q 643 468 643 421 q 599 550 643 507 q 454 653 554 593 l 454 719 q 554 793 519 750 q 589 888 589 836 q 572 943 589 924 q 522 963 554 963 q 414 927 475 963 q 293 831 353 892 l 158 926 l 158 993 q 294 1078 219 1047 q 436 1108 369 1108 q 598 1062 515 1108 q 735 944 681 1015 q 789 807 789 874 q 754 700 789 751 q 658 613 719 649 q 717 571 689 592 q 865 518 801 518 q 1010 567 940 518 q 1158 722 1081 617 l 1158 929 l 981 929 l 847 1025 l 847 1092 l 1440 1092 l 1283 1224 q 1151 1303 1215 1279 q 1011 1328 1086 1328 q 867 1310 944 1328 l 733 1407 l 733 1474 q 899 1490 814 1490 q 1093 1454 1008 1490 q 1288 1325 1178 1418 l 1564 1092 l 1749 1092 l 1283 1483 q 1152 1565 1217 1540 q 1011 1589 1088 1589 q 867 1571 944 1589 l 733 1667 l 733 1733 q 899 1751 821 1751 q 1092 1715 1007 1751 q 1288 1585 1178 1678 l 1874 1092 l 1915 1092 l 2050 996 l 2051 931 l 1819 931 z "},"ॳ":{"ha":1446,"x_min":114,"x_max":1585,"o":"m 1354 931 l 1354 -12 l 1288 -12 l 1110 124 l 1160 183 l 1160 453 q 1068 405 1115 419 q 963 390 1021 390 q 840 408 899 390 l 840 404 q 800 303 842 353 q 692 221 758 253 q 557 189 625 189 q 496 192 532 189 q 440 200 460 196 l 114 453 l 164 515 l 243 454 q 367 378 308 403 q 483 353 425 353 q 597 388 550 356 q 643 468 643 421 q 599 550 643 507 q 454 653 554 593 l 454 719 q 554 793 519 750 q 589 888 589 836 q 572 943 589 924 q 522 963 554 963 q 414 927 475 963 q 293 831 353 892 l 158 926 l 158 993 q 294 1078 219 1047 q 436 1108 369 1108 q 598 1062 515 1108 q 735 944 681 1015 q 789 807 789 874 q 754 700 789 751 q 658 613 719 649 q 717 571 689 592 q 865 518 801 518 q 1010 567 940 518 q 1158 722 1081 617 l 1158 929 l 981 929 l 847 1025 l 847 1092 l 1450 1092 l 1583 996 l 1585 931 l 1354 931 m 1353 1263 l 1353 1811 l 1225 1869 l 1158 1869 l 1158 1319 l 1286 1263 l 1353 1263 z "},"ॴ":{"ha":1913,"x_min":114,"x_max":2051,"o":"m 1819 931 l 1819 -12 l 1753 -12 l 1575 124 l 1625 183 l 1625 931 l 1354 931 l 1354 -12 l 1288 -12 l 1110 124 l 1160 183 l 1160 453 q 1068 405 1115 419 q 963 390 1021 390 q 840 408 899 390 l 840 404 q 800 303 842 353 q 692 221 758 253 q 557 189 625 189 q 496 192 532 189 q 440 200 460 196 l 114 453 l 164 515 l 243 454 q 367 378 308 403 q 483 353 425 353 q 597 388 550 356 q 643 468 643 421 q 599 550 643 507 q 454 653 554 593 l 454 719 q 554 793 519 750 q 589 888 589 836 q 572 943 589 924 q 522 963 554 963 q 414 927 475 963 q 293 831 353 892 l 158 926 l 158 993 q 294 1078 219 1047 q 436 1108 369 1108 q 598 1062 515 1108 q 735 944 681 1015 q 789 807 789 874 q 754 700 789 751 q 658 613 719 649 q 717 571 689 592 q 865 518 801 518 q 1010 567 940 518 q 1158 722 1081 617 l 1158 929 l 981 929 l 847 1025 l 847 1092 l 1624 1092 l 1624 1592 l 1690 1592 l 1818 1533 l 1818 1092 l 1915 1092 l 2050 996 l 2051 931 l 1819 931 z "},"ॵ":{"ha":1913,"x_min":113,"x_max":2050,"o":"m 1818 931 l 1818 -12 l 1751 -12 l 1574 124 l 1624 183 l 1624 931 l 1353 931 l 1353 -12 l 1286 -12 l 1108 124 l 1158 183 l 1158 453 q 1067 405 1114 419 q 961 390 1019 390 q 839 408 897 390 l 839 404 q 799 303 840 353 q 690 221 757 253 q 556 189 624 189 q 494 192 531 189 q 439 200 458 196 l 113 453 l 163 515 l 242 454 q 365 378 307 403 q 482 353 424 353 q 595 388 549 356 q 642 468 642 421 q 597 550 642 507 q 453 653 553 593 l 453 719 q 553 793 518 750 q 588 888 588 836 q 570 943 588 924 q 521 963 553 963 q 413 927 474 963 q 292 831 351 892 l 157 926 l 157 993 q 293 1078 218 1047 q 435 1108 368 1108 q 597 1062 514 1108 q 733 944 679 1015 q 788 807 788 874 q 753 700 788 751 q 657 613 718 649 q 715 571 689 592 q 864 518 800 518 q 1009 567 939 518 q 1157 722 1079 617 l 1157 929 l 979 929 l 846 1025 l 846 1092 l 1621 1092 l 1426 1257 q 1294 1338 1360 1314 q 1153 1363 1229 1363 q 1081 1358 1113 1363 q 1001 1346 1049 1354 q 843 1328 914 1328 q 649 1364 733 1328 q 454 1493 564 1400 l 228 1685 l 281 1744 l 458 1594 q 590 1515 525 1539 q 732 1490 656 1490 q 804 1494 772 1490 q 883 1507 836 1499 q 1042 1525 971 1525 q 1236 1488 1151 1525 q 1431 1358 1321 1451 l 1738 1099 q 1800 1196 1800 1136 q 1771 1262 1800 1236 q 1679 1322 1742 1288 q 1602 1369 1631 1349 q 1553 1419 1574 1389 q 1533 1489 1533 1449 q 1576 1590 1533 1542 q 1692 1667 1618 1638 l 1824 1569 l 1824 1503 q 1766 1474 1788 1496 q 1744 1422 1744 1451 q 1776 1360 1744 1385 q 1871 1304 1807 1336 q 1976 1241 1940 1269 q 2011 1167 2011 1213 q 1957 1063 2011 1110 l 2050 996 l 2050 931 l 1818 931 z "},"ॶ":{"ha":1446,"x_min":114,"x_max":1585,"o":"m 1354 931 l 1354 -12 l 1288 -12 l 1110 124 l 1160 183 l 1160 453 q 1068 405 1115 419 q 963 390 1021 390 q 840 408 899 390 l 840 404 q 800 303 842 353 q 692 221 758 253 q 557 189 625 189 q 496 192 532 189 q 440 200 460 196 l 114 453 l 164 515 l 243 454 q 367 378 308 403 q 483 353 425 353 q 597 388 550 356 q 643 468 643 421 q 599 550 643 507 q 454 653 554 593 l 454 719 q 554 793 519 750 q 589 888 589 836 q 572 943 589 924 q 522 963 554 963 q 414 927 475 963 q 293 831 353 892 l 158 926 l 158 993 q 294 1078 219 1047 q 436 1108 369 1108 q 598 1062 515 1108 q 735 944 681 1015 q 789 807 789 874 q 754 700 789 751 q 658 613 719 649 q 717 571 689 592 q 865 518 801 518 q 1010 567 940 518 q 1158 722 1081 617 l 1158 929 l 981 929 l 847 1025 l 847 1092 l 1450 1092 l 1583 996 l 1585 931 l 1354 931 m 889 -201 q 1040 -174 964 -201 q 1182 -99 1115 -147 l 1315 -196 l 1315 -262 q 1144 -338 1240 -310 q 968 -367 1049 -367 q 821 -351 890 -367 l 614 -187 l 656 -125 q 889 -201 782 -201 z "},"ॷ":{"ha":1446,"x_min":114,"x_max":1585,"o":"m 1354 931 l 1354 -12 l 1288 -12 l 1110 124 l 1160 183 l 1160 453 q 1068 405 1115 419 q 963 390 1021 390 q 840 408 899 390 l 840 404 q 800 303 842 353 q 692 221 758 253 q 557 189 625 189 q 496 192 532 189 q 440 200 460 196 l 114 453 l 164 515 l 243 454 q 367 378 308 403 q 483 353 425 353 q 597 388 550 356 q 643 468 643 421 q 599 550 643 507 q 454 653 554 593 l 454 719 q 554 793 519 750 q 589 888 589 836 q 572 943 589 924 q 522 963 554 963 q 414 927 475 963 q 293 831 353 892 l 158 926 l 158 993 q 294 1078 219 1047 q 436 1108 369 1108 q 598 1062 515 1108 q 735 944 681 1015 q 789 807 789 874 q 754 700 789 751 q 658 613 719 649 q 717 571 689 592 q 865 518 801 518 q 1010 567 940 518 q 1158 722 1081 617 l 1158 929 l 981 929 l 847 1025 l 847 1092 l 1450 1092 l 1583 996 l 1585 931 l 1354 931 m 890 -200 q 1041 -173 965 -200 q 1183 -97 1117 -146 l 1317 -194 l 1317 -261 q 1146 -337 1242 -308 q 969 -365 1050 -365 q 822 -350 892 -365 l 615 -186 l 657 -124 q 890 -200 783 -200 m 890 -506 q 1041 -478 965 -506 q 1183 -403 1117 -451 l 1317 -500 l 1317 -567 q 1146 -642 1242 -614 q 969 -671 1050 -671 q 822 -656 892 -671 l 615 -492 l 657 -429 q 890 -506 783 -506 z "},"ा":{"ha":467,"x_min":-33,"x_max":604,"o":"m 372 929 l 372 -14 l 306 -14 l 128 122 l 178 182 l 178 929 l 101 929 l -33 1025 l -33 1092 l 469 1092 l 604 996 l 604 929 l 372 929 z "},"ि":{"ha":467,"x_min":-33,"x_max":707,"o":"m 207 1492 q 467 1396 350 1492 q 707 1078 585 1300 l 646 1019 q 299 1331 467 1331 q 247 1312 264 1331 q 229 1261 229 1293 q 248 1182 229 1226 q 300 1092 267 1138 l 372 1092 l 372 -14 l 306 -14 l 128 122 l 178 182 l 178 929 l 79 929 l -33 1025 l -33 1092 l 175 1092 q 64 1224 100 1160 q 28 1346 28 1289 q 76 1452 28 1413 q 207 1492 124 1492 z "},"ी":{"ha":467,"x_min":-401,"x_max":604,"o":"m 371 929 l 371 -14 l 304 -14 l 126 122 l 176 182 l 176 929 l 100 929 l -35 1025 l -35 1092 l 172 1092 q -131 1331 15 1331 q -183 1312 -165 1331 q -201 1261 -201 1293 q -162 1142 -201 1211 q -61 1015 -124 1074 l -157 1015 q -341 1186 -281 1100 q -401 1346 -401 1272 q -353 1452 -401 1413 q -222 1492 -306 1492 q 35 1399 -81 1492 q 271 1092 150 1306 l 469 1092 l 604 996 l 603 929 l 371 929 z "},"ॉ":{"ha":467,"x_min":-161,"x_max":738,"o":"m 372 929 l 372 -14 l 306 -14 l 128 122 l 178 182 l 178 929 l 101 929 l -33 1025 l -33 1092 l 469 1092 l 604 996 l 604 929 l 372 929 m 60 1625 q 50 1538 50 1582 q 97 1452 50 1479 q 239 1425 143 1425 q 427 1483 353 1425 q 526 1640 501 1540 l 579 1693 l 738 1575 q 666 1432 722 1496 q 521 1332 610 1368 q 324 1296 432 1296 q 94 1339 207 1296 q -90 1451 -19 1382 q -161 1590 -161 1519 q -150 1685 -161 1638 l -100 1746 l 60 1625 z "},"ॊ":{"ha":467,"x_min":-1214,"x_max":604,"o":"m 372 929 l 372 -14 l 306 -14 l 128 122 l 178 182 l 178 929 l 101 929 l -33 1025 l -33 1092 l 179 1092 l -15 1257 q -147 1338 -82 1314 q -289 1363 -212 1363 q -361 1358 -329 1363 q -440 1346 -393 1354 q -599 1328 -528 1328 q -793 1364 -708 1328 q -987 1493 -878 1400 l -1214 1685 l -1161 1744 l -983 1594 q -851 1515 -917 1539 q -711 1490 -786 1490 q -560 1507 -649 1490 q -400 1525 -472 1525 q -206 1488 -292 1525 q -11 1358 -121 1451 l 303 1092 l 469 1092 l 604 996 l 604 929 l 372 929 z "},"ो":{"ha":467,"x_min":-649,"x_max":604,"o":"m 372 929 l 372 -14 l 306 -14 l 128 122 l 178 182 l 178 929 l 101 929 l -33 1025 l -33 1092 l 179 1092 l -99 1325 q -230 1405 -165 1381 q -371 1429 -294 1429 q -515 1411 -437 1429 l -649 1508 l -649 1575 q -483 1592 -568 1592 q -289 1556 -374 1592 q -93 1426 -204 1519 l 303 1092 l 469 1092 l 604 996 l 604 929 l 372 929 z "},"ौ":{"ha":467,"x_min":-714,"x_max":604,"o":"m 372 929 l 372 -14 l 306 -14 l 128 122 l 178 182 l 178 929 l 101 929 l -33 1025 l -33 1092 l -6 1092 l -162 1224 q -295 1303 -231 1279 q -436 1328 -360 1328 q -579 1310 -503 1328 l -714 1407 l -714 1474 q -547 1490 -631 1490 q -353 1454 -437 1490 q -158 1325 -268 1418 l 118 1092 l 303 1092 l -162 1483 q -294 1565 -229 1540 q -436 1589 -360 1589 q -579 1571 -503 1589 l -714 1667 l -714 1733 q -547 1751 -624 1751 q -353 1715 -439 1751 q -158 1585 -268 1678 l 428 1092 l 469 1092 l 604 996 l 604 929 l 372 929 z "},"ॎ":{"ha":467,"x_min":128,"x_max":604,"o":"m 372 929 l 372 -14 l 306 -14 l 128 122 l 178 182 l 178 1092 l 469 1092 l 604 996 l 604 929 l 372 929 z "},"ऻ":{"ha":467,"x_min":-33,"x_max":604,"o":"m 372 929 l 372 -14 l 306 -14 l 128 122 l 178 182 l 178 929 l 101 929 l -33 1025 l -33 1092 l 178 1092 l 178 1592 l 244 1592 l 372 1533 l 372 1092 l 469 1092 l 604 996 l 604 929 l 372 929 z "},"ॏ":{"ha":467,"x_min":-1218,"x_max":604,"o":"m 371 929 l 371 -14 l 304 -14 l 126 122 l 176 182 l 176 929 l 100 929 l -35 1025 l -35 1092 l 175 1092 l -19 1257 q -151 1338 -86 1314 q -293 1363 -217 1363 q -365 1358 -333 1363 q -444 1346 -397 1354 q -603 1328 -532 1328 q -797 1364 -712 1328 q -992 1493 -882 1400 l -1218 1685 l -1165 1744 l -987 1594 q -856 1515 -921 1539 q -715 1490 -790 1490 q -564 1507 -653 1490 q -404 1525 -476 1525 q -210 1488 -296 1525 q -15 1358 -125 1451 l 292 1099 q 354 1196 354 1136 q 325 1262 354 1236 q 233 1322 296 1288 q 156 1369 185 1349 q 108 1419 128 1389 q 88 1489 88 1449 q 130 1590 88 1542 q 246 1667 172 1638 l 378 1569 l 378 1503 q 320 1474 342 1496 q 299 1422 299 1451 q 330 1360 299 1385 q 425 1304 361 1336 q 530 1241 494 1269 q 565 1167 565 1213 q 511 1063 565 1110 l 604 996 l 603 929 l 371 929 z "},"क":{"ha":1454,"x_min":-119,"x_max":1574,"o":"m 824 736 q 939 760 874 760 q 1119 715 1026 760 q 1273 593 1211 669 q 1335 429 1335 517 q 1301 317 1335 368 q 1206 235 1267 267 q 1069 200 1146 204 l 938 296 l 938 363 q 993 357 979 357 q 1095 399 1060 357 q 1132 507 1131 440 q 1107 603 1132 569 q 1033 638 1082 638 q 938 601 975 636 q 854 499 900 567 q 828 461 844 486 l 824 457 l 824 -14 l 757 -14 l 579 122 l 629 182 l 629 229 q 514 206 579 206 q 334 251 426 206 q 180 372 242 296 q 118 535 118 449 q 152 647 118 596 q 247 729 186 697 q 385 765 307 761 l 515 668 l 515 601 q 460 607 489 607 q 358 565 394 607 q 322 458 322 524 q 347 361 322 394 q 421 328 371 328 q 518 364 479 328 q 601 468 557 400 l 625 503 l 629 507 l 629 929 l 14 929 l -119 1025 l -119 1092 l 1440 1092 l 1574 996 l 1574 929 l 824 929 l 824 736 z "},"ख":{"ha":1593,"x_min":-161,"x_max":1731,"o":"m 1731 928 l 1499 928 l 1499 -15 l 1432 -15 l 1254 121 l 1304 181 l 1304 238 q 1174 207 1250 207 q 990 252 1085 207 q 833 373 896 297 q 771 535 771 449 q 805 647 771 596 q 899 729 839 697 q 1036 765 960 761 l 1167 668 l 1167 601 q 1111 607 1140 607 q 1010 565 1046 607 q 974 458 974 524 q 1000 362 974 396 q 1079 328 1026 328 q 1160 351 1124 328 q 1224 410 1196 375 q 1304 522 1251 446 l 1304 929 l 496 929 q 574 756 547 847 q 600 574 600 664 q 549 392 600 471 q 431 288 499 314 l 771 19 l 718 -42 l 258 321 q 142 423 192 363 q 92 529 92 483 q 126 592 92 571 q 221 614 160 614 q 379 589 290 614 q 388 674 388 629 q 373 808 388 740 q 333 929 358 875 l -21 929 l -161 1025 l -161 1092 l 1596 1092 l 1731 994 l 1731 928 z "},"ग":{"ha":1113,"x_min":-172,"x_max":1250,"o":"m 1018 929 l 1018 -14 l 951 -14 l 774 122 l 824 182 l 824 929 l 551 929 l 551 496 q 521 396 551 447 q 446 311 490 344 q 364 278 401 278 q 250 322 315 278 q 138 428 185 367 q 92 538 92 490 q 128 592 92 571 q 235 614 165 614 q 357 597 286 614 l 357 929 l -36 929 l -172 1025 l -172 1092 l 1115 1092 l 1250 996 l 1250 929 l 1018 929 z "},"घ":{"ha":1225,"x_min":-136,"x_max":1365,"o":"m 1133 929 l 1133 -14 l 1067 -14 l 889 122 l 939 182 l 939 200 q 679 111 824 111 q 458 155 567 111 q 281 271 349 199 q 213 422 213 343 q 235 508 213 467 q 300 582 258 550 q 156 675 213 617 q 99 806 99 733 q 154 929 99 878 l -3 929 l -136 1025 l -136 1092 l 1229 1092 l 1364 996 l 1365 929 l 1133 929 m 576 239 q 708 267 649 239 q 815 338 767 294 q 940 464 863 381 l 940 929 l 499 929 l 529 907 l 529 840 q 454 850 490 850 q 351 819 389 850 q 313 750 313 789 q 335 688 313 715 q 401 635 358 660 q 542 658 467 657 l 676 561 l 676 494 q 621 499 657 499 q 474 454 524 497 q 424 347 424 411 q 575 238 424 238 l 576 239 z "},"ङ":{"ha":1200,"x_min":-175,"x_max":1436,"o":"m 1436 929 l 871 929 l 871 661 l 544 661 q 447 629 488 661 q 406 551 406 597 q 417 510 406 529 q 458 471 429 492 q 558 517 518 503 q 632 531 599 531 q 801 482 713 531 q 950 360 890 433 q 1010 219 1010 286 q 941 113 1010 168 q 768 22 872 58 q 565 -14 664 -14 q 429 -3 496 -14 l 7 351 l 60 413 l 258 247 q 529 150 372 150 q 664 172 599 150 q 769 228 729 194 q 810 299 810 263 q 785 348 810 325 q 733 371 761 371 q 592 315 674 371 q 415 381 504 328 q 268 504 326 435 q 210 632 210 574 q 244 726 210 682 q 334 797 278 771 q 454 824 390 824 l 678 824 l 678 929 l -42 929 l -175 1025 l -175 1092 l 1303 1092 l 1436 996 l 1436 929 m 1206 704 l 1206 507 l 1139 507 l 1011 565 l 1011 761 l 1078 761 l 1206 704 z "},"च":{"ha":1219,"x_min":-140,"x_max":1356,"o":"m 1356 931 l 1124 931 l 1124 -12 l 1057 -12 l 879 124 l 929 183 l 929 240 q 799 207 874 207 q 615 252 710 207 q 458 373 521 297 q 396 535 396 449 q 407 601 396 568 l 179 601 l 46 699 l 46 765 l 661 765 l 792 668 l 792 601 q 736 607 765 607 q 635 565 671 607 q 599 458 599 524 q 625 362 599 396 q 704 328 651 328 q 786 351 750 328 q 851 410 822 375 q 932 524 879 446 l 932 929 l -7 929 l -140 1025 l -140 1092 l 1224 1092 l 1356 997 l 1356 931 z "},"छ":{"ha":1431,"x_min":-136,"x_max":1588,"o":"m 1175 761 q 1336 603 1271 710 q 1401 378 1401 497 q 1320 181 1401 269 q 1099 40 1239 92 q 786 -11 958 -11 q 526 33 651 -11 q 324 154 401 78 q 247 321 247 231 q 297 463 247 397 q 168 553 218 497 q 118 676 118 610 q 151 776 118 732 q 242 844 183 819 q 374 869 300 869 q 411 867 381 869 l 544 771 l 544 704 q 469 714 507 714 q 367 684 406 714 q 328 613 328 654 q 379 532 328 561 q 575 575 464 581 l 710 478 l 710 411 q 649 415 688 415 q 506 367 556 415 q 457 249 457 319 q 507 149 457 185 q 658 113 557 113 q 908 151 796 113 q 1093 256 1021 189 q 967 316 1026 274 q 872 418 908 358 q 836 544 836 478 q 876 690 836 626 q 979 778 915 753 l 979 929 l -3 929 l -136 1025 l -136 1092 l 1454 1092 l 1588 996 l 1588 929 l 1175 933 l 1175 761 m 1188 419 q 1192 461 1192 440 q 1172 612 1192 556 q 1115 668 1153 668 q 1066 615 1085 668 q 1047 478 1047 561 q 1060 399 1047 426 q 1094 372 1072 372 q 1188 419 1144 372 z "},"ज":{"ha":1178,"x_min":-119,"x_max":1317,"o":"m 1085 929 l 1085 -14 l 1018 -14 l 840 122 l 890 182 l 890 450 l 515 450 l 724 272 q 735 194 735 239 q 699 91 735 139 q 599 15 663 43 q 457 -14 536 -14 q 311 1 369 -14 l 51 206 l 93 269 q 276 155 210 185 q 396 125 342 125 q 490 158 454 125 q 525 246 525 192 q 499 332 525 285 q 419 426 474 379 l 272 553 l 324 614 l 890 614 l 890 929 l 15 929 l -119 1025 l -119 1092 l 1182 1092 l 1317 996 l 1317 929 l 1085 929 z "},"झ":{"ha":1475,"x_min":-96,"x_max":1613,"o":"m 1381 928 l 1381 -15 l 1314 -15 l 1136 121 l 1186 181 l 1186 456 q 1076 390 1126 407 q 949 374 1026 374 q 1021 219 1021 293 q 953 113 1021 168 q 783 22 886 58 q 583 -14 681 -14 q 521 -10 553 -14 l 661 -119 q 926 -206 771 -206 q 1060 -190 989 -206 l 1188 -283 l 1188 -350 q 1035 -367 1111 -367 q 843 -331 928 -367 q 644 -207 758 -296 l 278 78 q 138 202 190 132 q 85 342 85 272 q 104 415 85 390 q 157 439 124 439 q 369 192 269 439 q 547 150 449 150 q 678 172 615 150 q 781 228 742 194 q 819 299 819 263 q 795 348 819 325 q 743 371 771 371 q 603 315 685 371 q 417 381 506 328 q 274 503 328 433 q 219 632 219 572 q 253 726 219 682 q 344 797 288 771 q 464 824 400 824 l 689 824 l 689 929 l 39 929 l -96 1025 l -96 1092 l 1478 1092 l 1613 996 l 1613 928 l 1381 928 m 853 501 q 953 520 908 501 q 1049 583 997 539 q 1183 714 1101 626 l 1183 928 l 881 928 l 881 660 l 554 660 q 456 628 496 660 q 415 550 415 596 q 427 509 415 528 q 467 469 439 490 q 567 515 526 501 q 640 529 607 529 q 735 514 685 529 q 856 501 775 501 l 853 501 z "},"ञ":{"ha":1150,"x_min":-119,"x_max":1289,"o":"m 1057 929 l 1057 -14 l 990 -14 l 813 122 l 863 182 l 863 414 q 722 383 808 388 q 617 236 701 294 q 415 176 533 178 q 300 192 346 176 l 92 356 l 133 419 q 344 326 269 326 q 475 378 431 326 q 519 521 519 431 q 495 613 519 578 q 428 649 471 647 q 336 620 381 649 q 260 543 292 592 l 129 640 l 129 707 q 234 760 172 736 q 344 783 296 783 q 488 751 414 783 q 619 663 561 718 q 706 538 678 607 q 863 678 767 571 l 863 929 l 14 929 l -119 1025 l -119 1092 l 1154 1092 l 1289 996 l 1289 929 l 1057 929 z "},"ट":{"ha":1013,"x_min":-119,"x_max":1164,"o":"m 554 574 q 398 505 457 574 q 339 324 339 436 q 391 170 339 226 q 526 114 443 114 q 685 160 611 114 q 844 310 760 206 l 975 214 l 975 147 q 809 28 900 71 q 625 -14 718 -14 q 392 47 507 -14 q 205 208 278 108 q 132 413 132 307 q 177 571 132 496 q 297 692 222 646 q 457 738 372 738 l 515 738 l 515 929 l 11 929 l -119 1025 l -119 1092 l 1032 1092 l 1164 996 l 1164 929 l 710 929 l 710 574 l 554 574 z "},"ठ":{"ha":1156,"x_min":-119,"x_max":1275,"o":"m 710 728 q 869 633 797 693 q 983 497 940 572 q 1025 344 1025 421 q 974 161 1025 243 q 832 33 922 79 q 629 -14 742 -14 q 394 48 510 -14 q 205 208 278 110 q 132 407 132 306 q 177 572 132 496 q 297 693 222 649 q 457 738 372 738 l 515 738 l 515 929 l 11 929 l -119 1025 l -119 1092 l 1144 1092 l 1275 996 l 1275 929 l 710 929 l 710 728 m 815 424 q 710 617 815 574 l 710 575 l 554 575 q 398 507 457 575 q 339 321 339 439 q 392 169 339 222 q 535 115 446 115 q 740 199 665 115 q 815 424 815 282 z "},"ड":{"ha":1029,"x_min":-175,"x_max":1174,"o":"m 544 661 q 447 629 488 661 q 406 551 406 597 q 417 510 406 529 q 458 471 429 492 q 558 517 518 503 q 632 531 599 531 q 801 482 713 531 q 950 360 890 433 q 1010 219 1010 286 q 941 113 1010 168 q 768 22 872 58 q 565 -14 664 -14 q 429 -3 496 -14 l 7 351 l 60 413 l 258 247 q 529 150 372 150 q 664 172 599 150 q 769 228 729 194 q 810 299 810 263 q 785 348 810 325 q 733 371 761 371 q 592 315 674 371 q 415 381 504 328 q 268 504 326 435 q 210 632 210 574 q 244 726 210 682 q 334 797 278 771 q 454 824 390 824 l 678 824 l 678 929 l -42 929 l -175 1025 l -175 1092 l 1039 1092 l 1174 996 l 1174 929 l 872 929 l 872 661 l 544 661 z "},"ढ":{"ha":1001,"x_min":-119,"x_max":1153,"o":"m 533 574 q 378 517 435 574 q 321 364 321 461 q 357 240 321 296 q 457 151 393 185 q 604 111 521 117 q 508 204 544 150 q 472 314 472 258 q 514 407 472 372 q 626 442 556 442 q 792 398 708 442 q 929 286 875 354 q 983 150 983 218 q 913 30 983 74 q 719 -14 843 -14 q 435 51 569 -14 q 218 222 300 115 q 136 446 136 328 q 176 591 136 524 q 283 698 215 658 q 429 738 351 738 l 553 738 l 553 929 l 11 929 l -119 1025 l -119 1092 l 1022 1092 l 1153 996 l 1153 929 l 747 929 l 747 574 l 533 574 m 742 310 q 701 282 718 310 q 683 217 683 254 q 732 158 683 158 q 781 171 758 158 q 790 215 790 189 q 776 281 790 254 q 743 308 763 308 l 742 310 z "},"ण":{"ha":1283,"x_min":-119,"x_max":1421,"o":"m 1189 929 l 1189 -14 l 1122 -14 l 944 122 l 994 182 l 994 929 l 772 929 l 772 594 q 733 467 772 529 q 631 366 694 406 q 494 326 567 326 q 324 368 411 326 q 178 479 236 410 q 119 629 119 549 l 119 929 l 15 929 l -119 1025 l -119 1092 l 1286 1092 l 1421 996 l 1421 929 l 1189 929 m 314 929 l 314 581 q 407 451 314 451 q 485 471 446 451 q 550 531 524 490 q 578 629 576 571 l 578 929 l 314 929 z "},"त":{"ha":950,"x_min":-119,"x_max":1088,"o":"m 856 929 l 856 -14 l 789 -14 l 611 122 l 661 182 l 661 450 l 450 450 q 347 417 379 450 q 314 317 314 383 q 334 227 314 267 q 413 140 354 188 l 539 35 l 488 -26 l 115 268 q 104 363 104 310 q 379 614 104 614 l 661 614 l 661 929 l 18 929 l -119 1025 l -119 1092 l 953 1092 l 1088 996 l 1088 929 l 856 929 z "},"थ":{"ha":1133,"x_min":68,"x_max":1271,"o":"m 1039 931 l 1039 -12 l 972 -12 l 794 124 l 844 183 l 844 294 q 733 240 794 258 q 592 221 672 221 q 373 263 488 221 q 177 369 258 306 q 83 490 96 432 l 135 551 q 163 549 149 549 q 371 636 304 549 q 227 690 297 649 q 113 792 157 731 q 68 922 68 853 q 101 1019 68 974 q 187 1092 133 1065 q 299 1119 240 1119 q 448 1063 371 1119 q 575 912 525 1007 q 625 710 625 817 q 585 574 625 636 q 473 469 546 511 q 306 415 400 428 q 504 344 353 344 q 626 369 572 344 q 726 435 679 393 q 844 557 772 476 l 844 929 l 768 929 l 633 1025 l 633 1092 l 1136 1092 l 1271 996 l 1271 931 l 1039 931 m 276 857 q 333 757 276 757 q 415 796 379 757 q 401 942 414 890 q 363 994 388 994 q 301 956 324 994 q 278 857 278 917 l 276 857 z "},"द":{"ha":978,"x_min":-119,"x_max":1129,"o":"m 533 574 q 379 517 438 574 q 321 369 321 461 q 367 209 321 267 q 492 151 413 151 q 558 161 525 151 q 544 260 544 217 q 631 365 544 365 q 760 326 690 365 q 876 226 829 286 q 924 108 924 165 q 890 35 924 67 q 797 -8 856 3 l 1035 -194 l 983 -256 l 669 -11 q 403 71 526 3 q 208 243 281 139 q 136 463 136 347 q 178 597 136 533 q 287 699 219 660 q 429 738 354 738 l 539 738 l 539 929 l 11 929 l -119 1025 l -119 1092 l 997 1092 l 1129 996 l 1129 929 l 733 929 l 733 574 l 533 574 z "},"ध":{"ha":1261,"x_min":142,"x_max":1403,"o":"m 1171 928 l 1171 -15 l 1104 -15 l 926 121 l 976 181 l 976 324 q 869 263 918 279 q 758 246 819 246 q 544 290 646 246 q 381 406 443 335 q 319 553 319 476 q 381 692 319 633 q 205 838 268 754 q 142 1014 142 921 q 206 1167 142 1108 q 379 1226 269 1226 q 549 1192 464 1226 q 688 1103 633 1157 q 742 996 742 1050 q 685 901 742 939 q 549 864 628 864 q 518 867 538 864 l 426 939 l 426 1006 q 468 996 446 996 q 515 1013 497 996 q 532 1054 532 1029 q 479 1094 532 1094 q 387 1053 422 1094 q 351 942 351 1011 q 381 835 351 882 q 474 750 411 789 q 607 774 533 774 l 739 688 l 739 621 q 683 625 708 625 q 569 585 610 625 q 529 476 529 546 q 562 398 529 424 q 651 372 594 372 q 754 389 711 372 q 844 447 797 406 q 974 574 892 488 l 974 929 l 897 929 l 763 1025 l 763 1092 l 1265 1092 l 1400 996 l 1403 928 l 1171 928 z "},"न":{"ha":975,"x_min":-172,"x_max":1114,"o":"m 881 929 l 881 -14 l 814 -14 l 636 122 l 686 182 l 686 450 l 492 450 q 426 331 472 385 q 339 278 381 278 q 235 326 294 278 q 133 438 176 374 q 90 549 90 503 q 145 599 90 585 q 339 614 200 614 l 688 614 l 688 929 l -32 929 l -172 1025 l -172 1092 l 979 1092 l 1114 996 l 1113 929 l 881 929 z "},"ऩ":{"ha":975,"x_min":-172,"x_max":1114,"o":"m 881 929 l 881 -14 l 814 -14 l 636 122 l 686 182 l 686 450 l 492 450 q 426 331 472 385 q 339 278 381 278 q 235 326 294 278 q 133 438 176 374 q 90 549 90 503 q 145 599 90 585 q 339 614 200 614 l 688 614 l 688 929 l -32 929 l -172 1025 l -172 1092 l 979 1092 l 1114 996 l 1113 929 l 881 929 m 450 -168 l 383 -168 l 256 -110 l 256 86 l 322 86 l 450 29 l 450 -168 z "},"प":{"ha":928,"x_min":-119,"x_max":1065,"o":"m 1065 929 l 833 929 l 833 -14 l 767 -14 l 589 122 l 639 182 l 639 356 q 515 326 585 326 q 335 372 428 326 q 181 493 243 417 q 119 657 119 569 l 119 929 l 15 929 l -119 1025 l -119 1092 l 931 1092 l 1065 996 l 1065 929 m 314 929 l 314 608 q 428 451 314 451 q 504 474 471 451 q 565 533 538 497 q 639 642 593 569 l 639 929 l 314 929 z "},"फ":{"ha":1465,"x_min":-119,"x_max":1586,"o":"m 833 738 q 950 763 886 763 q 1130 717 1038 763 q 1284 596 1222 672 q 1346 432 1346 519 q 1312 320 1346 371 q 1217 238 1278 269 q 1079 203 1156 207 l 949 299 l 949 365 q 1004 360 988 360 q 1101 400 1067 360 q 1135 503 1135 440 q 1110 599 1135 565 q 1036 633 1085 633 q 962 612 994 633 q 905 558 929 590 q 833 454 881 525 l 833 -14 l 767 -14 l 589 122 l 639 182 l 639 356 q 515 326 585 326 q 335 372 428 326 q 181 493 243 417 q 119 657 119 569 l 119 929 l 15 929 l -119 1025 l -119 1092 l 1454 1092 l 1586 996 l 1586 929 l 847 929 l 833 931 l 833 738 m 428 453 q 504 476 471 453 q 565 535 538 499 q 639 643 593 571 l 639 931 l 314 931 l 314 610 q 428 453 314 453 z "},"ब":{"ha":935,"x_min":-119,"x_max":1072,"o":"m 1072 929 l 840 929 l 840 -14 l 774 -14 l 596 122 l 646 182 l 646 239 q 515 206 590 206 q 332 251 426 206 q 175 372 238 296 q 113 533 113 447 q 147 645 113 594 q 241 728 181 696 q 378 764 301 760 l 508 667 l 508 600 q 453 606 482 606 q 388 590 415 606 l 582 429 l 631 499 l 647 524 l 647 929 l 14 929 l -119 1025 l -119 1092 l 939 1092 l 1072 996 l 1072 929 m 421 329 q 526 372 479 329 l 329 535 q 314 458 314 500 q 340 362 314 396 q 419 328 367 328 l 421 329 z "},"भ":{"ha":1094,"x_min":43,"x_max":1233,"o":"m 1001 929 l 1001 -14 l 935 -14 l 757 122 l 807 182 l 807 450 l 536 450 q 469 331 515 385 q 382 278 422 278 q 270 324 333 278 q 162 435 207 371 q 117 549 117 500 q 170 598 117 583 q 360 614 224 613 l 360 708 q 212 751 286 715 q 90 844 138 788 q 43 967 43 901 q 93 1076 43 1032 q 226 1119 143 1119 q 383 1073 307 1119 q 507 947 460 1026 q 554 776 554 868 l 554 614 l 807 614 l 807 929 l 731 929 l 596 1025 l 596 1092 l 1099 1092 l 1233 996 l 1233 929 l 1001 929 m 254 894 q 266 848 254 864 q 300 832 278 832 q 360 853 332 832 q 319 993 358 993 q 272 965 289 993 q 254 894 254 938 z "},"म":{"ha":1132,"x_min":-172,"x_max":1269,"o":"m 1038 929 l 1038 -14 l 971 -14 l 793 122 l 843 182 l 843 450 l 510 450 q 442 331 489 385 q 356 278 396 278 q 244 324 307 278 q 135 435 181 371 q 90 549 90 500 q 144 598 90 583 q 333 614 197 613 l 333 929 l -33 929 l -172 1025 l -172 1092 l 1135 1092 l 1269 996 l 1269 929 l 1038 929 m 843 929 l 528 929 l 528 614 l 843 614 l 843 929 z "},"य":{"ha":1035,"x_min":-118,"x_max":1174,"o":"m 1174 929 l 942 929 l 942 -14 l 875 -14 l 697 122 l 747 182 l 747 357 q 642 306 700 324 q 510 289 585 289 q 332 330 424 289 q 172 433 240 371 q 82 553 103 494 l 133 614 q 244 679 199 625 q 289 815 289 733 q 261 929 289 890 l 17 929 l -118 1025 l -118 1092 l 1038 1092 l 1174 996 l 1174 929 m 421 932 q 501 722 501 833 q 445 578 501 640 q 294 492 389 515 q 425 414 325 414 q 542 438 489 414 q 640 503 594 463 q 747 613 686 544 l 747 932 l 421 932 z "},"र":{"ha":665,"x_min":-161,"x_max":817,"o":"m 496 929 q 574 756 547 847 q 600 574 600 664 q 549 392 600 471 q 431 288 499 314 l 771 19 l 718 -42 l 258 321 q 142 423 192 363 q 92 529 92 483 q 126 592 92 571 q 221 614 160 614 q 379 589 290 614 q 388 674 388 629 q 373 808 388 740 q 333 929 358 875 l -21 929 l -161 1025 l -161 1092 l 675 1092 l 817 996 l 817 929 l 496 929 z "},"ऱ":{"ha":665,"x_min":-161,"x_max":817,"o":"m 496 929 q 574 756 547 847 q 600 574 600 664 q 549 392 600 471 q 431 288 499 314 l 771 19 l 718 -42 l 258 321 q 142 423 192 363 q 92 529 92 483 q 126 592 92 571 q 221 614 160 614 q 379 589 290 614 q 388 674 388 629 q 373 808 388 740 q 333 929 358 875 l -21 929 l -161 1025 l -161 1092 l 675 1092 l 817 996 l 817 929 l 496 929 m 388 -168 l 321 -168 l 193 -110 l 193 86 l 260 86 l 388 29 l 388 -168 z "},"ल":{"ha":1247,"x_min":-119,"x_max":1386,"o":"m 1154 929 l 1154 -14 l 1088 -14 l 910 122 l 960 182 l 960 461 q 690 319 835 378 l 560 417 l 560 483 l 597 500 q 563 600 588 569 q 490 631 538 631 q 383 583 424 631 q 343 471 343 536 q 366 375 343 417 q 453 285 389 333 l 576 189 l 529 125 l 143 419 q 133 519 133 467 q 167 638 133 583 q 261 726 200 693 q 403 760 322 760 q 592 708 496 760 q 747 574 689 656 q 958 731 869 646 l 958 929 l 14 929 l -119 1025 l -119 1092 l 1250 1092 l 1385 996 l 1386 929 l 1154 929 z "},"ळ":{"ha":1454,"x_min":-119,"x_max":1574,"o":"m 1081 733 q 1260 610 1186 693 q 1333 429 1333 526 q 1291 308 1333 360 q 1181 230 1249 257 q 1042 203 1114 203 q 1013 204 1022 203 l 876 303 l 876 376 q 994 357 933 357 q 1095 399 1060 357 q 1131 508 1131 440 q 1106 606 1131 572 q 1031 640 1081 640 q 962 622 992 640 q 908 574 932 603 q 846 488 883 544 l 810 435 l 774 382 q 703 285 733 321 q 626 226 672 250 q 515 201 581 201 q 335 247 428 201 q 180 369 242 292 q 118 533 118 446 q 167 663 118 610 q 290 740 215 715 q 440 760 364 765 l 576 661 l 576 586 q 458 607 519 607 q 358 565 394 607 q 322 456 322 524 q 422 324 322 324 q 497 344 464 324 q 553 394 529 364 q 611 479 576 425 l 629 507 l 664 560 q 733 660 706 624 q 799 722 761 696 q 886 758 836 749 l 886 929 l 14 929 l -119 1025 l -119 1092 l 1440 1092 l 1574 996 l 1574 929 l 1081 929 l 1081 733 z "},"ऴ":{"ha":1454,"x_min":-119,"x_max":1574,"o":"m 1081 733 q 1260 610 1186 693 q 1333 429 1333 526 q 1291 308 1333 360 q 1181 230 1249 257 q 1042 203 1114 203 q 1013 204 1022 203 l 876 303 l 876 376 q 994 357 933 357 q 1095 399 1060 357 q 1131 508 1131 440 q 1106 606 1131 572 q 1031 640 1081 640 q 962 622 992 640 q 908 574 932 603 q 846 488 883 544 l 810 435 l 774 382 q 703 285 733 321 q 626 226 672 250 q 515 201 581 201 q 335 247 428 201 q 180 369 242 292 q 118 533 118 446 q 167 663 118 610 q 290 740 215 715 q 440 760 364 765 l 576 661 l 576 586 q 458 607 519 607 q 358 565 394 607 q 322 456 322 524 q 422 324 322 324 q 497 344 464 324 q 553 394 529 364 q 611 479 576 425 l 629 507 l 664 560 q 733 660 706 624 q 799 722 761 696 q 886 758 836 749 l 886 929 l 14 929 l -119 1025 l -119 1092 l 1440 1092 l 1574 996 l 1574 929 l 1081 929 l 1081 733 m 839 -156 l 772 -156 l 644 -97 l 644 99 l 711 99 l 839 42 l 839 -156 z "},"व":{"ha":935,"x_min":-119,"x_max":1071,"o":"m 1071 931 l 839 931 l 839 -12 l 772 -12 l 594 124 l 644 183 l 644 240 q 514 207 589 207 q 331 252 425 207 q 174 373 236 297 q 111 535 111 449 q 145 647 111 596 q 240 729 179 697 q 376 765 300 761 l 507 668 l 507 601 q 451 607 481 607 q 350 565 386 607 q 314 458 314 524 q 340 362 314 396 q 419 328 367 328 q 501 351 465 328 q 566 410 538 375 q 647 524 594 446 l 647 929 l 14 929 l -119 1025 l -119 1092 l 939 1092 l 1071 997 l 1071 931 z "},"श":{"ha":1207,"x_min":146,"x_max":1347,"o":"m 665 671 q 611 415 665 526 l 810 272 l 757 211 l 568 347 q 444 279 511 279 q 321 323 389 279 q 205 428 253 367 q 157 536 157 490 q 190 594 157 572 q 289 615 224 615 q 444 592 364 615 q 468 708 464 638 q 318 750 393 714 q 194 844 243 786 q 146 967 146 901 q 196 1076 146 1032 q 329 1119 246 1119 q 490 1067 414 1119 q 615 913 567 1015 q 663 669 663 811 l 665 671 m 1115 931 l 1115 -12 l 1049 -12 l 872 124 l 921 183 l 921 931 l 844 931 l 711 1026 l 711 1093 l 1214 1093 l 1347 997 l 1347 931 l 1115 931 m 360 897 q 372 851 360 867 q 406 835 383 835 q 469 857 440 835 q 453 964 464 933 q 425 994 442 994 q 377 967 394 994 q 360 896 360 939 l 360 897 z "},"ष":{"ha":928,"x_min":-119,"x_max":1065,"o":"m 1065 929 l 833 929 l 833 -14 l 767 -14 l 589 122 l 639 182 l 639 356 q 515 326 585 326 q 335 372 428 326 q 181 493 243 417 q 119 657 119 569 l 119 929 l 15 929 l -119 1025 l -119 1092 l 931 1092 l 1065 996 l 1065 929 m 314 928 l 314 883 l 624 654 l 635 633 l 639 642 l 639 928 l 314 928 m 426 450 q 520 485 481 450 q 608 594 560 519 l 329 800 l 314 828 l 314 607 q 428 450 314 450 l 426 450 z "},"स":{"ha":1197,"x_min":-161,"x_max":1335,"o":"m 1335 931 l 1103 931 l 1103 -12 l 1036 -12 l 858 124 l 908 183 l 908 449 q 774 417 839 417 q 692 431 728 417 l 594 508 q 533 369 579 429 q 431 288 486 310 l 771 19 l 718 -42 l 258 321 q 142 423 192 363 q 92 529 92 483 q 126 592 92 571 q 221 614 160 614 q 379 589 290 614 q 388 674 388 629 q 373 808 388 740 q 333 929 358 875 l -21 929 l -161 1025 l -161 1092 l 1200 1092 l 1335 997 l 1335 931 m 497 931 q 599 625 585 789 q 728 599 674 599 q 814 617 771 599 q 908 678 857 636 l 910 931 l 497 931 z "},"ह":{"ha":839,"x_min":-33,"x_max":976,"o":"m 478 621 q 391 597 421 621 q 361 528 361 574 q 389 443 361 482 q 592 399 489 443 q 761 285 694 356 q 828 142 828 215 q 790 36 828 86 q 688 -46 753 -14 l 553 51 l 553 118 q 618 222 618 158 q 497 321 618 321 q 366 274 414 321 q 318 147 318 228 q 352 36 318 86 q 464 -72 386 -14 l 757 -306 l 706 -367 l 118 90 q 108 175 108 132 q 151 331 108 265 q 271 424 193 396 l 161 506 q 150 579 150 536 q 219 728 150 671 q 401 786 289 786 l 481 786 l 481 929 l 99 929 l -33 1025 l -33 1092 l 844 1092 l 976 996 l 976 929 l 675 929 l 675 622 l 478 622 l 478 621 z "},"क़":{"ha":1454,"x_min":-119,"x_max":1574,"o":"m 824 736 q 939 760 874 760 q 1119 715 1026 760 q 1273 593 1211 669 q 1335 429 1335 517 q 1301 317 1335 368 q 1206 235 1267 267 q 1069 200 1146 204 l 938 296 l 938 363 q 993 357 979 357 q 1095 399 1060 357 q 1132 507 1131 440 q 1107 603 1132 569 q 1033 638 1082 638 q 938 601 975 636 q 854 499 900 567 q 828 461 844 486 l 824 457 l 824 -14 l 757 -14 l 579 122 l 629 182 l 629 229 q 514 206 579 206 q 334 251 426 206 q 180 372 242 296 q 118 535 118 449 q 152 647 118 596 q 247 729 186 697 q 385 765 307 761 l 515 668 l 515 601 q 460 607 489 607 q 358 565 394 607 q 322 458 322 524 q 347 361 322 394 q 421 328 371 328 q 518 364 479 328 q 601 468 557 400 l 625 503 l 629 507 l 629 929 l 14 929 l -119 1025 l -119 1092 l 1440 1092 l 1574 996 l 1574 929 l 824 929 l 824 736 m 378 -151 l 311 -151 l 183 -93 l 183 103 l 250 103 l 378 46 l 378 -151 z "},"ख़":{"ha":1593,"x_min":-161,"x_max":1731,"o":"m 1731 928 l 1499 928 l 1499 -15 l 1432 -15 l 1254 121 l 1304 181 l 1304 238 q 1174 207 1250 207 q 990 252 1085 207 q 833 373 896 297 q 771 535 771 449 q 805 647 771 596 q 899 729 839 697 q 1036 765 960 761 l 1167 668 l 1167 601 q 1111 607 1140 607 q 1010 565 1046 607 q 974 458 974 524 q 1000 362 974 396 q 1079 328 1026 328 q 1160 351 1124 328 q 1224 410 1196 375 q 1304 522 1251 446 l 1304 929 l 496 929 q 574 756 547 847 q 600 574 600 664 q 549 392 600 471 q 431 288 499 314 l 771 19 l 718 -42 l 258 321 q 142 423 192 363 q 92 529 92 483 q 126 592 92 571 q 221 614 160 614 q 379 589 290 614 q 388 674 388 629 q 373 808 388 740 q 333 929 358 875 l -21 929 l -161 1025 l -161 1092 l 1596 1092 l 1731 994 l 1731 928 m 297 -168 l 231 -168 l 103 -110 l 103 86 l 169 86 l 297 29 l 297 -168 z "},"ग़":{"ha":1113,"x_min":-172,"x_max":1250,"o":"m 1018 929 l 1018 -14 l 951 -14 l 774 122 l 824 182 l 824 929 l 551 929 l 551 496 q 521 396 551 447 q 446 311 490 344 q 364 278 401 278 q 250 322 315 278 q 138 428 185 367 q 92 538 92 490 q 128 592 92 571 q 235 614 165 614 q 357 597 286 614 l 357 929 l -36 929 l -172 1025 l -172 1092 l 1115 1092 l 1250 996 l 1250 929 l 1018 929 m 450 -168 l 383 -168 l 256 -110 l 256 86 l 322 86 l 450 29 l 450 -168 z "},"ज़":{"ha":1178,"x_min":-119,"x_max":1317,"o":"m 1085 929 l 1085 -14 l 1018 -14 l 840 122 l 890 182 l 890 450 l 515 450 l 724 272 q 735 194 735 239 q 699 91 735 139 q 599 15 663 43 q 457 -14 536 -14 q 311 1 369 -14 l 51 206 l 93 269 q 276 155 210 185 q 396 125 342 125 q 490 158 454 125 q 525 246 525 192 q 499 332 525 285 q 419 426 474 379 l 272 553 l 324 614 l 890 614 l 890 929 l 15 929 l -119 1025 l -119 1092 l 1182 1092 l 1317 996 l 1317 929 l 1085 929 m 544 -428 l 478 -428 l 350 -369 l 350 -174 l 417 -174 l 544 -231 l 544 -428 z "},"ड़":{"ha":1029,"x_min":-175,"x_max":1174,"o":"m 544 661 q 447 629 488 661 q 406 551 406 597 q 417 510 406 529 q 458 471 429 492 q 558 517 518 503 q 632 531 599 531 q 801 482 713 531 q 950 360 890 433 q 1010 219 1010 286 q 941 113 1010 168 q 768 22 872 58 q 565 -14 664 -14 q 429 -3 496 -14 l 7 351 l 60 413 l 258 247 q 529 150 372 150 q 664 172 599 150 q 769 228 729 194 q 810 299 810 263 q 785 348 810 325 q 733 371 761 371 q 592 315 674 371 q 415 381 504 328 q 268 504 326 435 q 210 632 210 574 q 244 726 210 682 q 334 797 278 771 q 454 824 390 824 l 678 824 l 678 929 l -42 929 l -175 1025 l -175 1092 l 1039 1092 l 1174 996 l 1174 929 l 872 929 l 872 661 l 544 661 m 221 -237 l 154 -237 l 26 -179 l 26 17 l 93 17 l 221 -40 l 221 -237 z "},"ढ़":{"ha":1001,"x_min":-119,"x_max":1153,"o":"m 533 574 q 378 517 435 574 q 321 364 321 461 q 357 240 321 296 q 457 151 393 185 q 604 111 521 117 q 508 204 544 150 q 472 314 472 258 q 514 407 472 372 q 626 442 556 442 q 792 398 708 442 q 929 286 875 354 q 983 150 983 218 q 913 30 983 74 q 719 -14 843 -14 q 435 51 569 -14 q 218 222 300 115 q 136 446 136 328 q 176 591 136 524 q 283 698 215 658 q 429 738 351 738 l 553 738 l 553 929 l 11 929 l -119 1025 l -119 1092 l 1022 1092 l 1153 996 l 1153 929 l 747 929 l 747 574 l 533 574 m 742 310 q 701 282 718 310 q 683 217 683 254 q 732 158 683 158 q 781 171 758 158 q 790 215 790 189 q 776 281 790 254 q 743 308 763 308 l 742 310 m 357 -293 l 290 -293 l 163 -235 l 163 -39 l 229 -39 l 357 -96 l 357 -293 z "},"फ़":{"ha":1465,"x_min":-119,"x_max":1586,"o":"m 833 738 q 950 763 886 763 q 1130 717 1038 763 q 1284 596 1222 672 q 1346 432 1346 519 q 1312 320 1346 371 q 1217 238 1278 269 q 1079 203 1156 207 l 949 299 l 949 365 q 1004 360 988 360 q 1101 400 1067 360 q 1135 503 1135 440 q 1110 599 1135 565 q 1036 633 1085 633 q 962 612 994 633 q 905 558 929 590 q 833 454 881 525 l 833 -14 l 767 -14 l 589 122 l 639 182 l 639 356 q 515 326 585 326 q 335 372 428 326 q 181 493 243 417 q 119 657 119 569 l 119 929 l 15 929 l -119 1025 l -119 1092 l 1454 1092 l 1586 996 l 1586 929 l 847 929 l 833 931 l 833 738 m 428 453 q 504 476 471 453 q 565 535 538 499 q 639 643 593 571 l 639 931 l 314 931 l 314 610 q 428 453 314 453 m 419 -87 l 353 -87 l 225 -29 l 225 167 l 292 167 l 419 110 l 419 -87 z "},"य़":{"ha":1035,"x_min":-118,"x_max":1174,"o":"m 1174 929 l 942 929 l 942 -14 l 875 -14 l 697 122 l 747 182 l 747 357 q 642 306 700 324 q 510 289 585 289 q 332 330 424 289 q 172 433 240 371 q 82 553 103 494 l 133 614 q 244 679 199 625 q 289 815 289 733 q 261 929 289 890 l 17 929 l -118 1025 l -118 1092 l 1038 1092 l 1174 996 l 1174 929 m 421 932 q 501 722 501 833 q 445 578 501 640 q 294 492 389 515 q 425 414 325 414 q 542 438 489 414 q 640 503 594 463 q 747 613 686 544 l 747 932 l 421 932 m 419 -125 l 353 -125 l 225 -67 l 225 129 l 292 129 l 419 72 l 419 -125 z "},"ॹ":{"ha":1136,"x_min":-119,"x_max":1317,"o":"m 1085 929 l 1085 -14 l 1018 -14 l 840 122 l 890 182 l 890 450 l 515 450 l 724 272 q 735 194 735 239 q 699 91 735 139 q 599 15 663 43 q 457 -14 536 -14 q 311 1 369 -14 l 51 206 l 93 269 q 276 155 210 185 q 396 125 342 125 q 490 158 454 125 q 525 246 525 192 q 499 332 525 285 q 419 426 474 379 l 272 553 l 324 614 l 890 614 l 890 929 l 15 929 l -119 1025 l -119 1092 l 1182 1092 l 1317 996 l 1317 929 l 1085 929 m 232 -308 l 165 -308 l 38 -250 l 38 -54 l 104 -54 l 232 -111 l 232 -308 m 515 -504 l 449 -504 l 321 -446 l 321 -250 l 388 -250 l 515 -307 l 515 -504 m 767 -308 l 700 -308 l 572 -250 l 572 -54 l 639 -54 l 767 -111 l 767 -308 z "},"ॻ":{"ha":1096,"x_min":-172,"x_max":1233,"o":"m 1003 929 l 1003 -250 l 168 -250 l 49 -154 l 49 -87 l 808 -87 l 808 929 l 551 929 l 551 496 q 521 396 551 447 q 446 311 490 344 q 364 278 401 278 q 250 322 315 278 q 138 428 185 367 q 92 538 92 490 q 128 592 92 571 q 235 614 165 614 q 357 597 286 614 l 357 929 l -36 929 l -172 1025 l -172 1092 l 1100 1092 l 1233 996 l 1233 929 l 1003 929 z "},"ॼ":{"ha":1197,"x_min":-119,"x_max":1335,"o":"m 1103 929 l 1103 -250 l 206 -250 l 86 -154 l 86 -87 l 908 -87 l 908 450 l 515 450 l 724 272 q 735 194 735 239 q 699 91 735 139 q 599 15 663 43 q 457 -14 536 -14 q 311 1 369 -14 l 51 206 l 93 269 q 276 155 210 185 q 396 125 342 125 q 490 158 454 125 q 525 246 525 192 q 499 332 525 285 q 419 426 474 379 l 272 553 l 324 614 l 908 614 l 908 929 l 15 929 l -119 1025 l -119 1092 l 1200 1092 l 1335 996 l 1335 929 l 1103 929 z "},"ॾ":{"ha":1029,"x_min":-175,"x_max":1174,"o":"m 544 661 q 447 629 488 661 q 406 551 406 597 q 417 510 406 529 q 458 471 429 492 q 558 517 518 503 q 632 531 599 531 q 801 482 713 531 q 950 360 890 433 q 1010 219 1010 286 q 941 113 1010 168 q 768 22 872 58 q 565 -14 664 -14 q 429 -3 496 -14 l 7 351 l 60 413 l 258 247 q 529 150 372 150 q 664 172 599 150 q 769 228 729 194 q 810 299 810 263 q 785 348 810 325 q 733 371 761 371 q 592 315 674 371 q 415 381 504 328 q 268 504 326 435 q 210 632 210 574 q 244 726 210 682 q 334 797 278 771 q 454 824 390 824 l 678 824 l 678 929 l -42 929 l -175 1025 l -175 1092 l 1039 1092 l 1174 996 l 1174 929 l 872 929 l 872 661 l 544 661 m 1078 -250 l 243 -250 l 124 -154 l 124 -87 l 958 -87 l 1078 -183 l 1078 -250 z "},"ॿ":{"ha":942,"x_min":-119,"x_max":1081,"o":"m 850 931 l 850 -249 l 258 -249 l 139 -153 l 139 -86 l 656 -86 l 656 244 q 515 207 596 207 q 332 252 426 207 q 175 373 238 297 q 113 535 113 449 q 147 647 113 596 q 241 729 181 697 q 378 765 301 761 l 508 668 l 508 601 q 453 607 482 607 q 388 592 415 607 l 582 431 l 654 533 l 654 929 l 14 929 l -119 1025 l -119 1092 l 946 1092 l 1079 996 l 1081 931 l 850 931 m 424 331 q 529 374 482 331 l 332 536 q 317 460 317 501 q 343 363 317 397 q 422 329 369 329 l 424 331 z "},"ꣻ":{"ha":1271,"x_min":222,"x_max":1049,"o":"m 1049 929 l 357 929 l 222 1025 l 222 1092 l 914 1092 l 1049 996 l 1049 929 z "},"⁄":{"ha":324,"x_min":-303,"x_max":625,"o":"m -239 -269 l -303 -237 l 561 1386 l 625 1356 l -239 -269 z "},"½":{"ha":1594,"x_min":97,"x_max":1528,"o":"m 468 578 l 111 578 l 111 632 l 219 706 l 219 1040 l 97 1074 l 125 1136 l 482 1136 l 482 1082 l 375 1008 l 375 672 l 496 640 l 468 578 m 354 -269 l 290 -237 l 1154 1386 l 1218 1356 l 354 -269 m 1528 -128 l 1444 -110 l 949 -110 l 949 -53 q 1157 98 1085 42 q 1258 190 1229 154 q 1286 257 1286 226 q 1252 319 1286 294 q 1164 343 1218 343 q 981 276 1092 343 l 947 338 l 1104 447 q 1194 458 1142 458 q 1391 418 1317 458 q 1465 313 1465 378 q 1397 200 1465 271 q 1185 28 1329 129 l 1432 28 l 1471 114 l 1528 96 l 1528 -128 z "},"⅓":{"ha":1563,"x_min":97,"x_max":1479,"o":"m 468 578 l 111 578 l 111 632 l 219 706 l 219 1040 l 97 1074 l 125 1136 l 482 1136 l 482 1082 l 375 1008 l 375 672 l 496 640 l 468 578 m 354 -269 l 290 -237 l 1154 1386 l 1218 1356 l 354 -269 m 1294 140 q 1438 56 1396 94 q 1479 -28 1479 18 q 1360 -212 1479 -132 q 979 -367 1242 -293 l 960 -296 q 1176 -222 1103 -254 q 1280 -156 1250 -190 q 1310 -74 1310 -122 q 1278 -10 1310 -37 q 1161 57 1246 18 l 1161 106 q 1241 192 1219 160 q 1263 257 1263 224 q 1231 324 1263 297 q 1151 350 1200 350 q 983 283 1093 350 l 950 340 l 1108 450 q 1160 458 1132 458 q 1296 438 1233 458 q 1395 385 1358 418 q 1432 313 1432 351 q 1396 234 1428 274 q 1294 140 1364 194 z "},"⅔":{"ha":1678,"x_min":61,"x_max":1594,"o":"m 642 558 l 558 576 l 63 576 l 63 633 q 271 784 199 728 q 372 876 343 840 q 400 943 400 913 q 366 1005 400 981 q 278 1029 332 1029 q 94 963 206 1029 l 61 1024 l 218 1133 q 308 1144 256 1144 q 505 1104 431 1144 q 579 999 579 1064 q 511 886 579 957 q 299 714 443 815 l 546 714 l 585 800 l 642 782 l 642 558 m 469 -269 l 406 -237 l 1269 1386 l 1333 1356 l 469 -269 m 1410 140 q 1553 56 1511 94 q 1594 -28 1594 18 q 1476 -212 1594 -132 q 1094 -367 1357 -293 l 1075 -296 q 1292 -222 1218 -254 q 1395 -156 1365 -190 q 1425 -74 1425 -122 q 1393 -10 1425 -37 q 1276 57 1361 18 l 1276 106 q 1356 192 1335 160 q 1378 257 1378 224 q 1347 324 1378 297 q 1267 350 1315 350 q 1099 283 1208 350 l 1065 340 l 1224 450 q 1275 458 1247 458 q 1411 438 1349 458 q 1510 385 1474 418 q 1547 313 1547 351 q 1511 234 1543 274 q 1410 140 1479 194 z "},"¼":{"ha":1458,"x_min":97,"x_max":1438,"o":"m 468 578 l 111 578 l 111 632 l 219 706 l 219 1040 l 97 1074 l 125 1136 l 482 1136 l 482 1082 l 375 1008 l 375 672 l 496 640 l 468 578 m 354 -269 l 290 -237 l 1154 1386 l 1218 1356 l 354 -269 m 1268 -69 l 1268 -260 l 1113 -318 l 1113 -69 l 701 -69 l 701 -17 l 1113 419 l 1268 476 l 1268 24 l 1438 24 l 1399 -69 l 1268 -69 m 1113 294 l 861 24 l 1113 24 l 1113 294 z "},"¾":{"ha":1511,"x_min":33,"x_max":1490,"o":"m 378 826 q 521 742 479 781 q 563 658 563 704 q 444 474 563 554 q 63 319 325 393 l 43 390 q 260 465 186 433 q 363 531 333 497 q 393 613 393 564 q 361 676 393 649 q 244 743 329 704 l 244 792 q 324 878 303 846 q 346 943 346 910 q 315 1010 346 983 q 235 1036 283 1036 q 67 969 176 1036 l 33 1026 l 192 1136 q 243 1144 214 1144 q 379 1124 317 1144 q 478 1071 442 1104 q 515 999 515 1038 q 479 920 511 960 q 378 826 447 881 m 407 -269 l 343 -237 l 1207 1386 l 1271 1356 l 407 -269 m 1321 -69 l 1321 -260 l 1165 -318 l 1165 -69 l 754 -69 l 754 -17 l 1165 419 l 1321 476 l 1321 24 l 1490 24 l 1451 -69 l 1321 -69 m 1165 294 l 914 24 l 1165 24 l 1165 294 z "},"⅛":{"ha":1761,"x_min":97,"x_max":1681,"o":"m 468 578 l 111 578 l 111 632 l 219 706 l 219 1040 l 97 1074 l 125 1136 l 482 1136 l 482 1082 l 375 1008 l 375 672 l 496 640 l 468 578 m 354 -269 l 290 -237 l 1154 1386 l 1218 1356 l 354 -269 m 1467 356 q 1625 253 1569 303 q 1681 136 1681 204 q 1628 23 1681 83 q 1501 -79 1576 -37 q 1365 -121 1426 -121 q 1176 -90 1260 -121 q 1044 -6 1092 -60 q 997 111 997 47 q 1043 214 997 163 q 1196 340 1089 265 q 1094 424 1131 381 q 1057 519 1057 467 q 1106 620 1057 567 q 1225 710 1154 674 q 1354 747 1296 747 q 1490 723 1431 747 q 1583 658 1550 699 q 1617 571 1617 618 q 1581 480 1613 528 q 1468 356 1550 432 l 1467 356 m 1328 657 q 1253 631 1283 657 q 1222 565 1222 604 q 1267 476 1222 515 q 1396 393 1311 438 q 1449 469 1438 443 q 1461 526 1461 494 q 1424 619 1461 582 q 1328 657 1386 657 m 1369 -29 q 1473 7 1433 -29 q 1513 92 1513 43 q 1460 187 1513 146 q 1299 283 1407 228 l 1264 301 q 1184 224 1203 254 q 1165 158 1165 194 q 1194 67 1165 110 q 1270 -2 1222 24 q 1371 -28 1318 -28 l 1369 -29 z "},"⅜":{"ha":1814,"x_min":33,"x_max":1733,"o":"m 378 826 q 521 742 479 781 q 563 658 563 704 q 444 474 563 554 q 63 319 325 393 l 43 390 q 260 465 186 433 q 363 531 333 497 q 393 613 393 564 q 361 676 393 649 q 244 743 329 704 l 244 792 q 324 878 303 846 q 346 943 346 910 q 315 1010 346 983 q 235 1036 283 1036 q 67 969 176 1036 l 33 1026 l 192 1136 q 243 1144 214 1144 q 379 1124 317 1144 q 478 1071 442 1104 q 515 999 515 1038 q 479 920 511 960 q 378 826 447 881 m 407 -269 l 343 -237 l 1207 1386 l 1271 1356 l 407 -269 m 1519 356 q 1678 253 1622 303 q 1733 136 1733 204 q 1681 23 1733 83 q 1554 -79 1629 -37 q 1418 -121 1479 -121 q 1228 -90 1313 -121 q 1097 -6 1144 -60 q 1050 111 1050 47 q 1096 214 1050 163 q 1249 340 1142 265 q 1147 424 1183 381 q 1110 519 1110 467 q 1158 620 1110 567 q 1278 710 1207 674 q 1407 747 1349 747 q 1543 723 1483 747 q 1636 658 1603 699 q 1669 571 1669 618 q 1634 480 1665 528 q 1521 356 1603 432 l 1519 356 m 1381 657 q 1306 631 1336 657 q 1275 565 1275 604 q 1319 476 1275 515 q 1449 393 1364 438 q 1502 469 1490 443 q 1514 526 1514 494 q 1476 619 1514 582 q 1381 657 1439 657 m 1422 -29 q 1526 7 1486 -29 q 1565 92 1565 43 q 1513 187 1565 146 q 1351 283 1460 228 l 1317 301 q 1237 224 1256 254 q 1218 158 1218 194 q 1247 67 1218 110 q 1323 -2 1275 24 q 1424 -28 1371 -28 l 1422 -29 z "},"⅝":{"ha":1907,"x_min":63,"x_max":1826,"o":"m 185 925 q 433 824 346 868 q 553 741 519 781 q 588 654 588 701 q 515 506 588 569 q 335 401 442 443 q 82 319 229 360 l 63 390 q 289 467 214 433 q 391 531 364 500 q 418 608 418 563 q 393 675 418 646 q 297 738 368 704 q 88 821 226 772 l 163 1135 l 476 1135 l 515 1218 l 569 1203 l 569 979 l 488 997 l 201 997 l 185 925 m 500 -269 l 436 -237 l 1300 1386 l 1364 1356 l 500 -269 m 1613 356 q 1771 253 1715 303 q 1826 136 1826 204 q 1774 23 1826 83 q 1647 -79 1722 -37 q 1511 -121 1572 -121 q 1322 -90 1406 -121 q 1190 -6 1238 -60 q 1143 111 1143 47 q 1189 214 1143 163 q 1342 340 1235 265 q 1240 424 1276 381 q 1203 519 1203 467 q 1251 620 1203 567 q 1371 710 1300 674 q 1500 747 1442 747 q 1636 723 1576 747 q 1729 658 1696 699 q 1763 571 1763 618 q 1727 480 1758 528 q 1614 356 1696 432 l 1613 356 m 1474 657 q 1399 631 1429 657 q 1368 565 1368 604 q 1413 476 1368 515 q 1542 393 1457 438 q 1595 469 1583 443 q 1607 526 1607 494 q 1569 619 1607 582 q 1474 657 1532 657 m 1515 -29 q 1619 7 1579 -29 q 1658 92 1658 43 q 1606 187 1658 146 q 1444 283 1553 228 l 1410 301 q 1330 224 1349 254 q 1311 158 1311 194 q 1340 67 1311 110 q 1416 -2 1368 24 q 1517 -28 1464 -28 l 1515 -29 z "},"⅞":{"ha":1831,"x_min":94,"x_max":1750,"o":"m 696 1068 l 243 319 l 163 344 l 561 997 l 186 997 l 150 918 l 94 936 l 94 1151 l 178 1135 l 696 1135 l 696 1068 m 424 -269 l 360 -237 l 1224 1386 l 1288 1356 l 424 -269 m 1536 356 q 1694 253 1639 303 q 1750 136 1750 204 q 1698 23 1750 83 q 1571 -79 1646 -37 q 1435 -121 1496 -121 q 1245 -90 1329 -121 q 1114 -6 1161 -60 q 1067 111 1067 47 q 1113 214 1067 163 q 1265 340 1158 265 q 1163 424 1200 381 q 1126 519 1126 467 q 1175 620 1126 567 q 1294 710 1224 674 q 1424 747 1365 747 q 1560 723 1500 747 q 1653 658 1619 699 q 1686 571 1686 618 q 1651 480 1682 528 q 1538 356 1619 432 l 1536 356 m 1397 657 q 1322 631 1353 657 q 1292 565 1292 604 q 1336 476 1292 515 q 1465 393 1381 438 q 1519 469 1507 443 q 1531 526 1531 494 q 1493 619 1531 582 q 1397 657 1456 657 m 1439 -29 q 1542 7 1503 -29 q 1582 92 1582 43 q 1529 187 1582 146 q 1368 283 1476 228 l 1333 301 q 1253 224 1272 254 q 1235 158 1235 194 q 1263 67 1235 110 q 1340 -2 1292 24 q 1440 -28 1388 -28 l 1439 -29 z "},"₀":{"ha":883,"x_min":90,"x_max":793,"o":"m 482 458 q 643 422 572 458 q 753 324 714 386 q 793 186 793 263 q 732 34 793 104 q 579 -78 671 -36 q 403 -119 488 -119 q 242 -84 313 -119 q 131 14 171 -49 q 90 153 90 76 q 151 304 90 233 q 305 417 213 375 q 482 458 397 458 m 417 353 q 258 199 258 353 q 312 47 258 108 q 467 -14 365 -14 q 625 140 625 -14 q 572 292 625 232 q 417 353 518 353 z "},"₁":{"ha":547,"x_min":58,"x_max":457,"o":"m 429 -108 l 72 -108 l 72 -54 l 181 19 l 181 354 l 58 388 l 86 450 l 443 450 l 443 396 l 336 322 l 336 -14 l 457 -46 l 429 -108 z "},"₂":{"ha":708,"x_min":61,"x_max":642,"o":"m 642 -128 l 558 -110 l 63 -110 l 63 -53 q 271 98 199 42 q 372 190 343 154 q 400 257 400 226 q 366 319 400 294 q 278 343 332 343 q 94 276 206 343 l 61 338 l 218 447 q 308 458 256 458 q 505 418 431 458 q 579 313 579 378 q 511 200 579 271 q 299 28 443 129 l 546 28 l 585 114 l 642 96 l 642 -128 z "},"₃":{"ha":646,"x_min":33,"x_max":563,"o":"m 378 140 q 521 56 479 94 q 563 -28 563 18 q 444 -212 563 -132 q 63 -367 325 -293 l 43 -296 q 260 -222 186 -254 q 363 -156 333 -190 q 393 -74 393 -122 q 361 -10 393 -37 q 244 57 329 18 l 244 106 q 324 192 303 160 q 346 257 346 224 q 315 324 346 297 q 235 350 283 350 q 67 283 176 350 l 33 340 l 192 450 q 243 458 215 458 q 379 438 317 458 q 478 385 442 418 q 515 313 515 351 q 479 234 511 274 q 378 140 447 194 z "},"₄":{"ha":799,"x_min":42,"x_max":778,"o":"m 608 -69 l 608 -260 l 453 -318 l 453 -69 l 42 -69 l 42 -17 l 453 419 l 608 476 l 608 24 l 778 24 l 739 -69 l 608 -69 m 453 294 l 201 24 l 453 24 l 453 294 z "},"₅":{"ha":739,"x_min":63,"x_max":588,"o":"m 185 239 q 433 138 346 182 q 553 55 519 94 q 588 -33 588 15 q 515 -181 588 -118 q 335 -286 442 -244 q 82 -367 228 -328 l 63 -296 q 289 -220 214 -253 q 391 -156 364 -187 q 418 -79 418 -124 q 393 -12 418 -42 q 297 52 368 18 q 88 135 226 86 l 163 449 l 476 449 l 515 532 l 569 517 l 569 293 l 488 311 l 201 311 l 185 239 z "},"₆":{"ha":851,"x_min":110,"x_max":769,"o":"m 681 685 q 372 456 467 567 q 278 226 278 344 q 328 55 278 124 q 475 -14 379 -14 q 601 121 601 -14 q 540 269 601 208 q 386 360 479 331 l 428 426 q 601 392 522 426 q 724 299 679 358 q 769 167 769 240 q 717 32 769 99 q 581 -77 664 -35 q 411 -119 497 -119 q 255 -80 324 -119 q 148 28 186 -40 q 110 182 110 97 q 155 381 110 290 q 318 562 200 471 q 649 749 436 653 l 681 685 z "},"₇":{"ha":763,"x_min":94,"x_max":696,"o":"m 696 382 l 243 -367 l 163 -342 l 561 311 l 186 311 l 150 232 l 94 250 l 94 465 l 178 449 l 696 449 l 696 382 z "},"₈":{"ha":844,"x_min":81,"x_max":764,"o":"m 550 356 q 708 253 653 303 q 764 136 764 204 q 712 23 764 83 q 585 -79 660 -37 q 449 -121 510 -121 q 259 -90 343 -121 q 128 -6 175 -60 q 81 111 81 47 q 126 214 81 163 q 279 340 172 265 q 177 424 214 381 q 140 519 140 467 q 189 620 140 567 q 308 710 238 674 q 438 747 379 747 q 574 723 514 747 q 667 658 633 699 q 700 571 700 618 q 665 480 696 528 q 551 356 633 432 l 550 356 m 411 657 q 336 631 367 657 q 306 565 306 604 q 350 476 306 515 q 479 393 394 438 q 533 469 521 443 q 544 526 544 494 q 507 619 544 582 q 411 657 469 657 m 453 -29 q 556 7 517 -29 q 596 92 596 43 q 543 187 596 146 q 382 283 490 228 l 347 301 q 267 224 286 254 q 249 158 249 194 q 277 67 249 110 q 353 -2 306 24 q 454 -28 401 -28 l 453 -29 z "},"₉":{"ha":838,"x_min":89,"x_max":749,"o":"m 447 458 q 603 422 535 458 q 710 321 672 385 q 749 179 749 257 q 703 -12 749 75 q 541 -187 658 -100 q 213 -367 424 -275 l 181 -303 q 487 -84 393 -190 q 581 133 581 22 q 529 290 581 228 q 382 353 478 353 q 257 217 257 353 q 315 69 257 131 q 464 -21 374 8 l 415 -89 q 251 -53 325 -87 q 133 41 176 -18 q 89 172 89 100 q 142 307 89 240 q 278 416 194 374 q 447 458 361 458 z "},"⁰":{"ha":883,"x_min":90,"x_max":793,"o":"m 482 1144 q 643 1108 572 1144 q 753 1010 714 1072 q 793 872 793 949 q 732 720 793 790 q 579 608 671 650 q 403 567 488 567 q 242 602 313 567 q 131 700 171 638 q 90 839 90 763 q 151 990 90 919 q 305 1103 213 1061 q 482 1144 397 1144 m 417 1039 q 258 885 258 1039 q 312 733 258 794 q 467 672 365 672 q 625 826 625 672 q 572 978 625 918 q 417 1039 518 1039 z "},"¹":{"ha":593,"x_min":97,"x_max":496,"o":"m 468 578 l 111 578 l 111 632 l 219 706 l 219 1040 l 97 1074 l 125 1136 l 482 1136 l 482 1082 l 375 1008 l 375 672 l 496 640 l 468 578 z "},"²":{"ha":708,"x_min":61,"x_max":642,"o":"m 642 558 l 558 576 l 63 576 l 63 633 q 271 784 199 728 q 372 876 343 840 q 400 943 400 913 q 366 1005 400 981 q 278 1029 332 1029 q 94 963 206 1029 l 61 1024 l 218 1133 q 308 1144 256 1144 q 505 1104 431 1144 q 579 999 579 1064 q 511 886 579 957 q 299 714 443 815 l 546 714 l 585 800 l 642 782 l 642 558 z "},"³":{"ha":646,"x_min":33,"x_max":563,"o":"m 378 826 q 521 742 479 781 q 563 658 563 704 q 444 474 563 554 q 63 319 325 393 l 43 390 q 260 465 186 433 q 363 531 333 497 q 393 613 393 564 q 361 676 393 649 q 244 743 329 704 l 244 792 q 324 878 303 846 q 346 943 346 910 q 315 1010 346 983 q 235 1036 283 1036 q 67 969 176 1036 l 33 1026 l 192 1136 q 243 1144 214 1144 q 379 1124 317 1144 q 478 1071 442 1104 q 515 999 515 1038 q 479 920 511 960 q 378 826 447 881 z "},"⁴":{"ha":799,"x_min":42,"x_max":778,"o":"m 608 618 l 608 426 l 453 368 l 453 618 l 42 618 l 42 671 l 453 1106 l 608 1163 l 608 710 l 778 710 l 739 618 l 608 618 m 453 982 l 200 710 l 453 710 l 453 982 z "},"⁵":{"ha":739,"x_min":63,"x_max":588,"o":"m 185 925 q 433 824 346 868 q 553 741 519 781 q 588 654 588 701 q 515 506 588 569 q 335 401 442 443 q 82 319 229 360 l 63 390 q 289 467 214 433 q 391 531 364 500 q 418 608 418 563 q 393 675 418 646 q 297 738 368 704 q 88 821 226 772 l 163 1135 l 476 1135 l 515 1218 l 569 1203 l 569 979 l 488 997 l 201 997 l 185 925 z "},"⁶":{"ha":851,"x_min":110,"x_max":769,"o":"m 681 1371 q 372 1142 467 1253 q 278 913 278 1031 q 328 741 278 810 q 475 672 379 672 q 601 807 601 672 q 540 956 601 894 q 386 1046 479 1017 l 428 1113 q 601 1078 522 1113 q 724 985 679 1044 q 769 853 769 926 q 717 718 769 785 q 581 609 664 651 q 411 567 497 567 q 255 606 324 567 q 148 715 186 646 q 110 868 110 783 q 155 1067 110 976 q 318 1248 200 1157 q 649 1435 436 1339 l 681 1371 z "},"⁷":{"ha":763,"x_min":94,"x_max":696,"o":"m 696 1068 l 243 319 l 163 344 l 561 997 l 186 997 l 150 918 l 94 936 l 94 1151 l 178 1135 l 696 1135 l 696 1068 z "},"⁸":{"ha":844,"x_min":81,"x_max":764,"o":"m 550 1042 q 708 940 653 989 q 764 822 764 890 q 712 709 764 769 q 585 607 660 649 q 449 565 510 565 q 259 596 343 565 q 128 680 175 626 q 81 797 81 733 q 126 900 81 849 q 279 1026 172 951 q 177 1110 214 1067 q 140 1206 140 1153 q 189 1306 140 1253 q 308 1397 238 1360 q 438 1433 379 1433 q 574 1409 514 1433 q 667 1344 633 1385 q 700 1257 700 1304 q 665 1166 696 1214 q 551 1042 633 1118 l 550 1042 m 411 1343 q 336 1317 367 1343 q 306 1251 306 1290 q 350 1163 306 1201 q 479 1079 394 1124 q 533 1155 521 1129 q 544 1213 544 1181 q 507 1306 544 1268 q 411 1343 469 1343 m 453 657 q 556 693 517 657 q 596 778 596 729 q 543 873 596 832 q 382 969 490 914 l 347 988 q 267 910 286 940 q 249 844 249 881 q 277 753 249 796 q 353 684 306 710 q 454 658 401 658 l 453 657 z "},"⁹":{"ha":838,"x_min":89,"x_max":749,"o":"m 447 1144 q 603 1108 535 1144 q 710 1007 672 1071 q 749 865 749 943 q 703 674 749 761 q 541 499 658 586 q 213 319 424 411 l 181 383 q 487 602 393 496 q 581 819 581 708 q 529 976 581 914 q 382 1039 478 1039 q 257 903 257 1039 q 315 756 257 817 q 464 667 374 694 l 415 597 q 251 633 325 599 q 133 727 176 668 q 89 858 89 786 q 142 993 89 926 q 278 1102 194 1060 q 447 1144 361 1144 z "},"०":{"ha":947,"x_min":129,"x_max":818,"o":"m 413 811 q 595 763 500 811 q 754 633 690 714 q 818 464 818 553 q 781 334 818 392 q 680 243 744 276 q 533 210 615 210 q 352 258 447 210 q 193 387 257 307 q 129 556 129 467 q 165 686 129 628 q 266 778 201 744 q 413 811 331 811 m 493 686 q 417 663 453 686 q 360 594 382 639 q 339 486 339 549 q 454 335 339 335 q 563 388 517 335 q 608 535 608 440 q 579 648 608 610 q 493 686 550 686 z "},"१":{"ha":796,"x_min":43,"x_max":589,"o":"m 264 1104 q 430 1042 356 1104 q 547 871 504 979 q 589 629 589 763 q 560 310 589 508 q 503 -15 531 113 l 436 -15 l 308 43 q 360 342 339 192 q 390 615 382 493 q 226 659 307 615 q 94 772 146 703 q 43 910 43 840 q 74 1006 43 961 q 155 1078 104 1051 q 263 1106 206 1106 l 264 1104 m 317 740 q 356 751 339 740 q 394 788 374 761 q 374 929 392 881 q 328 978 357 978 q 276 936 297 978 q 256 836 256 894 q 271 764 256 788 q 318 740 286 740 l 317 740 z "},"२":{"ha":936,"x_min":124,"x_max":1026,"o":"m 569 339 q 424 271 488 271 q 301 314 369 271 q 185 417 233 357 q 138 524 138 476 q 176 578 138 560 q 286 596 214 596 q 458 567 371 596 q 578 836 578 703 q 553 913 578 886 q 485 939 529 939 q 376 908 439 939 q 257 828 313 876 l 124 924 l 124 990 q 258 1074 182 1042 q 399 1106 333 1106 q 576 1049 485 1106 q 728 908 668 993 q 789 744 789 824 q 742 568 789 665 q 625 393 696 471 l 1026 60 l 975 1 l 569 339 z "},"३":{"ha":1051,"x_min":124,"x_max":938,"o":"m 938 221 q 888 115 938 171 q 762 22 838 58 q 617 -15 686 -15 q 533 -8 579 -15 l 818 -244 l 764 -304 l 281 99 q 166 214 208 150 q 124 340 124 278 q 143 413 124 389 q 196 438 163 438 q 374 163 329 438 q 497 133 436 133 q 617 155 561 133 q 706 211 672 176 q 739 283 739 246 q 715 360 739 324 q 629 447 690 397 q 451 574 568 496 l 451 640 q 535 681 494 651 q 602 751 576 711 q 628 831 628 792 q 606 909 628 879 q 540 939 585 939 q 420 906 482 939 q 307 828 358 874 l 174 924 l 174 990 q 309 1074 233 1042 q 449 1106 385 1106 q 627 1049 536 1106 q 778 906 718 992 q 838 744 838 821 q 797 619 838 674 q 686 536 757 565 q 872 374 807 454 q 936 222 936 293 l 938 221 z "},"४":{"ha":1035,"x_min":136,"x_max":876,"o":"m 629 583 q 790 413 739 472 q 858 313 840 354 q 876 221 876 271 q 837 103 876 157 q 730 18 797 50 q 582 -14 663 -14 q 377 36 476 -14 q 217 167 278 86 q 156 333 156 247 q 186 452 156 392 q 288 589 217 513 l 385 693 l 290 782 q 174 928 211 857 q 136 1075 136 999 q 146 1165 136 1117 l 197 1226 l 357 1106 q 346 1010 346 1047 q 442 753 346 860 l 544 863 q 641 1000 617 942 q 665 1128 665 1058 q 657 1174 665 1151 l 710 1226 l 868 1108 q 876 1053 876 1079 q 837 925 876 989 q 701 754 797 861 l 581 626 l 629 583 m 489 115 q 617 164 567 115 q 667 288 667 213 q 522 563 667 407 l 467 504 q 391 391 415 450 q 367 263 367 332 q 396 151 367 186 q 489 115 425 115 z "},"५":{"ha":1065,"x_min":172,"x_max":1164,"o":"m 743 86 q 689 12 718 38 q 629 -15 660 -14 q 490 28 568 -15 q 354 133 411 72 q 297 242 297 194 q 339 291 297 272 q 457 310 381 310 q 613 293 521 310 q 630 474 624 388 q 638 678 636 561 q 546 663 592 663 q 375 704 463 663 q 230 815 288 746 q 172 964 172 885 l 172 1104 l 239 1104 l 367 1046 l 367 915 q 460 788 367 788 q 542 805 501 788 q 610 857 583 822 q 636 943 636 892 l 636 1104 l 703 1104 l 831 1046 l 831 638 q 774 164 831 339 l 1164 -161 l 1111 -219 l 743 86 z "},"६":{"ha":1160,"x_min":100,"x_max":1356,"o":"m 868 344 q 713 267 794 297 q 564 238 632 238 q 374 283 471 238 q 212 403 276 328 q 147 565 147 478 q 175 665 147 618 q 253 746 203 713 q 142 832 185 781 q 100 942 100 883 q 133 1033 100 993 q 225 1097 167 1074 q 357 1119 283 1119 q 393 1118 379 1119 l 528 1021 l 528 954 q 453 964 490 964 q 350 938 389 964 q 311 878 311 913 q 345 824 311 843 q 474 803 379 806 l 478 803 l 611 706 l 611 639 q 551 643 590 643 q 408 601 458 643 q 358 493 358 558 q 390 411 358 440 q 478 382 422 382 q 633 418 567 382 q 743 511 700 454 q 714 683 714 603 q 733 795 714 757 q 786 833 751 833 q 893 785 833 833 q 996 669 953 738 q 1039 547 1039 601 q 1011 472 1039 513 q 936 392 983 432 l 1356 43 l 1300 -15 l 868 344 z "},"७":{"ha":1342,"x_min":125,"x_max":1186,"o":"m 849 989 q 1017 928 939 989 q 1140 766 1094 868 q 1186 544 1186 664 q 1122 264 1186 392 q 949 62 1058 136 q 708 -12 840 -12 q 416 83 550 -12 q 203 340 282 179 q 125 685 125 500 q 244 1167 125 925 l 294 1228 l 456 1107 q 361 811 386 940 q 336 546 336 682 q 410 238 336 353 q 622 122 483 122 q 848 221 760 122 q 964 499 936 319 q 805 545 883 501 q 677 655 726 589 q 628 788 628 721 q 658 887 628 840 q 738 960 688 933 q 849 988 789 988 l 849 989 m 900 624 q 938 633 921 624 q 975 668 954 643 q 914 863 972 863 q 861 822 883 863 q 839 722 839 781 q 900 624 839 624 z "},"८":{"ha":1053,"x_min":-101,"x_max":1025,"o":"m 564 929 q 411 863 469 929 q 353 685 353 796 q 391 577 353 619 q 485 511 429 535 q 638 458 540 488 q 811 397 746 426 q 922 313 876 368 q 968 171 968 258 q 925 53 968 103 q 821 -26 882 3 l 690 71 l 690 138 q 740 173 721 147 q 758 238 758 199 q 728 308 758 279 q 651 356 697 336 q 524 403 606 376 q 328 480 404 443 q 197 586 251 517 q 142 763 142 656 q 189 929 142 850 l 39 929 l -101 1025 l -101 1092 l 883 1092 l 1025 996 l 1025 929 l 564 929 z "},"९":{"ha":986,"x_min":114,"x_max":892,"o":"m 892 153 q 725 39 826 90 q 531 -12 624 -12 q 341 41 439 -12 q 178 184 243 94 q 114 376 114 274 q 173 522 114 454 q 328 628 232 589 q 211 750 256 682 q 167 894 167 818 q 200 1003 167 954 q 293 1080 233 1051 q 429 1108 353 1108 q 590 1074 511 1108 q 719 986 669 1040 q 768 875 768 932 q 710 783 768 821 q 568 746 653 746 l 543 749 l 451 821 l 451 888 q 496 878 472 878 q 541 894 524 878 q 558 938 558 911 q 506 976 558 976 q 413 939 449 976 q 378 844 378 901 q 469 663 378 739 q 515 665 500 665 l 650 569 l 650 503 q 589 506 629 506 q 447 478 510 506 q 349 399 383 450 q 314 283 314 349 q 349 185 314 225 q 440 146 385 146 q 618 194 542 146 q 757 315 694 243 l 892 219 l 892 153 z "},"Ⅰ":{"ha":693,"x_min":97,"x_max":596,"o":"m 561 0 l 115 0 l 115 57 l 250 163 l 250 681 l 97 728 l 132 797 l 579 797 l 579 740 l 444 635 l 444 117 l 596 69 l 561 0 z "},"Ⅱ":{"ha":1386,"x_min":97,"x_max":1289,"o":"m 561 0 l 115 0 l 115 57 l 250 163 l 250 681 l 97 728 l 132 797 l 579 797 l 579 740 l 444 635 l 444 117 l 596 69 l 561 0 m 1254 0 l 808 0 l 808 57 l 943 163 l 943 681 l 790 728 l 825 797 l 1272 797 l 1272 740 l 1138 635 l 1138 117 l 1289 69 l 1254 0 z "},"Ⅲ":{"ha":2079,"x_min":97,"x_max":1982,"o":"m 561 0 l 115 0 l 115 57 l 250 163 l 250 681 l 97 728 l 132 797 l 579 797 l 579 740 l 444 635 l 444 117 l 596 69 l 561 0 m 1254 0 l 808 0 l 808 57 l 943 163 l 943 681 l 790 728 l 825 797 l 1272 797 l 1272 740 l 1138 635 l 1138 117 l 1289 69 l 1254 0 m 1947 0 l 1501 0 l 1501 57 l 1636 163 l 1636 681 l 1483 728 l 1518 797 l 1965 797 l 1965 740 l 1831 635 l 1831 117 l 1982 69 l 1947 0 z "},"Ⅳ":{"ha":1800,"x_min":97,"x_max":1801,"o":"m 561 0 l 115 0 l 115 57 l 250 163 l 250 681 l 97 728 l 132 797 l 579 797 l 579 740 l 444 635 l 444 117 l 596 69 l 561 0 m 1661 632 l 1349 44 l 1167 -26 l 831 650 l 690 728 l 726 797 l 1176 797 l 1176 740 l 1049 649 l 1303 142 l 1568 638 l 1343 728 l 1378 797 l 1800 797 l 1801 740 l 1661 632 z "},"Ⅴ":{"ha":1107,"x_min":-3,"x_max":1108,"o":"m 968 632 l 656 44 l 474 -26 l 138 650 l -3 728 l 33 797 l 483 797 l 483 740 l 356 649 l 610 142 l 875 638 l 650 728 l 685 797 l 1107 797 l 1108 740 l 968 632 z "},"Ⅵ":{"ha":1800,"x_min":-3,"x_max":1703,"o":"m 968 632 l 656 44 l 474 -26 l 138 650 l -3 728 l 33 797 l 483 797 l 483 740 l 356 649 l 610 142 l 875 638 l 650 728 l 685 797 l 1107 797 l 1108 740 l 968 632 m 1668 0 l 1222 0 l 1222 57 l 1357 163 l 1357 681 l 1204 728 l 1239 797 l 1686 797 l 1686 740 l 1551 635 l 1551 117 l 1703 69 l 1668 0 z "},"Ⅶ":{"ha":2493,"x_min":-3,"x_max":2396,"o":"m 968 632 l 656 44 l 474 -26 l 138 650 l -3 728 l 33 797 l 483 797 l 483 740 l 356 649 l 610 142 l 875 638 l 650 728 l 685 797 l 1107 797 l 1108 740 l 968 632 m 1668 0 l 1222 0 l 1222 57 l 1357 163 l 1357 681 l 1204 728 l 1239 797 l 1686 797 l 1686 740 l 1551 635 l 1551 117 l 1703 69 l 1668 0 m 2361 0 l 1915 0 l 1915 57 l 2050 163 l 2050 681 l 1897 728 l 1932 797 l 2379 797 l 2379 740 l 2244 635 l 2244 117 l 2396 69 l 2361 0 z "},"Ⅷ":{"ha":3186,"x_min":-3,"x_max":3089,"o":"m 968 632 l 656 44 l 474 -26 l 138 650 l -3 728 l 33 797 l 483 797 l 483 740 l 356 649 l 610 142 l 875 638 l 650 728 l 685 797 l 1107 797 l 1108 740 l 968 632 m 1668 0 l 1222 0 l 1222 57 l 1357 163 l 1357 681 l 1204 728 l 1239 797 l 1686 797 l 1686 740 l 1551 635 l 1551 117 l 1703 69 l 1668 0 m 2361 0 l 1915 0 l 1915 57 l 2050 163 l 2050 681 l 1897 728 l 1932 797 l 2379 797 l 2379 740 l 2244 635 l 2244 117 l 2396 69 l 2361 0 m 3054 0 l 2608 0 l 2608 57 l 2743 163 l 2743 681 l 2590 728 l 2625 797 l 3072 797 l 3072 740 l 2938 635 l 2938 117 l 3089 69 l 3054 0 z "},"Ⅸ":{"ha":1808,"x_min":97,"x_max":1775,"o":"m 561 0 l 115 0 l 115 57 l 250 163 l 250 681 l 97 728 l 132 797 l 579 797 l 579 740 l 444 635 l 444 117 l 596 69 l 561 0 m 1740 0 l 1304 0 l 1304 57 l 1396 126 l 1203 317 l 1000 149 l 1176 69 l 1142 0 l 719 0 l 719 57 l 838 122 l 1142 374 l 888 631 l 725 728 l 760 797 l 1196 797 l 1196 740 l 1101 674 l 1294 489 l 1475 647 l 1296 728 l 1331 797 l 1753 797 l 1753 740 l 1635 674 l 1358 431 l 1631 153 l 1775 69 l 1740 0 z "},"Ⅹ":{"ha":1115,"x_min":26,"x_max":1082,"o":"m 1047 0 l 611 0 l 611 57 l 703 126 l 510 317 l 307 149 l 483 69 l 449 0 l 26 0 l 26 57 l 144 122 l 449 374 l 194 631 l 32 728 l 67 797 l 503 797 l 503 740 l 408 674 l 601 489 l 782 647 l 603 728 l 638 797 l 1060 797 l 1060 740 l 942 674 l 665 431 l 938 153 l 1082 69 l 1047 0 z "},"Ⅺ":{"ha":1800,"x_min":-3,"x_max":1703,"o":"m 968 632 l 656 44 l 474 -26 l 138 650 l -3 728 l 33 797 l 483 797 l 483 740 l 356 649 l 610 142 l 875 638 l 650 728 l 685 797 l 1107 797 l 1108 740 l 968 632 m 1668 0 l 1222 0 l 1222 57 l 1357 163 l 1357 681 l 1204 728 l 1239 797 l 1686 797 l 1686 740 l 1551 635 l 1551 117 l 1703 69 l 1668 0 z "}}}
